{"glyphs":{"0":{"ha":888,"x_min":94,"x_max":869,"o":"m 385 -14 q 167 64 240 -14 q 94 282 94 142 q 111 431 94 351 q 272 788 161 667 q 582 908 383 908 q 800 836 731 908 q 869 624 869 764 q 846 431 869 540 q 687 103 801 219 q 385 -14 572 -14 m 399 51 q 642 153 549 51 q 771 431 735 256 q 796 622 796 551 q 742 787 796 732 q 567 842 689 842 q 322 738 413 842 q 186 431 231 635 q 169 285 169 351 q 224 112 169 172 q 399 51 278 51 z "},"1":{"ha":397,"x_min":161,"x_max":431,"o":"m 338 833 l 192 810 l 206 874 l 431 908 l 238 0 l 161 0 l 338 833 z "},"2":{"ha":693,"x_min":21,"x_max":697,"o":"m 31 47 q 156 200 78 129 q 347 353 235 271 q 496 469 444 424 q 576 558 547 514 q 615 660 604 603 q 622 718 622 694 q 580 810 622 778 q 439 842 538 842 q 226 804 331 842 l 240 874 q 347 899 286 889 q 460 908 408 908 q 635 860 574 908 q 697 722 697 811 q 690 660 697 697 q 642 541 676 593 q 558 445 607 489 q 424 338 508 401 l 383 307 q 225 182 286 236 q 122 61 164 128 l 574 61 l 561 0 l 21 0 l 31 47 z "},"3":{"ha":703,"x_min":25,"x_max":699,"o":"m 243 -14 q 121 -4 182 -14 q 25 21 60 6 l 39 89 q 250 51 133 51 q 453 97 381 51 q 546 242 525 143 q 551 290 551 264 q 501 390 551 357 q 357 424 451 424 l 235 424 l 256 483 l 358 483 q 532 533 467 483 q 617 672 597 582 q 624 724 624 704 q 576 813 624 783 q 424 842 529 842 q 208 804 317 842 l 222 872 q 326 898 263 888 q 446 908 389 908 q 635 860 572 908 q 699 729 699 813 q 692 672 699 704 q 623 534 676 596 q 485 453 569 472 q 591 393 556 436 q 626 290 626 350 q 621 242 626 264 q 496 51 594 115 q 243 -14 397 -14 z "},"4":{"ha":744,"x_min":38,"x_max":732,"o":"m 511 215 l 38 215 l 51 281 l 661 894 l 732 894 l 601 279 l 699 279 l 685 215 l 588 215 l 543 0 l 467 0 l 511 215 m 532 278 l 643 800 l 125 278 l 532 278 z "},"5":{"ha":703,"x_min":29,"x_max":693,"o":"m 247 -14 q 123 -5 183 -14 q 29 21 63 4 l 43 90 q 256 51 136 51 q 451 105 374 51 q 551 263 529 158 q 560 336 560 304 q 517 432 560 401 q 371 463 474 463 l 118 463 l 132 528 l 233 894 l 693 894 l 672 832 l 283 832 l 199 525 l 383 525 q 572 479 510 525 q 635 339 635 433 q 626 263 635 304 q 501 58 599 129 q 247 -14 404 -14 z "},"6":{"ha":779,"x_min":75,"x_max":750,"o":"m 331 -14 q 75 207 75 -14 q 89 321 75 260 l 135 542 q 281 813 171 718 q 557 908 390 908 q 750 881 671 908 l 736 814 q 544 842 664 842 q 324 764 410 842 q 211 554 239 686 l 194 474 q 333 537 260 515 q 467 558 407 558 q 652 508 590 558 q 714 361 714 458 q 704 274 714 318 q 582 63 676 139 q 331 -14 488 -14 m 343 49 q 536 108 463 49 q 632 272 610 168 q 642 354 642 313 q 597 461 642 425 q 447 497 553 497 q 310 474 381 497 q 182 413 240 450 l 156 292 q 146 207 146 249 q 194 88 146 126 q 343 49 242 49 z "},"7":{"ha":688,"x_min":142,"x_max":758,"o":"m 669 832 l 183 832 l 196 894 l 758 894 l 746 832 l 218 0 l 142 0 l 669 832 z "},"8":{"ha":799,"x_min":63,"x_max":788,"o":"m 339 -14 q 133 33 204 -14 q 63 171 63 79 q 69 231 63 196 q 149 378 88 317 q 303 463 210 440 q 210 519 240 479 q 181 615 181 560 q 186 664 181 642 q 299 844 211 779 q 536 908 386 908 q 724 860 661 908 q 788 725 788 813 q 781 664 788 699 q 567 447 747 503 q 683 389 646 429 q 721 286 721 349 q 715 231 721 257 q 339 -14 663 -14 m 483 472 q 641 539 588 496 q 711 664 694 582 q 717 715 717 688 q 669 813 717 781 q 522 846 622 846 q 344 799 413 846 q 257 664 276 753 q 253 622 253 642 q 375 494 253 521 l 483 472 m 353 49 q 644 231 606 49 q 651 282 651 263 q 616 363 651 335 q 497 407 581 390 l 376 433 q 218 367 278 414 q 139 232 158 319 q 133 181 133 208 q 186 81 133 114 q 353 49 239 49 z "},"9":{"ha":779,"x_min":106,"x_max":782,"o":"m 303 -14 q 106 13 181 -14 l 121 81 q 314 51 192 51 q 533 130 449 51 q 644 339 617 208 l 661 417 q 526 353 596 374 q 390 332 456 332 q 206 384 269 332 q 142 536 142 436 q 151 617 142 565 q 274 831 179 753 q 529 908 369 908 q 718 856 654 908 q 782 690 782 803 q 768 572 782 636 l 721 353 q 578 83 685 181 q 303 -14 471 -14 m 411 393 q 675 478 546 393 l 701 603 q 713 693 713 656 q 666 808 713 771 q 517 846 619 846 q 319 785 396 846 q 221 618 243 724 q 211 540 211 569 q 258 431 211 468 q 411 393 304 393 z "},"\r":{"ha":556,"x_min":0,"x_max":0,"o":""}," ":{"ha":542,"x_min":0,"x_max":0,"o":""},"A":{"ha":926,"x_min":21,"x_max":794,"o":"m 549 894 l 646 894 l 794 0 l 721 0 l 676 261 l 257 261 l 104 0 l 21 0 l 549 894 m 672 324 l 588 833 l 288 324 l 672 324 z "},"Á":{"ha":926,"x_min":21,"x_max":794,"o":"m 704 1175 l 776 1175 l 626 956 l 564 956 l 704 1175 m 549 894 l 646 894 l 794 0 l 721 0 l 676 261 l 257 261 l 104 0 l 21 0 l 549 894 m 672 324 l 588 833 l 288 324 l 672 324 z "},"Ă":{"ha":926,"x_min":21,"x_max":797,"o":"m 608 954 q 516 985 549 954 q 483 1069 483 1017 q 488 1108 483 1088 l 543 1108 q 539 1075 539 1090 q 617 1008 539 1008 q 694 1035 661 1008 q 736 1108 726 1061 l 797 1108 q 732 997 782 1039 q 608 954 682 954 m 549 894 l 646 894 l 794 0 l 721 0 l 676 261 l 257 261 l 104 0 l 21 0 l 549 894 m 672 324 l 588 833 l 288 324 l 672 324 z "},"Ắ":{"ha":926,"x_min":21,"x_max":843,"o":"m 714 1254 l 779 1254 l 653 1092 l 596 1092 l 714 1254 m 613 956 q 497 988 542 956 q 453 1088 453 1019 q 458 1139 453 1113 l 508 1139 q 503 1094 503 1117 q 531 1027 503 1049 q 618 1006 560 1006 q 727 1039 682 1006 q 786 1139 772 1072 l 843 1139 q 759 1000 822 1044 q 613 956 696 956 m 549 894 l 646 894 l 794 0 l 721 0 l 676 261 l 257 261 l 104 0 l 21 0 l 549 894 m 672 324 l 588 833 l 288 324 l 672 324 z "},"Ặ":{"ha":926,"x_min":21,"x_max":797,"o":"m 608 954 q 516 985 549 954 q 483 1069 483 1017 q 488 1108 483 1088 l 543 1108 q 539 1075 539 1090 q 617 1008 539 1008 q 694 1035 661 1008 q 736 1108 726 1061 l 797 1108 q 732 997 782 1039 q 608 954 682 954 m 549 894 l 646 894 l 794 0 l 721 0 l 676 261 l 257 261 l 104 0 l 21 0 l 549 894 m 672 324 l 588 833 l 288 324 l 672 324 m 339 -132 l 421 -132 l 404 -211 l 322 -211 l 339 -132 z "},"Ằ":{"ha":926,"x_min":21,"x_max":843,"o":"m 571 1254 l 636 1254 l 683 1092 l 628 1092 l 571 1254 m 613 956 q 497 988 542 956 q 453 1088 453 1019 q 458 1139 453 1113 l 508 1139 q 503 1094 503 1117 q 531 1027 503 1049 q 618 1006 560 1006 q 727 1039 682 1006 q 786 1139 772 1072 l 843 1139 q 759 1000 822 1044 q 613 956 696 956 m 549 894 l 646 894 l 794 0 l 721 0 l 676 261 l 257 261 l 104 0 l 21 0 l 549 894 m 672 324 l 588 833 l 288 324 l 672 324 z "},"Ẳ":{"ha":926,"x_min":21,"x_max":843,"o":"m 606 1157 q 701 1175 675 1160 q 735 1222 728 1190 q 736 1239 736 1228 q 672 1281 736 1281 q 588 1263 631 1281 l 597 1308 q 693 1325 643 1325 q 769 1306 742 1325 q 796 1250 796 1286 q 793 1226 796 1243 q 753 1158 783 1182 q 661 1126 722 1135 l 650 1078 l 589 1078 l 606 1157 m 613 956 q 497 988 542 956 q 453 1088 453 1019 q 458 1139 453 1113 l 508 1139 q 503 1094 503 1117 q 531 1027 503 1049 q 618 1006 560 1006 q 727 1039 682 1006 q 786 1139 772 1072 l 843 1139 q 759 1000 822 1044 q 613 956 696 956 m 549 894 l 646 894 l 794 0 l 721 0 l 676 261 l 257 261 l 104 0 l 21 0 l 549 894 m 672 324 l 588 833 l 288 324 l 672 324 z "},"Ẵ":{"ha":926,"x_min":21,"x_max":864,"o":"m 744 1178 q 657 1203 707 1178 q 617 1219 632 1214 q 586 1225 603 1225 q 526 1215 554 1225 q 472 1181 499 1206 l 485 1240 q 535 1268 506 1258 q 594 1278 565 1278 q 637 1272 618 1278 q 679 1253 656 1265 q 719 1236 704 1242 q 754 1231 735 1231 q 812 1241 786 1231 q 864 1276 838 1251 l 850 1215 q 804 1188 832 1197 q 744 1178 776 1178 m 611 956 q 496 988 540 956 q 451 1088 451 1019 q 457 1139 451 1113 l 507 1139 q 501 1094 501 1117 q 530 1027 501 1049 q 617 1006 558 1006 q 726 1039 681 1006 q 785 1139 771 1072 l 842 1139 q 758 1000 821 1044 q 611 956 694 956 m 549 894 l 646 894 l 794 0 l 721 0 l 676 261 l 257 261 l 104 0 l 21 0 l 549 894 m 672 324 l 588 833 l 288 324 l 672 324 z "},"Ǎ":{"ha":926,"x_min":21,"x_max":828,"o":"m 471 1143 l 536 1143 l 615 1000 l 756 1143 l 828 1143 l 642 956 l 575 956 l 471 1143 m 549 894 l 646 894 l 794 0 l 721 0 l 676 261 l 257 261 l 104 0 l 21 0 l 549 894 m 672 324 l 588 833 l 288 324 l 672 324 z "},"Â":{"ha":926,"x_min":21,"x_max":794,"o":"m 615 1142 l 682 1142 l 788 954 l 721 954 l 642 1097 l 501 954 l 431 954 l 615 1142 m 549 894 l 646 894 l 794 0 l 721 0 l 676 261 l 257 261 l 104 0 l 21 0 l 549 894 m 672 324 l 588 833 l 288 324 l 672 324 z "},"Ấ":{"ha":926,"x_min":21,"x_max":914,"o":"m 850 1264 l 914 1264 l 789 1101 l 732 1101 l 850 1264 m 604 1107 l 671 1107 l 782 954 l 718 954 l 635 1072 l 501 954 l 429 954 l 604 1107 m 549 894 l 646 894 l 794 0 l 721 0 l 676 261 l 257 261 l 104 0 l 21 0 l 549 894 m 672 324 l 588 833 l 288 324 l 672 324 z "},"Ậ":{"ha":926,"x_min":21,"x_max":794,"o":"m 615 1142 l 682 1142 l 788 954 l 721 954 l 642 1097 l 501 954 l 431 954 l 615 1142 m 549 894 l 646 894 l 794 0 l 721 0 l 676 261 l 257 261 l 104 0 l 21 0 l 549 894 m 672 324 l 588 833 l 288 324 l 672 324 m 339 -132 l 421 -132 l 404 -211 l 322 -211 l 339 -132 z "},"Ầ":{"ha":926,"x_min":21,"x_max":794,"o":"m 433 1264 l 499 1264 l 546 1101 l 490 1101 l 433 1264 m 611 1107 l 678 1107 l 789 954 l 725 954 l 642 1072 l 508 954 l 436 954 l 611 1107 m 549 894 l 646 894 l 794 0 l 721 0 l 676 261 l 257 261 l 104 0 l 21 0 l 549 894 m 672 324 l 588 833 l 288 324 l 672 324 z "},"Ẩ":{"ha":926,"x_min":21,"x_max":949,"o":"m 758 1154 q 853 1173 828 1158 q 886 1218 879 1188 q 888 1233 888 1224 q 825 1275 888 1275 q 740 1257 783 1275 l 750 1304 q 844 1321 796 1321 q 922 1301 894 1321 q 949 1244 949 1281 q 946 1221 949 1238 q 905 1152 936 1176 q 815 1122 874 1128 l 804 1072 l 742 1072 l 758 1154 m 608 1107 l 675 1107 l 786 954 l 722 954 l 639 1072 l 507 954 l 433 954 l 608 1107 m 549 894 l 646 894 l 794 0 l 721 0 l 676 261 l 257 261 l 104 0 l 21 0 l 549 894 m 672 324 l 588 833 l 288 324 l 672 324 z "},"Ẫ":{"ha":926,"x_min":21,"x_max":850,"o":"m 732 1118 q 644 1143 694 1118 q 574 1164 600 1164 q 514 1154 542 1164 q 460 1119 486 1144 l 474 1181 q 523 1207 493 1197 q 582 1217 553 1217 q 624 1211 606 1217 q 667 1193 642 1206 q 707 1176 692 1182 q 742 1171 722 1171 q 799 1181 774 1171 q 850 1215 825 1192 l 836 1154 q 790 1128 818 1138 q 732 1118 763 1118 m 606 1107 l 672 1107 l 783 954 l 719 954 l 636 1072 l 504 954 l 431 954 l 606 1107 m 549 894 l 646 894 l 794 0 l 721 0 l 676 261 l 257 261 l 104 0 l 21 0 l 549 894 m 672 324 l 588 833 l 288 324 l 672 324 z "},"Ä":{"ha":926,"x_min":21,"x_max":794,"o":"m 479 1067 l 558 1067 l 542 990 l 464 990 l 479 1067 m 711 1067 l 789 1067 l 772 990 l 694 990 l 711 1067 m 549 894 l 646 894 l 794 0 l 721 0 l 676 261 l 257 261 l 104 0 l 21 0 l 549 894 m 672 324 l 588 833 l 288 324 l 672 324 z "},"Ạ":{"ha":926,"x_min":21,"x_max":794,"o":"m 549 894 l 646 894 l 794 0 l 721 0 l 676 261 l 257 261 l 104 0 l 21 0 l 549 894 m 672 324 l 588 833 l 288 324 l 672 324 m 339 -132 l 421 -132 l 404 -211 l 322 -211 l 339 -132 z "},"À":{"ha":926,"x_min":21,"x_max":794,"o":"m 514 1175 l 586 1175 l 632 956 l 569 956 l 514 1175 m 549 894 l 646 894 l 794 0 l 721 0 l 676 261 l 257 261 l 104 0 l 21 0 l 549 894 m 672 324 l 588 833 l 288 324 l 672 324 z "},"Ả":{"ha":926,"x_min":21,"x_max":811,"o":"m 600 1065 q 685 1077 656 1068 q 728 1102 715 1086 q 747 1147 742 1118 q 750 1167 750 1161 q 649 1221 750 1221 q 599 1216 626 1221 q 551 1204 571 1211 l 563 1257 q 616 1269 583 1264 q 674 1274 649 1274 q 776 1250 742 1274 q 811 1181 811 1226 q 808 1151 811 1161 q 762 1065 796 1094 q 657 1028 728 1035 l 642 956 l 576 956 l 600 1065 m 549 894 l 646 894 l 794 0 l 721 0 l 676 261 l 257 261 l 104 0 l 21 0 l 549 894 m 672 324 l 588 833 l 288 324 l 672 324 z "},"Ā":{"ha":926,"x_min":21,"x_max":822,"o":"m 439 1051 l 822 1051 l 810 993 l 426 993 l 439 1051 m 549 894 l 646 894 l 794 0 l 721 0 l 676 261 l 257 261 l 104 0 l 21 0 l 549 894 m 672 324 l 588 833 l 288 324 l 672 324 z "},"Ą":{"ha":926,"x_min":21,"x_max":794,"o":"m 689 -306 q 612 -285 640 -306 q 583 -219 583 -264 q 624 -99 583 -160 q 721 0 665 -39 l 676 261 l 257 261 l 104 0 l 21 0 l 549 894 l 646 894 l 794 0 q 701 -83 736 -37 q 654 -178 665 -129 q 651 -203 651 -187 q 666 -238 651 -228 q 713 -249 681 -249 q 785 -233 754 -249 l 772 -290 q 689 -306 740 -306 m 672 324 l 588 833 l 288 324 l 672 324 z "},"Å":{"ha":926,"x_min":21,"x_max":794,"o":"m 526 857 q 483 897 499 871 q 468 954 468 922 q 471 986 468 975 q 531 1088 483 1047 q 643 1128 578 1128 q 727 1097 696 1128 q 758 1018 758 1067 q 756 986 758 997 q 719 909 746 943 q 651 858 692 875 l 794 0 l 721 0 l 676 261 l 257 261 l 104 0 l 21 0 l 526 857 m 593 896 q 674 930 640 896 q 707 1011 707 964 q 688 1060 707 1042 q 632 1078 669 1078 q 552 1044 586 1078 q 518 963 518 1010 q 537 914 518 932 q 593 896 556 896 m 672 324 l 588 833 l 288 324 l 672 324 z "},"Ǻ":{"ha":926,"x_min":21,"x_max":819,"o":"m 747 1381 l 819 1381 l 672 1182 l 611 1182 l 747 1381 m 533 869 q 489 908 504 882 q 474 967 474 933 q 498 1053 474 1013 q 563 1117 522 1093 q 649 1140 603 1140 q 733 1110 701 1140 q 764 1031 764 1079 q 732 934 764 978 q 650 869 700 890 l 794 0 l 717 0 l 672 261 l 253 261 l 100 0 l 21 0 l 533 869 m 600 908 q 679 941 646 908 q 713 1021 713 974 q 692 1071 713 1051 q 638 1090 671 1090 q 558 1058 592 1090 q 524 979 524 1025 q 544 928 524 947 q 600 908 565 908 m 668 324 l 583 833 l 283 324 l 668 324 z "},"Ã":{"ha":926,"x_min":21,"x_max":836,"o":"m 715 986 q 669 993 692 986 q 619 1014 647 1000 q 577 1031 594 1025 q 542 1038 560 1038 q 422 989 471 1038 l 436 1054 q 488 1083 456 1072 q 553 1094 521 1094 q 597 1088 578 1094 q 644 1068 617 1082 q 687 1049 669 1056 q 725 1043 704 1043 q 836 1092 792 1043 l 822 1026 q 777 997 806 1007 q 715 986 749 986 m 549 894 l 646 894 l 794 0 l 721 0 l 676 261 l 257 261 l 104 0 l 21 0 l 549 894 m 672 324 l 588 833 l 288 324 l 672 324 z "},"Æ":{"ha":1156,"x_min":21,"x_max":1213,"o":"m 549 894 l 1213 894 l 1200 831 l 767 831 l 692 478 l 1076 478 l 1063 415 l 678 415 l 603 61 l 1036 61 l 1024 0 l 514 0 l 569 263 l 257 263 l 101 0 l 21 0 l 549 894 m 582 324 l 690 831 l 593 831 l 293 324 l 582 324 z "},"Ǽ":{"ha":1156,"x_min":21,"x_max":1213,"o":"m 894 1175 l 967 1175 l 817 956 l 754 956 l 894 1175 m 549 894 l 1213 894 l 1200 831 l 767 831 l 692 478 l 1076 478 l 1063 415 l 678 415 l 603 61 l 1036 61 l 1024 0 l 514 0 l 569 263 l 257 263 l 101 0 l 21 0 l 549 894 m 582 324 l 690 831 l 593 831 l 293 324 l 582 324 z "},"B":{"ha":860,"x_min":49,"x_max":839,"o":"m 238 894 l 631 894 q 787 851 735 894 q 839 726 839 808 q 832 661 839 700 q 774 536 815 588 q 672 460 732 485 q 788 317 788 433 q 781 253 788 282 q 676 61 753 122 q 468 0 599 0 l 49 0 l 238 894 m 553 492 q 758 657 722 492 q 767 726 767 694 q 730 807 767 781 q 601 833 693 833 l 301 833 l 229 492 l 553 492 m 474 60 q 629 105 574 60 q 707 256 685 150 q 714 313 714 290 q 672 402 714 372 q 532 432 629 432 l 217 432 l 138 60 l 474 60 z "},"C":{"ha":818,"x_min":94,"x_max":869,"o":"m 428 -14 q 177 65 260 -14 q 94 286 94 144 q 110 422 94 346 q 282 781 160 654 q 624 908 404 908 q 869 868 764 908 l 856 800 q 615 842 753 842 q 329 734 431 842 q 185 422 228 626 q 168 289 168 350 q 235 112 168 172 q 451 51 303 51 q 582 61 515 51 q 704 89 649 71 l 690 21 q 428 -14 571 -14 z "},"Ć":{"ha":818,"x_min":94,"x_max":869,"o":"m 724 1175 l 796 1175 l 646 956 l 583 956 l 724 1175 m 428 -14 q 177 65 260 -14 q 94 286 94 144 q 110 422 94 346 q 282 781 160 654 q 624 908 404 908 q 869 868 764 908 l 856 800 q 615 842 753 842 q 329 734 431 842 q 185 422 228 626 q 168 289 168 350 q 235 112 168 172 q 451 51 303 51 q 582 61 515 51 q 704 89 649 71 l 690 21 q 428 -14 571 -14 z "},"Č":{"ha":818,"x_min":94,"x_max":869,"o":"m 507 1142 l 572 1142 l 651 999 l 792 1142 l 864 1142 l 678 954 l 611 954 l 507 1142 m 428 -14 q 177 65 260 -14 q 94 286 94 144 q 110 422 94 346 q 282 781 160 654 q 624 908 404 908 q 869 868 764 908 l 856 800 q 615 842 753 842 q 329 734 431 842 q 185 422 228 626 q 168 289 168 350 q 235 112 168 172 q 451 51 303 51 q 582 61 515 51 q 704 89 649 71 l 690 21 q 428 -14 571 -14 z "},"Ç":{"ha":818,"x_min":94,"x_max":869,"o":"m 615 842 q 329 734 431 842 q 185 422 228 626 q 168 289 168 350 q 235 112 168 172 q 451 51 303 51 q 582 61 515 51 q 704 89 649 71 l 690 21 q 446 -14 576 -12 l 415 -71 q 549 -162 549 -71 q 546 -193 549 -182 q 324 -333 515 -333 q 276 -330 303 -333 q 235 -322 250 -326 l 246 -271 q 331 -282 283 -282 q 440 -262 403 -282 q 486 -193 476 -242 q 489 -172 489 -179 q 462 -129 489 -142 q 376 -117 435 -117 l 331 -117 l 386 -12 q 167 75 239 -3 q 94 286 94 153 q 110 422 94 346 q 282 781 160 654 q 624 908 404 908 q 869 868 764 908 l 856 800 q 615 842 753 842 z "},"Ĉ":{"ha":818,"x_min":94,"x_max":869,"o":"m 618 1142 l 685 1142 l 790 954 l 724 954 l 644 1097 l 504 954 l 433 954 l 618 1142 m 428 -14 q 177 65 260 -14 q 94 286 94 144 q 110 422 94 346 q 282 781 160 654 q 624 908 404 908 q 869 868 764 908 l 856 800 q 615 842 753 842 q 329 734 431 842 q 185 422 228 626 q 168 289 168 350 q 235 112 168 172 q 451 51 303 51 q 582 61 515 51 q 704 89 649 71 l 690 21 q 428 -14 571 -14 z "},"Ċ":{"ha":818,"x_min":94,"x_max":869,"o":"m 617 1069 l 696 1069 l 679 992 l 600 992 l 617 1069 m 428 -14 q 177 65 260 -14 q 94 286 94 144 q 110 422 94 346 q 282 781 160 654 q 624 908 404 908 q 869 868 764 908 l 856 800 q 615 842 753 842 q 329 734 431 842 q 185 422 228 626 q 168 289 168 350 q 235 112 168 172 q 451 51 303 51 q 582 61 515 51 q 704 89 649 71 l 690 21 q 428 -14 571 -14 z "},"D":{"ha":878,"x_min":49,"x_max":863,"o":"m 238 894 l 571 894 q 792 831 721 894 q 863 631 863 768 q 839 440 863 551 q 753 187 804 282 q 613 46 701 92 q 385 0 525 0 l 49 0 l 238 894 m 381 61 q 561 92 490 61 q 681 206 632 124 q 763 440 731 289 q 789 638 789 565 q 732 789 789 746 q 544 832 675 832 l 301 832 l 138 61 l 381 61 z "},"Ð":{"ha":935,"x_min":79,"x_max":919,"o":"m 192 408 l 79 408 l 93 471 l 204 471 l 294 894 l 628 894 q 849 831 778 894 q 919 631 919 768 q 896 440 919 551 q 810 187 861 282 q 670 46 758 92 q 442 0 582 0 l 106 0 l 192 408 m 438 61 q 618 92 547 61 q 738 206 689 124 q 819 440 788 289 q 846 638 846 565 q 789 789 846 746 q 601 832 732 832 l 358 832 l 281 471 l 546 471 l 532 408 l 268 408 l 194 61 l 438 61 z "},"Ď":{"ha":878,"x_min":49,"x_max":863,"o":"m 436 1172 l 501 1172 l 581 1029 l 721 1172 l 793 1172 l 607 985 l 540 985 l 436 1172 m 238 894 l 571 894 q 792 831 721 894 q 863 631 863 768 q 839 440 863 551 q 753 187 804 282 q 613 46 701 92 q 385 0 525 0 l 49 0 l 238 894 m 381 61 q 561 92 490 61 q 681 206 632 124 q 763 440 731 289 q 789 638 789 565 q 732 789 789 746 q 544 832 675 832 l 301 832 l 138 61 l 381 61 z "},"Đ":{"ha":921,"x_min":65,"x_max":906,"o":"m 178 408 l 65 408 l 79 471 l 190 471 l 281 894 l 614 894 q 835 831 764 894 q 906 631 906 768 q 882 440 906 551 q 796 187 847 282 q 656 46 744 92 q 428 0 568 0 l 92 0 l 178 408 m 424 61 q 604 92 533 61 q 724 206 675 124 q 806 440 774 289 q 832 638 832 565 q 775 789 832 746 q 588 832 718 832 l 344 832 l 267 471 l 532 471 l 518 408 l 254 408 l 181 61 l 424 61 z "},"Ḍ":{"ha":878,"x_min":49,"x_max":863,"o":"m 238 894 l 571 894 q 792 831 721 894 q 863 631 863 768 q 839 440 863 551 q 753 187 804 282 q 613 46 701 92 q 385 0 525 0 l 49 0 l 238 894 m 381 61 q 561 92 490 61 q 681 206 632 124 q 763 440 731 289 q 789 638 789 565 q 732 789 789 746 q 544 832 675 832 l 301 832 l 138 61 l 381 61 m 328 -132 l 410 -132 l 393 -211 l 311 -211 l 328 -132 z "},"Ḏ":{"ha":878,"x_min":49,"x_max":863,"o":"m 238 894 l 571 894 q 792 831 721 894 q 863 631 863 768 q 839 440 863 551 q 753 187 804 282 q 613 46 701 92 q 385 0 525 0 l 49 0 l 238 894 m 381 61 q 561 92 490 61 q 681 206 632 124 q 763 440 731 289 q 789 638 789 565 q 732 789 789 746 q 544 832 675 832 l 301 832 l 138 61 l 381 61 m 128 -112 l 511 -112 l 499 -171 l 115 -171 l 128 -112 z "},"E":{"ha":751,"x_min":49,"x_max":822,"o":"m 238 894 l 822 894 l 810 832 l 301 832 l 226 478 l 686 478 l 672 417 l 213 417 l 138 61 l 646 61 l 633 0 l 49 0 l 238 894 z "},"É":{"ha":751,"x_min":49,"x_max":822,"o":"m 644 1175 l 717 1175 l 567 956 l 504 956 l 644 1175 m 238 894 l 822 894 l 810 832 l 301 832 l 226 478 l 686 478 l 672 417 l 213 417 l 138 61 l 646 61 l 633 0 l 49 0 l 238 894 z "},"Ĕ":{"ha":751,"x_min":49,"x_max":822,"o":"m 550 954 q 458 985 490 954 q 425 1069 425 1017 q 429 1108 425 1088 l 485 1108 q 481 1075 481 1090 q 558 1008 481 1008 q 635 1035 603 1008 q 678 1108 668 1061 l 739 1108 q 674 997 724 1039 q 550 954 624 954 m 238 894 l 822 894 l 810 832 l 301 832 l 226 478 l 686 478 l 672 417 l 213 417 l 138 61 l 646 61 l 633 0 l 49 0 l 238 894 z "},"Ě":{"ha":751,"x_min":49,"x_max":822,"o":"m 414 1142 l 479 1142 l 558 999 l 699 1142 l 771 1142 l 585 954 l 518 954 l 414 1142 m 238 894 l 822 894 l 810 832 l 301 832 l 226 478 l 686 478 l 672 417 l 213 417 l 138 61 l 646 61 l 633 0 l 49 0 l 238 894 z "},"Ê":{"ha":751,"x_min":49,"x_max":822,"o":"m 538 1142 l 604 1142 l 710 954 l 643 954 l 564 1097 l 424 954 l 353 954 l 538 1142 m 238 894 l 822 894 l 810 832 l 301 832 l 226 478 l 686 478 l 672 417 l 213 417 l 138 61 l 646 61 l 633 0 l 49 0 l 238 894 z "},"Ế":{"ha":751,"x_min":49,"x_max":842,"o":"m 778 1264 l 842 1264 l 717 1101 l 660 1101 l 778 1264 m 532 1107 l 599 1107 l 710 954 l 646 954 l 563 1072 l 429 954 l 357 954 l 532 1107 m 238 894 l 822 894 l 810 832 l 301 832 l 226 478 l 686 478 l 672 417 l 213 417 l 138 61 l 646 61 l 633 0 l 49 0 l 238 894 z "},"Ệ":{"ha":751,"x_min":49,"x_max":822,"o":"m 532 1142 l 599 1142 l 704 954 l 638 954 l 558 1097 l 418 954 l 347 954 l 532 1142 m 238 894 l 822 894 l 810 832 l 301 832 l 226 478 l 686 478 l 672 417 l 213 417 l 138 61 l 646 61 l 633 0 l 49 0 l 238 894 m 256 -132 l 338 -132 l 321 -211 l 239 -211 l 256 -132 z "},"Ề":{"ha":751,"x_min":49,"x_max":822,"o":"m 376 1264 l 442 1264 l 489 1101 l 433 1101 l 376 1264 m 554 1107 l 621 1107 l 732 954 l 668 954 l 585 1072 l 451 954 l 379 954 l 554 1107 m 238 894 l 822 894 l 810 832 l 301 832 l 226 478 l 686 478 l 672 417 l 213 417 l 138 61 l 646 61 l 633 0 l 49 0 l 238 894 z "},"Ể":{"ha":751,"x_min":49,"x_max":882,"o":"m 692 1154 q 787 1173 761 1158 q 819 1218 813 1188 q 821 1233 821 1224 q 758 1275 821 1275 q 674 1257 717 1275 l 683 1304 q 778 1321 729 1321 q 855 1301 828 1321 q 882 1244 882 1281 q 879 1221 882 1238 q 838 1152 869 1176 q 749 1122 807 1128 l 738 1072 l 675 1072 l 692 1154 m 542 1107 l 608 1107 l 719 954 l 656 954 l 572 1072 l 440 954 l 367 954 l 542 1107 m 238 894 l 822 894 l 810 832 l 301 832 l 226 478 l 686 478 l 672 417 l 213 417 l 138 61 l 646 61 l 633 0 l 49 0 l 238 894 z "},"Ễ":{"ha":751,"x_min":49,"x_max":822,"o":"m 669 1118 q 582 1143 632 1118 q 511 1164 538 1164 q 451 1154 479 1164 q 397 1119 424 1144 l 411 1181 q 460 1207 431 1197 q 519 1217 490 1217 q 561 1211 543 1217 q 604 1193 579 1206 q 644 1176 629 1182 q 679 1171 660 1171 q 737 1181 711 1171 q 788 1215 763 1192 l 774 1154 q 728 1128 756 1138 q 669 1118 700 1118 m 543 1107 l 610 1107 l 721 954 l 657 954 l 574 1072 l 442 954 l 368 954 l 543 1107 m 238 894 l 822 894 l 810 832 l 301 832 l 226 478 l 686 478 l 672 417 l 213 417 l 138 61 l 646 61 l 633 0 l 49 0 l 238 894 z "},"Ë":{"ha":751,"x_min":49,"x_max":822,"o":"m 410 1068 l 489 1068 l 472 992 l 394 992 l 410 1068 m 642 1068 l 719 1068 l 703 992 l 625 992 l 642 1068 m 238 894 l 822 894 l 810 832 l 301 832 l 226 478 l 686 478 l 672 417 l 213 417 l 138 61 l 646 61 l 633 0 l 49 0 l 238 894 z "},"Ė":{"ha":751,"x_min":49,"x_max":822,"o":"m 526 1069 l 606 1069 l 589 992 l 510 992 l 526 1069 m 238 894 l 822 894 l 810 832 l 301 832 l 226 478 l 686 478 l 672 417 l 213 417 l 138 61 l 646 61 l 633 0 l 49 0 l 238 894 z "},"Ẹ":{"ha":751,"x_min":49,"x_max":822,"o":"m 238 894 l 822 894 l 810 832 l 301 832 l 226 478 l 686 478 l 672 417 l 213 417 l 138 61 l 646 61 l 633 0 l 49 0 l 238 894 m 267 -132 l 349 -132 l 332 -211 l 250 -211 l 267 -132 z "},"È":{"ha":751,"x_min":49,"x_max":822,"o":"m 468 1175 l 540 1175 l 586 956 l 524 956 l 468 1175 m 238 894 l 822 894 l 810 832 l 301 832 l 226 478 l 686 478 l 672 417 l 213 417 l 138 61 l 646 61 l 633 0 l 49 0 l 238 894 z "},"Ẻ":{"ha":751,"x_min":49,"x_max":822,"o":"m 522 1065 q 608 1077 578 1068 q 651 1102 638 1086 q 669 1147 664 1118 q 672 1167 672 1161 q 571 1221 672 1221 q 521 1216 549 1221 q 474 1204 493 1211 l 485 1257 q 538 1269 506 1264 q 596 1274 571 1274 q 699 1250 664 1274 q 733 1181 733 1226 q 731 1151 733 1161 q 684 1065 718 1094 q 579 1028 650 1035 l 564 956 l 499 956 l 522 1065 m 238 894 l 822 894 l 810 832 l 301 832 l 226 478 l 686 478 l 672 417 l 213 417 l 138 61 l 646 61 l 633 0 l 49 0 l 238 894 z "},"Ē":{"ha":751,"x_min":49,"x_max":822,"o":"m 367 1057 l 750 1057 l 738 999 l 354 999 l 367 1057 m 238 894 l 822 894 l 810 832 l 301 832 l 226 478 l 686 478 l 672 417 l 213 417 l 138 61 l 646 61 l 633 0 l 49 0 l 238 894 z "},"Ę":{"ha":751,"x_min":49,"x_max":822,"o":"m 496 -306 q 419 -285 447 -306 q 390 -219 390 -264 q 433 -97 390 -158 q 538 0 476 -36 l 49 0 l 238 894 l 822 894 l 810 832 l 301 832 l 226 478 l 686 478 l 672 417 l 213 417 l 138 61 l 646 61 l 633 0 l 601 0 q 508 -83 543 -37 q 461 -178 472 -129 q 458 -203 458 -187 q 473 -238 458 -228 q 519 -249 488 -249 q 592 -233 561 -249 l 579 -290 q 496 -306 547 -306 z "},"Ẽ":{"ha":751,"x_min":49,"x_max":822,"o":"m 643 990 q 597 997 619 990 q 547 1018 575 1004 q 505 1035 522 1029 q 469 1042 488 1042 q 350 993 399 1042 l 364 1058 q 416 1088 383 1076 q 481 1099 449 1099 q 525 1092 506 1099 q 572 1072 544 1086 q 615 1053 597 1060 q 653 1047 632 1047 q 764 1096 719 1047 l 750 1031 q 705 1001 733 1011 q 643 990 676 990 m 238 894 l 822 894 l 810 832 l 301 832 l 226 478 l 686 478 l 672 417 l 213 417 l 138 61 l 646 61 l 633 0 l 49 0 l 238 894 z "},"F":{"ha":717,"x_min":49,"x_max":801,"o":"m 238 894 l 801 894 l 789 832 l 301 832 l 226 478 l 663 478 l 649 417 l 213 417 l 125 0 l 49 0 l 238 894 z "},"G":{"ha":879,"x_min":94,"x_max":871,"o":"m 428 -14 q 178 67 263 -14 q 94 292 94 147 q 110 422 94 350 q 285 781 160 653 q 624 908 410 908 q 871 871 765 908 l 856 803 q 617 842 749 842 q 331 733 433 842 q 185 422 228 625 q 168 283 168 346 q 234 110 168 168 q 450 51 300 51 q 581 63 514 51 q 697 93 647 74 l 764 411 l 510 411 l 524 472 l 847 472 l 758 54 q 626 6 708 25 q 428 -14 543 -14 z "},"Ğ":{"ha":879,"x_min":94,"x_max":871,"o":"m 632 954 q 540 985 572 954 q 507 1069 507 1017 q 511 1108 507 1088 l 567 1108 q 563 1075 563 1090 q 640 1008 563 1008 q 717 1035 685 1008 q 760 1108 750 1061 l 821 1108 q 756 997 806 1039 q 632 954 706 954 m 428 -14 q 178 67 263 -14 q 94 292 94 147 q 110 422 94 350 q 285 781 160 653 q 624 908 410 908 q 871 871 765 908 l 856 803 q 617 842 749 842 q 331 733 433 842 q 185 422 228 625 q 168 283 168 346 q 234 110 168 168 q 450 51 300 51 q 581 63 514 51 q 697 93 647 74 l 764 411 l 510 411 l 524 472 l 847 472 l 758 54 q 626 6 708 25 q 428 -14 543 -14 z "},"Ǧ":{"ha":879,"x_min":94,"x_max":871,"o":"m 496 1142 l 561 1142 l 640 999 l 781 1142 l 853 1142 l 667 954 l 600 954 l 496 1142 m 428 -14 q 178 67 263 -14 q 94 292 94 147 q 110 422 94 350 q 285 781 160 653 q 624 908 410 908 q 871 871 765 908 l 856 803 q 617 842 749 842 q 331 733 433 842 q 185 422 228 625 q 168 283 168 346 q 234 110 168 168 q 450 51 300 51 q 581 63 514 51 q 697 93 647 74 l 764 411 l 510 411 l 524 472 l 847 472 l 758 54 q 626 6 708 25 q 428 -14 543 -14 z "},"Ĝ":{"ha":879,"x_min":94,"x_max":871,"o":"m 643 1142 l 710 1142 l 815 954 l 749 954 l 669 1097 l 529 954 l 458 954 l 643 1142 m 428 -14 q 178 67 263 -14 q 94 292 94 147 q 110 422 94 350 q 285 781 160 653 q 624 908 410 908 q 871 871 765 908 l 856 803 q 617 842 749 842 q 331 733 433 842 q 185 422 228 625 q 168 283 168 346 q 234 110 168 168 q 450 51 300 51 q 581 63 514 51 q 697 93 647 74 l 764 411 l 510 411 l 524 472 l 847 472 l 758 54 q 626 6 708 25 q 428 -14 543 -14 z "},"Ģ":{"ha":879,"x_min":94,"x_max":871,"o":"m 428 -14 q 178 67 263 -14 q 94 292 94 147 q 110 422 94 350 q 285 781 160 653 q 624 908 410 908 q 871 871 765 908 l 856 803 q 617 842 749 842 q 331 733 433 842 q 185 422 228 625 q 168 283 168 346 q 234 110 168 168 q 450 51 300 51 q 581 63 514 51 q 697 93 647 74 l 764 411 l 510 411 l 524 472 l 847 472 l 758 54 q 626 6 708 25 q 428 -14 543 -14 m 400 -58 l 474 -58 l 372 -287 l 315 -287 l 400 -58 z "},"Ġ":{"ha":879,"x_min":94,"x_max":871,"o":"m 618 1069 l 697 1069 l 681 992 l 601 992 l 618 1069 m 428 -14 q 178 67 263 -14 q 94 292 94 147 q 110 422 94 350 q 285 781 160 653 q 624 908 410 908 q 871 871 765 908 l 856 803 q 617 842 749 842 q 331 733 433 842 q 185 422 228 625 q 168 283 168 346 q 234 110 168 168 q 450 51 300 51 q 581 63 514 51 q 697 93 647 74 l 764 411 l 510 411 l 524 472 l 847 472 l 758 54 q 626 6 708 25 q 428 -14 543 -14 z "},"Ḡ":{"ha":879,"x_min":94,"x_max":871,"o":"m 464 1054 l 847 1054 l 835 996 l 451 996 l 464 1054 m 428 -14 q 178 67 263 -14 q 94 292 94 147 q 110 422 94 350 q 285 781 160 653 q 624 908 410 908 q 871 871 765 908 l 856 803 q 617 842 749 842 q 331 733 433 842 q 185 422 228 625 q 168 283 168 346 q 234 110 168 168 q 450 51 300 51 q 581 63 514 51 q 697 93 647 74 l 764 411 l 510 411 l 524 472 l 847 472 l 758 54 q 626 6 708 25 q 428 -14 543 -14 z "},"H":{"ha":875,"x_min":49,"x_max":904,"o":"m 238 894 l 314 894 l 226 478 l 740 478 l 828 894 l 904 894 l 715 0 l 639 0 l 726 417 l 213 417 l 125 0 l 49 0 l 238 894 z "},"Ħ":{"ha":932,"x_min":68,"x_max":983,"o":"m 206 654 l 108 654 l 121 717 l 219 717 l 257 894 l 333 894 l 296 717 l 810 717 l 847 894 l 924 894 l 886 717 l 983 717 l 971 654 l 872 654 l 735 0 l 658 0 l 746 417 l 232 417 l 144 0 l 68 0 l 206 654 m 760 478 l 796 654 l 282 654 l 246 478 l 760 478 z "},"Ḫ":{"ha":875,"x_min":49,"x_max":904,"o":"m 238 894 l 314 894 l 226 478 l 740 478 l 828 894 l 904 894 l 715 0 l 639 0 l 726 417 l 213 417 l 125 0 l 49 0 l 238 894 m 328 -257 q 214 -224 256 -257 q 172 -125 172 -190 q 178 -76 172 -100 l 233 -76 q 228 -119 228 -107 q 255 -184 228 -164 q 336 -204 282 -204 q 438 -173 396 -204 q 494 -76 481 -142 l 554 -76 q 475 -212 535 -167 q 328 -257 415 -257 z "},"Ĥ":{"ha":875,"x_min":49,"x_max":904,"o":"m 590 1142 l 657 1142 l 763 954 l 696 954 l 617 1097 l 476 954 l 406 954 l 590 1142 m 238 894 l 314 894 l 226 478 l 740 478 l 828 894 l 904 894 l 715 0 l 639 0 l 726 417 l 213 417 l 125 0 l 49 0 l 238 894 z "},"Ḥ":{"ha":875,"x_min":49,"x_max":904,"o":"m 238 894 l 314 894 l 226 478 l 740 478 l 828 894 l 904 894 l 715 0 l 639 0 l 726 417 l 213 417 l 125 0 l 49 0 l 238 894 m 314 -132 l 396 -132 l 379 -211 l 297 -211 l 314 -132 z "},"I":{"ha":285,"x_min":49,"x_max":314,"o":"m 238 894 l 314 894 l 125 0 l 49 0 l 238 894 z "},"Ĳ":{"ha":836,"x_min":49,"x_max":872,"o":"m 238 894 l 314 894 l 125 0 l 49 0 l 238 894 m 424 -14 q 250 18 324 -14 l 264 85 q 338 60 294 69 q 428 51 382 51 q 581 95 525 51 q 656 233 636 139 l 796 894 l 872 894 l 732 229 q 633 47 707 108 q 424 -14 558 -14 z "},"Í":{"ha":285,"x_min":49,"x_max":468,"o":"m 396 1175 l 468 1175 l 318 956 l 256 956 l 396 1175 m 238 894 l 314 894 l 125 0 l 49 0 l 238 894 z "},"Ĭ":{"ha":285,"x_min":49,"x_max":478,"o":"m 289 960 q 197 991 229 960 q 164 1075 164 1022 q 168 1114 164 1093 l 224 1114 q 219 1081 219 1096 q 297 1014 219 1014 q 374 1040 342 1014 q 417 1114 407 1067 l 478 1114 q 413 1002 463 1044 q 289 960 363 960 m 238 894 l 314 894 l 125 0 l 49 0 l 238 894 z "},"Ǐ":{"ha":285,"x_min":49,"x_max":507,"o":"m 150 1142 l 215 1142 l 294 999 l 435 1142 l 507 1142 l 321 954 l 254 954 l 150 1142 m 238 894 l 314 894 l 125 0 l 49 0 l 238 894 z "},"Î":{"ha":285,"x_min":49,"x_max":467,"o":"m 294 1142 l 361 1142 l 467 954 l 400 954 l 321 1097 l 181 954 l 110 954 l 294 1142 m 238 894 l 314 894 l 125 0 l 49 0 l 238 894 z "},"Ï":{"ha":285,"x_min":49,"x_max":467,"o":"m 157 1069 l 236 1069 l 219 993 l 142 993 l 157 1069 m 389 1069 l 467 1069 l 450 993 l 372 993 l 389 1069 m 238 894 l 314 894 l 125 0 l 49 0 l 238 894 z "},"İ":{"ha":285,"x_min":49,"x_max":353,"o":"m 274 1071 l 353 1071 l 336 993 l 257 993 l 274 1071 m 238 894 l 314 894 l 125 0 l 49 0 l 238 894 z "},"Ị":{"ha":285,"x_min":1,"x_max":314,"o":"m 238 894 l 314 894 l 125 0 l 49 0 l 238 894 m 18 -132 l 100 -132 l 83 -211 l 1 -211 l 18 -132 z "},"Ì":{"ha":285,"x_min":49,"x_max":321,"o":"m 203 1175 l 275 1175 l 321 956 l 258 956 l 203 1175 m 238 894 l 314 894 l 125 0 l 49 0 l 238 894 z "},"Ỉ":{"ha":285,"x_min":49,"x_max":490,"o":"m 279 1065 q 365 1077 335 1068 q 408 1102 394 1086 q 426 1147 421 1118 q 429 1167 429 1161 q 328 1221 429 1221 q 278 1216 306 1221 q 231 1204 250 1211 l 242 1257 q 295 1269 263 1264 q 353 1274 328 1274 q 456 1250 421 1274 q 490 1181 490 1226 q 488 1151 490 1161 q 441 1065 475 1094 q 336 1028 407 1035 l 321 956 l 256 956 l 279 1065 m 238 894 l 314 894 l 125 0 l 49 0 l 238 894 z "},"Ī":{"ha":285,"x_min":49,"x_max":504,"o":"m 119 1057 l 504 1057 l 492 999 l 107 999 l 119 1057 m 238 894 l 314 894 l 125 0 l 49 0 l 238 894 z "},"Į":{"ha":285,"x_min":-86,"x_max":314,"o":"m 19 -306 q -58 -285 -29 -306 q -86 -219 -86 -264 q -45 -99 -86 -160 q 49 0 -4 -39 l 238 894 l 314 894 l 125 0 q 31 -83 67 -37 q -15 -178 -4 -129 q -18 -203 -18 -187 q -3 -238 -18 -228 q 43 -249 11 -249 q 115 -233 85 -249 l 103 -290 q 19 -306 71 -306 z "},"Ĩ":{"ha":285,"x_min":49,"x_max":508,"o":"m 388 958 q 342 965 364 958 q 292 986 319 972 q 249 1003 267 997 q 214 1010 232 1010 q 94 961 143 1010 l 108 1026 q 160 1056 128 1044 q 225 1067 193 1067 q 269 1060 250 1067 q 317 1040 289 1054 q 359 1022 342 1028 q 397 1015 376 1015 q 508 1064 464 1015 l 494 999 q 449 969 478 979 q 388 958 421 958 m 238 894 l 314 894 l 125 0 l 49 0 l 238 894 z "},"J":{"ha":582,"x_min":-4,"x_max":618,"o":"m 169 -14 q -4 18 69 -14 l 10 85 q 84 60 40 69 q 174 51 128 51 q 326 95 271 51 q 401 233 382 139 l 542 894 l 618 894 l 478 229 q 378 47 453 108 q 169 -14 304 -14 z "},"Ĵ":{"ha":582,"x_min":-4,"x_max":768,"o":"m 596 1142 l 663 1142 l 768 954 l 701 954 l 622 1097 l 482 954 l 411 954 l 596 1142 m 169 -14 q -4 18 69 -14 l 10 85 q 84 60 40 69 q 174 51 128 51 q 326 95 271 51 q 401 233 382 139 l 542 894 l 618 894 l 478 229 q 378 47 453 108 q 169 -14 304 -14 z "},"K":{"ha":813,"x_min":49,"x_max":861,"o":"m 238 894 l 314 894 l 214 419 l 768 894 l 861 894 l 446 539 l 681 0 l 597 0 l 388 489 l 193 321 l 125 0 l 49 0 l 238 894 z "},"Ķ":{"ha":813,"x_min":49,"x_max":861,"o":"m 238 894 l 314 894 l 214 419 l 768 894 l 861 894 l 446 539 l 681 0 l 597 0 l 388 489 l 193 321 l 125 0 l 49 0 l 238 894 m 304 -51 l 378 -51 l 276 -281 l 219 -281 l 304 -51 z "},"L":{"ha":724,"x_min":49,"x_max":632,"o":"m 238 894 l 314 894 l 138 61 l 632 61 l 619 0 l 49 0 l 238 894 z "},"Ĺ":{"ha":724,"x_min":49,"x_max":632,"o":"m 394 1175 l 467 1175 l 317 956 l 254 956 l 394 1175 m 238 894 l 314 894 l 138 61 l 632 61 l 619 0 l 49 0 l 238 894 z "},"Ľ":{"ha":724,"x_min":49,"x_max":675,"o":"m 601 1021 l 675 1021 l 574 792 l 517 792 l 601 1021 m 238 894 l 314 894 l 138 61 l 632 61 l 619 0 l 49 0 l 238 894 z "},"Ļ":{"ha":724,"x_min":49,"x_max":632,"o":"m 238 894 l 314 894 l 138 61 l 632 61 l 619 0 l 49 0 l 238 894 m 282 -51 l 356 -51 l 254 -281 l 197 -281 l 282 -51 z "},"Ŀ":{"ha":724,"x_min":49,"x_max":632,"o":"m 238 894 l 314 894 l 138 61 l 632 61 l 619 0 l 49 0 l 238 894 m 447 438 l 529 438 l 513 358 l 431 358 l 447 438 z "},"Ḷ":{"ha":724,"x_min":49,"x_max":632,"o":"m 238 894 l 314 894 l 138 61 l 632 61 l 619 0 l 49 0 l 238 894 m 250 -132 l 332 -132 l 315 -211 l 233 -211 l 250 -132 z "},"Ḹ":{"ha":743,"x_min":68,"x_max":651,"o":"m 168 1054 l 551 1054 l 539 996 l 156 996 l 168 1054 m 257 894 l 333 894 l 157 61 l 651 61 l 639 0 l 68 0 l 257 894 m 278 -132 l 360 -132 l 343 -211 l 261 -211 l 278 -132 z "},"Ḻ":{"ha":724,"x_min":49,"x_max":632,"o":"m 238 894 l 314 894 l 138 61 l 632 61 l 619 0 l 49 0 l 238 894 m 108 -104 l 492 -104 l 479 -162 l 96 -162 l 108 -104 z "},"Ł":{"ha":757,"x_min":17,"x_max":665,"o":"m 165 406 l 17 346 l 32 413 l 179 472 l 269 894 l 346 894 l 263 506 l 496 599 l 482 532 l 249 439 l 169 61 l 665 61 l 653 0 l 81 0 l 165 406 z "},"M":{"ha":1033,"x_min":49,"x_max":1063,"o":"m 238 894 l 322 894 l 506 232 l 969 894 l 1063 894 l 874 0 l 799 0 l 964 783 l 524 156 l 464 156 l 289 783 l 124 0 l 49 0 l 238 894 z "},"Ṃ":{"ha":1033,"x_min":49,"x_max":1063,"o":"m 238 894 l 322 894 l 506 232 l 969 894 l 1063 894 l 874 0 l 799 0 l 964 783 l 524 156 l 464 156 l 289 783 l 124 0 l 49 0 l 238 894 m 393 -132 l 475 -132 l 458 -211 l 376 -211 l 393 -132 z "},"N":{"ha":911,"x_min":49,"x_max":940,"o":"m 238 894 l 310 894 l 699 114 l 864 894 l 940 894 l 751 0 l 678 0 l 290 779 l 125 0 l 49 0 l 238 894 z "},"Ń":{"ha":911,"x_min":49,"x_max":940,"o":"m 717 1175 l 789 1175 l 639 956 l 576 956 l 717 1175 m 238 894 l 310 894 l 699 114 l 864 894 l 940 894 l 751 0 l 678 0 l 290 779 l 125 0 l 49 0 l 238 894 z "},"Ň":{"ha":911,"x_min":49,"x_max":940,"o":"m 492 1142 l 557 1142 l 636 999 l 776 1142 l 849 1142 l 663 954 l 596 954 l 492 1142 m 238 894 l 310 894 l 699 114 l 864 894 l 940 894 l 751 0 l 678 0 l 290 779 l 125 0 l 49 0 l 238 894 z "},"Ņ":{"ha":911,"x_min":49,"x_max":940,"o":"m 238 894 l 310 894 l 699 114 l 864 894 l 940 894 l 751 0 l 678 0 l 290 779 l 125 0 l 49 0 l 238 894 m 358 -51 l 432 -51 l 331 -281 l 274 -281 l 358 -51 z "},"Ṅ":{"ha":911,"x_min":49,"x_max":940,"o":"m 608 1069 l 688 1069 l 671 992 l 592 992 l 608 1069 m 238 894 l 310 894 l 699 114 l 864 894 l 940 894 l 751 0 l 678 0 l 290 779 l 125 0 l 49 0 l 238 894 z "},"Ṇ":{"ha":911,"x_min":49,"x_max":940,"o":"m 238 894 l 310 894 l 699 114 l 864 894 l 940 894 l 751 0 l 678 0 l 290 779 l 125 0 l 49 0 l 238 894 m 328 -132 l 410 -132 l 393 -211 l 311 -211 l 328 -132 z "},"Ŋ":{"ha":911,"x_min":49,"x_max":940,"o":"m 494 -325 q 386 -308 431 -325 l 400 -246 q 482 -260 442 -260 q 594 -231 557 -260 q 644 -137 632 -201 l 675 4 l 290 779 l 125 0 l 49 0 l 238 894 l 310 894 l 699 114 l 864 894 l 940 894 l 721 -142 q 642 -276 701 -228 q 494 -325 582 -325 z "},"Ṉ":{"ha":911,"x_min":49,"x_max":940,"o":"m 238 894 l 310 894 l 699 114 l 864 894 l 940 894 l 751 0 l 678 0 l 290 779 l 125 0 l 49 0 l 238 894 m 188 -103 l 571 -103 l 558 -161 l 175 -161 l 188 -103 z "},"Ñ":{"ha":911,"x_min":49,"x_max":940,"o":"m 708 990 q 663 997 685 990 q 613 1018 640 1004 q 570 1035 588 1029 q 535 1042 553 1042 q 415 993 464 1042 l 429 1058 q 481 1088 449 1076 q 546 1099 514 1099 q 590 1092 571 1099 q 638 1072 610 1086 q 680 1053 663 1060 q 718 1047 697 1047 q 829 1096 785 1047 l 815 1031 q 770 1001 799 1011 q 708 990 742 990 m 238 894 l 310 894 l 699 114 l 864 894 l 940 894 l 751 0 l 678 0 l 290 779 l 125 0 l 49 0 l 238 894 z "},"O":{"ha":956,"x_min":96,"x_max":938,"o":"m 418 -14 q 96 288 96 -14 q 114 443 96 361 q 285 796 165 683 q 615 908 406 908 q 858 837 778 908 q 938 617 938 765 q 917 443 938 542 q 748 100 868 214 q 418 -14 628 -14 m 432 51 q 697 147 597 51 q 840 443 797 242 q 863 619 863 542 q 800 790 863 739 q 600 842 738 842 q 408 803 488 842 q 274 676 328 764 q 189 443 219 589 q 169 283 169 349 q 232 107 169 163 q 432 51 294 51 z "},"Ó":{"ha":956,"x_min":96,"x_max":938,"o":"m 735 1175 l 807 1175 l 657 956 l 594 956 l 735 1175 m 418 -14 q 96 288 96 -14 q 114 443 96 361 q 285 796 165 683 q 615 908 406 908 q 858 837 778 908 q 938 617 938 765 q 917 443 938 542 q 748 100 868 214 q 418 -14 628 -14 m 432 51 q 697 147 597 51 q 840 443 797 242 q 863 619 863 542 q 800 790 863 739 q 600 842 738 842 q 408 803 488 842 q 274 676 328 764 q 189 443 219 589 q 169 283 169 349 q 232 107 169 163 q 432 51 294 51 z "},"Ŏ":{"ha":956,"x_min":96,"x_max":938,"o":"m 624 954 q 531 985 564 954 q 499 1069 499 1017 q 503 1108 499 1088 l 558 1108 q 554 1075 554 1090 q 632 1008 554 1008 q 709 1035 676 1008 q 751 1108 742 1061 l 813 1108 q 747 997 797 1039 q 624 954 697 954 m 418 -14 q 96 288 96 -14 q 114 443 96 361 q 285 796 165 683 q 615 908 406 908 q 858 837 778 908 q 938 617 938 765 q 917 443 938 542 q 748 100 868 214 q 418 -14 628 -14 m 432 51 q 697 147 597 51 q 840 443 797 242 q 863 619 863 542 q 800 790 863 739 q 600 842 738 842 q 408 803 488 842 q 274 676 328 764 q 189 443 219 589 q 169 283 169 349 q 232 107 169 163 q 432 51 294 51 z "},"Ǒ":{"ha":956,"x_min":96,"x_max":938,"o":"m 486 1142 l 551 1142 l 631 999 l 771 1142 l 843 1142 l 657 954 l 590 954 l 486 1142 m 418 -14 q 96 288 96 -14 q 114 443 96 361 q 285 796 165 683 q 615 908 406 908 q 858 837 778 908 q 938 617 938 765 q 917 443 938 542 q 748 100 868 214 q 418 -14 628 -14 m 432 51 q 697 147 597 51 q 840 443 797 242 q 863 619 863 542 q 800 790 863 739 q 600 842 738 842 q 408 803 488 842 q 274 676 328 764 q 189 443 219 589 q 169 283 169 349 q 232 107 169 163 q 432 51 294 51 z "},"Ô":{"ha":956,"x_min":96,"x_max":938,"o":"m 631 1142 l 697 1142 l 803 954 l 736 954 l 657 1097 l 517 954 l 446 954 l 631 1142 m 418 -14 q 96 288 96 -14 q 114 443 96 361 q 285 796 165 683 q 615 908 406 908 q 858 837 778 908 q 938 617 938 765 q 917 443 938 542 q 748 100 868 214 q 418 -14 628 -14 m 432 51 q 697 147 597 51 q 840 443 797 242 q 863 619 863 542 q 800 790 863 739 q 600 842 738 842 q 408 803 488 842 q 274 676 328 764 q 189 443 219 589 q 169 283 169 349 q 232 107 169 163 q 432 51 294 51 z "},"Ố":{"ha":956,"x_min":96,"x_max":940,"o":"m 876 1264 l 940 1264 l 815 1101 l 758 1101 l 876 1264 m 631 1107 l 697 1107 l 808 954 l 744 954 l 661 1072 l 528 954 l 456 954 l 631 1107 m 418 -14 q 96 288 96 -14 q 114 443 96 361 q 285 796 165 683 q 615 908 406 908 q 858 837 778 908 q 938 617 938 765 q 917 443 938 542 q 748 100 868 214 q 418 -14 628 -14 m 432 51 q 697 147 597 51 q 840 443 797 242 q 863 619 863 542 q 800 790 863 739 q 600 842 738 842 q 408 803 488 842 q 274 676 328 764 q 189 443 219 589 q 169 283 169 349 q 232 107 169 163 q 432 51 294 51 z "},"Ộ":{"ha":956,"x_min":96,"x_max":938,"o":"m 633 1156 l 700 1156 l 806 968 l 739 968 l 660 1111 l 519 968 l 449 968 l 633 1156 m 418 -14 q 96 288 96 -14 q 114 443 96 361 q 285 796 165 683 q 615 908 406 908 q 858 837 778 908 q 938 617 938 765 q 917 443 938 542 q 748 100 868 214 q 418 -14 628 -14 m 432 51 q 697 147 597 51 q 840 443 797 242 q 863 619 863 542 q 800 790 863 739 q 600 842 738 842 q 408 803 488 842 q 274 676 328 764 q 189 443 219 589 q 169 283 169 349 q 232 107 169 163 q 432 51 294 51 m 354 -132 l 436 -132 l 419 -211 l 338 -211 l 354 -132 z "},"Ồ":{"ha":956,"x_min":96,"x_max":938,"o":"m 439 1264 l 504 1264 l 551 1101 l 496 1101 l 439 1264 m 617 1107 l 683 1107 l 794 954 l 731 954 l 647 1072 l 514 954 l 442 954 l 617 1107 m 418 -14 q 96 288 96 -14 q 114 443 96 361 q 285 796 165 683 q 615 908 406 908 q 858 837 778 908 q 938 617 938 765 q 917 443 938 542 q 748 100 868 214 q 418 -14 628 -14 m 432 51 q 697 147 597 51 q 840 443 797 242 q 863 619 863 542 q 800 790 863 739 q 600 842 738 842 q 408 803 488 842 q 274 676 328 764 q 189 443 219 589 q 169 283 169 349 q 232 107 169 163 q 432 51 294 51 z "},"Ổ":{"ha":956,"x_min":96,"x_max":964,"o":"m 774 1154 q 869 1173 843 1158 q 901 1218 894 1188 q 903 1233 903 1224 q 840 1275 903 1275 q 756 1257 799 1275 l 765 1304 q 860 1321 811 1321 q 937 1301 910 1321 q 964 1244 964 1281 q 961 1221 964 1238 q 920 1152 951 1176 q 831 1122 889 1128 l 819 1072 l 757 1072 l 774 1154 m 624 1107 l 690 1107 l 801 954 l 738 954 l 654 1072 l 522 954 l 449 954 l 624 1107 m 418 -14 q 96 288 96 -14 q 114 443 96 361 q 285 796 165 683 q 615 908 406 908 q 858 837 778 908 q 938 617 938 765 q 917 443 938 542 q 748 100 868 214 q 418 -14 628 -14 m 432 51 q 697 147 597 51 q 840 443 797 242 q 863 619 863 542 q 800 790 863 739 q 600 842 738 842 q 408 803 488 842 q 274 676 328 764 q 189 443 219 589 q 169 283 169 349 q 232 107 169 163 q 432 51 294 51 z "},"Ỗ":{"ha":956,"x_min":96,"x_max":938,"o":"m 760 1178 q 672 1203 722 1178 q 633 1219 647 1214 q 601 1225 618 1225 q 542 1215 569 1225 q 488 1181 514 1206 l 500 1240 q 551 1268 521 1258 q 610 1278 581 1278 q 652 1272 633 1278 q 694 1253 671 1265 q 735 1236 719 1242 q 769 1231 750 1231 q 827 1241 801 1231 q 879 1276 853 1251 l 865 1215 q 819 1188 847 1197 q 760 1178 792 1178 m 626 956 q 511 988 556 956 q 467 1088 467 1019 q 472 1139 467 1113 l 522 1139 q 517 1094 517 1117 q 545 1027 517 1049 q 632 1006 574 1006 q 741 1039 696 1006 q 800 1139 786 1072 l 857 1139 q 773 1000 836 1044 q 626 956 710 956 m 418 -14 q 96 288 96 -14 q 114 443 96 361 q 285 796 165 683 q 615 908 406 908 q 858 837 778 908 q 938 617 938 765 q 917 443 938 542 q 748 100 868 214 q 418 -14 628 -14 m 432 51 q 697 147 597 51 q 840 443 797 242 q 863 619 863 542 q 800 790 863 739 q 600 842 738 842 q 408 803 488 842 q 274 676 328 764 q 189 443 219 589 q 169 283 169 349 q 232 107 169 163 q 432 51 294 51 z "},"Ö":{"ha":956,"x_min":96,"x_max":938,"o":"m 494 1068 l 574 1068 l 557 992 l 479 992 l 494 1068 m 726 1068 l 804 1068 l 788 992 l 710 992 l 726 1068 m 418 -14 q 96 288 96 -14 q 114 443 96 361 q 285 796 165 683 q 615 908 406 908 q 858 837 778 908 q 938 617 938 765 q 917 443 938 542 q 748 100 868 214 q 418 -14 628 -14 m 432 51 q 697 147 597 51 q 840 443 797 242 q 863 619 863 542 q 800 790 863 739 q 600 842 738 842 q 408 803 488 842 q 274 676 328 764 q 189 443 219 589 q 169 283 169 349 q 232 107 169 163 q 432 51 294 51 z "},"Ọ":{"ha":956,"x_min":96,"x_max":938,"o":"m 418 -14 q 96 288 96 -14 q 114 443 96 361 q 285 796 165 683 q 615 908 406 908 q 858 837 778 908 q 938 617 938 765 q 917 443 938 542 q 748 100 868 214 q 418 -14 628 -14 m 432 51 q 697 147 597 51 q 840 443 797 242 q 863 619 863 542 q 800 790 863 739 q 600 842 738 842 q 408 803 488 842 q 274 676 328 764 q 189 443 219 589 q 169 283 169 349 q 232 107 169 163 q 432 51 294 51 m 353 -132 l 435 -132 l 418 -211 l 336 -211 l 353 -132 z "},"Ò":{"ha":956,"x_min":96,"x_max":938,"o":"m 546 1175 l 618 1175 l 664 956 l 601 956 l 546 1175 m 418 -14 q 96 288 96 -14 q 114 443 96 361 q 285 796 165 683 q 615 908 406 908 q 858 837 778 908 q 938 617 938 765 q 917 443 938 542 q 748 100 868 214 q 418 -14 628 -14 m 432 51 q 697 147 597 51 q 840 443 797 242 q 863 619 863 542 q 800 790 863 739 q 600 842 738 842 q 408 803 488 842 q 274 676 328 764 q 189 443 219 589 q 169 283 169 349 q 232 107 169 163 q 432 51 294 51 z "},"Ỏ":{"ha":956,"x_min":96,"x_max":938,"o":"m 619 1065 q 705 1077 675 1068 q 748 1102 735 1086 q 767 1147 761 1118 q 769 1167 769 1161 q 668 1221 769 1221 q 618 1216 646 1221 q 571 1204 590 1211 l 582 1257 q 635 1269 603 1264 q 693 1274 668 1274 q 796 1250 761 1274 q 831 1181 831 1226 q 828 1151 831 1161 q 781 1065 815 1094 q 676 1028 747 1035 l 661 956 l 596 956 l 619 1065 m 418 -14 q 96 288 96 -14 q 114 443 96 361 q 285 796 165 683 q 615 908 406 908 q 858 837 778 908 q 938 617 938 765 q 917 443 938 542 q 748 100 868 214 q 418 -14 628 -14 m 432 51 q 697 147 597 51 q 840 443 797 242 q 863 619 863 542 q 800 790 863 739 q 600 842 738 842 q 408 803 488 842 q 274 676 328 764 q 189 443 219 589 q 169 283 169 349 q 232 107 169 163 q 432 51 294 51 z "},"Ơ":{"ha":1040,"x_min":96,"x_max":1153,"o":"m 418 -14 q 96 288 96 -14 q 114 443 96 361 q 285 796 165 683 q 615 908 406 908 q 899 786 826 908 q 1024 824 983 788 q 1086 956 1065 860 l 1153 956 q 1072 786 1128 839 q 924 725 1017 733 q 938 615 938 679 q 917 443 938 539 q 748 100 868 214 q 418 -14 628 -14 m 432 51 q 697 147 597 51 q 840 443 797 242 q 863 619 863 542 q 800 790 863 739 q 600 842 738 842 q 408 803 488 842 q 274 676 328 764 q 189 443 219 589 q 169 283 169 349 q 232 107 169 163 q 432 51 294 51 z "},"Ớ":{"ha":1040,"x_min":96,"x_max":1153,"o":"m 750 1175 l 822 1175 l 672 956 l 610 956 l 750 1175 m 418 -14 q 96 288 96 -14 q 114 443 96 361 q 285 796 165 683 q 615 908 406 908 q 899 786 826 908 q 1024 824 983 788 q 1086 956 1065 860 l 1153 956 q 1072 786 1128 839 q 924 725 1017 733 q 938 615 938 679 q 917 443 938 539 q 748 100 868 214 q 418 -14 628 -14 m 432 51 q 697 147 597 51 q 840 443 797 242 q 863 619 863 542 q 800 790 863 739 q 600 842 738 842 q 408 803 488 842 q 274 676 328 764 q 189 443 219 589 q 169 283 169 349 q 232 107 169 163 q 432 51 294 51 z "},"Ợ":{"ha":1040,"x_min":96,"x_max":1153,"o":"m 418 -14 q 96 288 96 -14 q 114 443 96 361 q 285 796 165 683 q 615 908 406 908 q 899 786 826 908 q 1024 824 983 788 q 1086 956 1065 860 l 1153 956 q 1072 786 1128 839 q 924 725 1017 733 q 938 615 938 679 q 917 443 938 539 q 748 100 868 214 q 418 -14 628 -14 m 432 51 q 697 147 597 51 q 840 443 797 242 q 863 619 863 542 q 800 790 863 739 q 600 842 738 842 q 408 803 488 842 q 274 676 328 764 q 189 443 219 589 q 169 283 169 349 q 232 107 169 163 q 432 51 294 51 m 358 -132 l 440 -132 l 424 -211 l 342 -211 l 358 -132 z "},"Ờ":{"ha":1040,"x_min":96,"x_max":1153,"o":"m 571 1175 l 643 1175 l 689 956 l 626 956 l 571 1175 m 418 -14 q 96 288 96 -14 q 114 443 96 361 q 285 796 165 683 q 615 908 406 908 q 899 786 826 908 q 1024 824 983 788 q 1086 956 1065 860 l 1153 956 q 1072 786 1128 839 q 924 725 1017 733 q 938 615 938 679 q 917 443 938 539 q 748 100 868 214 q 418 -14 628 -14 m 432 51 q 697 147 597 51 q 840 443 797 242 q 863 619 863 542 q 800 790 863 739 q 600 842 738 842 q 408 803 488 842 q 274 676 328 764 q 189 443 219 589 q 169 283 169 349 q 232 107 169 163 q 432 51 294 51 z "},"Ở":{"ha":1040,"x_min":96,"x_max":1153,"o":"m 629 1065 q 715 1077 685 1068 q 758 1102 744 1086 q 776 1147 771 1118 q 779 1167 779 1161 q 678 1221 779 1221 q 628 1216 656 1221 q 581 1204 600 1211 l 592 1257 q 645 1269 613 1264 q 703 1274 678 1274 q 806 1250 771 1274 q 840 1181 840 1226 q 838 1151 840 1161 q 791 1065 825 1094 q 686 1028 757 1035 l 671 956 l 606 956 l 629 1065 m 418 -14 q 96 288 96 -14 q 114 443 96 361 q 285 796 165 683 q 615 908 406 908 q 899 786 826 908 q 1024 824 983 788 q 1086 956 1065 860 l 1153 956 q 1072 786 1128 839 q 924 725 1017 733 q 938 615 938 679 q 917 443 938 539 q 748 100 868 214 q 418 -14 628 -14 m 432 51 q 697 147 597 51 q 840 443 797 242 q 863 619 863 542 q 800 790 863 739 q 600 842 738 842 q 408 803 488 842 q 274 676 328 764 q 189 443 219 589 q 169 283 169 349 q 232 107 169 163 q 432 51 294 51 z "},"Ỡ":{"ha":1040,"x_min":96,"x_max":1153,"o":"m 754 989 q 708 996 731 989 q 658 1017 686 1003 q 616 1034 633 1028 q 581 1040 599 1040 q 461 992 510 1040 l 475 1057 q 527 1086 494 1075 q 592 1097 560 1097 q 636 1091 617 1097 q 683 1071 656 1085 q 726 1052 708 1058 q 764 1046 743 1046 q 875 1094 831 1046 l 861 1029 q 816 999 844 1010 q 754 989 788 989 m 418 -14 q 96 288 96 -14 q 114 443 96 361 q 285 796 165 683 q 615 908 406 908 q 899 786 826 908 q 1024 824 983 788 q 1086 956 1065 860 l 1153 956 q 1072 786 1128 839 q 924 725 1017 733 q 938 615 938 679 q 917 443 938 539 q 748 100 868 214 q 418 -14 628 -14 m 432 51 q 697 147 597 51 q 840 443 797 242 q 863 619 863 542 q 800 790 863 739 q 600 842 738 842 q 408 803 488 842 q 274 676 328 764 q 189 443 219 589 q 169 283 169 349 q 232 107 169 163 q 432 51 294 51 z "},"Ő":{"ha":956,"x_min":96,"x_max":938,"o":"m 561 1150 l 636 1150 l 490 954 l 428 954 l 561 1150 m 838 1150 l 913 1150 l 765 954 l 703 954 l 838 1150 m 418 -14 q 96 288 96 -14 q 114 443 96 361 q 285 796 165 683 q 615 908 406 908 q 858 837 778 908 q 938 617 938 765 q 917 443 938 542 q 748 100 868 214 q 418 -14 628 -14 m 432 51 q 697 147 597 51 q 840 443 797 242 q 863 619 863 542 q 800 790 863 739 q 600 842 738 842 q 408 803 488 842 q 274 676 328 764 q 189 443 219 589 q 169 283 169 349 q 232 107 169 163 q 432 51 294 51 z "},"Ō":{"ha":956,"x_min":96,"x_max":938,"o":"m 454 1057 l 838 1057 l 825 999 l 442 999 l 454 1057 m 418 -14 q 96 288 96 -14 q 114 443 96 361 q 285 796 165 683 q 615 908 406 908 q 858 837 778 908 q 938 617 938 765 q 917 443 938 542 q 748 100 868 214 q 418 -14 628 -14 m 432 51 q 697 147 597 51 q 840 443 797 242 q 863 619 863 542 q 800 790 863 739 q 600 842 738 842 q 408 803 488 842 q 274 676 328 764 q 189 443 219 589 q 169 283 169 349 q 232 107 169 163 q 432 51 294 51 z "},"Ø":{"ha":956,"x_min":96,"x_max":938,"o":"m 226 26 q 96 286 96 97 q 114 443 96 361 q 285 796 165 683 q 615 908 406 908 q 726 897 674 908 l 764 963 l 833 963 l 786 881 q 938 615 938 818 q 917 443 938 542 q 748 100 868 214 q 418 -14 628 -14 q 283 3 350 -14 l 239 -74 l 169 -74 l 226 26 m 690 835 q 600 842 646 842 q 408 803 488 842 q 274 676 328 764 q 189 443 219 589 q 169 283 169 349 q 261 86 169 139 l 690 835 m 432 51 q 697 147 597 51 q 840 443 797 242 q 863 617 863 551 q 835 746 863 697 q 750 818 807 794 l 318 64 q 432 51 367 51 z "},"Ǿ":{"ha":956,"x_min":96,"x_max":938,"o":"m 725 1175 l 797 1175 l 647 956 l 585 956 l 725 1175 m 226 26 q 96 286 96 97 q 114 443 96 361 q 285 796 165 683 q 615 908 406 908 q 726 897 674 908 l 764 963 l 833 963 l 786 881 q 938 615 938 818 q 917 443 938 542 q 748 100 868 214 q 418 -14 628 -14 q 283 3 350 -14 l 239 -74 l 169 -74 l 226 26 m 690 835 q 600 842 646 842 q 408 803 488 842 q 274 676 328 764 q 189 443 219 589 q 169 283 169 349 q 261 86 169 139 l 690 835 m 432 51 q 697 147 597 51 q 840 443 797 242 q 863 617 863 551 q 835 746 863 697 q 750 818 807 794 l 318 64 q 432 51 367 51 z "},"Õ":{"ha":956,"x_min":96,"x_max":938,"o":"m 732 993 q 686 1000 708 993 q 636 1021 664 1007 q 594 1038 611 1032 q 558 1044 576 1044 q 439 996 488 1044 l 453 1061 q 505 1090 472 1079 q 569 1101 538 1101 q 614 1095 594 1101 q 661 1075 633 1089 q 703 1056 686 1063 q 742 1050 721 1050 q 853 1099 808 1050 l 839 1033 q 794 1003 822 1014 q 732 993 765 993 m 418 -14 q 96 288 96 -14 q 114 443 96 361 q 285 796 165 683 q 615 908 406 908 q 858 837 778 908 q 938 617 938 765 q 917 443 938 542 q 748 100 868 214 q 418 -14 628 -14 m 432 51 q 697 147 597 51 q 840 443 797 242 q 863 619 863 542 q 800 790 863 739 q 600 842 738 842 q 408 803 488 842 q 274 676 328 764 q 189 443 219 589 q 169 283 169 349 q 232 107 169 163 q 432 51 294 51 z "},"Œ":{"ha":1467,"x_min":97,"x_max":1522,"o":"m 419 -14 q 97 288 97 -14 q 115 443 97 361 q 287 796 167 683 q 617 908 407 908 q 910 767 844 908 l 938 894 l 1522 894 l 1510 832 l 1001 832 l 926 478 l 1386 478 l 1372 417 l 913 417 l 838 61 l 1346 61 l 1333 0 l 749 0 l 775 125 q 419 -14 649 -14 m 433 51 q 699 147 599 51 q 842 443 799 242 q 864 619 864 542 q 801 790 864 739 q 601 842 739 842 q 409 803 489 842 q 275 676 329 764 q 190 443 221 589 q 171 283 171 349 q 233 107 171 163 q 433 51 296 51 z "},"P":{"ha":793,"x_min":49,"x_max":828,"o":"m 238 894 l 593 894 q 769 841 710 894 q 828 692 828 788 q 819 615 828 656 q 699 416 793 489 q 471 343 606 343 l 197 343 l 125 0 l 49 0 l 238 894 m 476 404 q 656 459 590 404 q 743 615 721 514 q 753 692 753 664 q 710 797 753 761 q 575 832 668 832 l 301 832 l 210 404 l 476 404 z "},"Þ":{"ha":821,"x_min":49,"x_max":792,"o":"m 238 894 l 314 894 l 278 721 l 557 721 q 732 667 672 721 q 792 518 792 613 q 783 444 792 485 q 665 242 754 314 q 433 169 576 169 l 160 169 l 125 0 l 49 0 l 238 894 m 440 232 q 617 289 547 232 q 707 444 686 346 q 717 524 717 496 q 675 625 717 592 q 538 658 633 658 l 264 658 l 174 232 l 440 232 z "},"Q":{"ha":956,"x_min":96,"x_max":938,"o":"m 503 -239 q 396 -204 429 -239 q 363 -100 363 -169 q 372 -11 363 -69 q 96 286 96 10 q 114 443 96 358 q 285 796 165 683 q 615 908 406 908 q 858 837 778 908 q 938 617 938 765 q 917 443 938 542 q 756 109 869 222 q 447 -12 643 -4 q 436 -96 436 -65 q 457 -154 436 -136 q 528 -172 478 -172 q 629 -158 581 -172 l 615 -225 q 503 -239 564 -239 m 432 51 q 697 147 597 51 q 840 443 797 242 q 863 619 863 542 q 800 790 863 739 q 600 842 738 842 q 408 803 488 842 q 274 676 328 764 q 189 443 219 589 q 169 283 169 349 q 232 107 169 163 q 432 51 294 51 z "},"R":{"ha":822,"x_min":49,"x_max":831,"o":"m 238 894 l 611 894 q 776 845 722 894 q 831 706 831 796 q 822 628 831 669 q 736 458 800 524 q 571 375 672 393 q 608 341 597 361 q 628 279 618 321 l 689 0 l 611 0 l 550 269 q 530 322 543 304 q 489 349 517 340 q 410 358 461 358 l 200 358 l 125 0 l 49 0 l 238 894 m 489 419 q 746 628 700 419 q 754 700 754 668 q 716 799 754 767 q 593 832 678 832 l 301 832 l 214 419 l 489 419 z "},"Ŕ":{"ha":822,"x_min":49,"x_max":831,"o":"m 650 1175 l 722 1175 l 572 956 l 510 956 l 650 1175 m 238 894 l 611 894 q 776 845 722 894 q 831 706 831 796 q 822 628 831 669 q 736 458 800 524 q 571 375 672 393 q 608 341 597 361 q 628 279 618 321 l 689 0 l 611 0 l 550 269 q 530 322 543 304 q 489 349 517 340 q 410 358 461 358 l 200 358 l 125 0 l 49 0 l 238 894 m 489 419 q 746 628 700 419 q 754 700 754 668 q 716 799 754 767 q 593 832 678 832 l 301 832 l 214 419 l 489 419 z "},"Ř":{"ha":822,"x_min":49,"x_max":831,"o":"m 415 1142 l 481 1142 l 560 999 l 700 1142 l 772 1142 l 586 954 l 519 954 l 415 1142 m 238 894 l 611 894 q 776 845 722 894 q 831 706 831 796 q 822 628 831 669 q 736 458 800 524 q 571 375 672 393 q 608 341 597 361 q 628 279 618 321 l 689 0 l 611 0 l 550 269 q 530 322 543 304 q 489 349 517 340 q 410 358 461 358 l 200 358 l 125 0 l 49 0 l 238 894 m 489 419 q 746 628 700 419 q 754 700 754 668 q 716 799 754 767 q 593 832 678 832 l 301 832 l 214 419 l 489 419 z "},"Ŗ":{"ha":822,"x_min":49,"x_max":831,"o":"m 238 894 l 611 894 q 776 845 722 894 q 831 706 831 796 q 822 628 831 669 q 736 458 800 524 q 571 375 672 393 q 608 341 597 361 q 628 279 618 321 l 689 0 l 611 0 l 550 269 q 530 322 543 304 q 489 349 517 340 q 410 358 461 358 l 200 358 l 125 0 l 49 0 l 238 894 m 489 419 q 746 628 700 419 q 754 700 754 668 q 716 799 754 767 q 593 832 678 832 l 301 832 l 214 419 l 489 419 m 282 -51 l 356 -51 l 254 -281 l 197 -281 l 282 -51 z "},"Ṛ":{"ha":822,"x_min":49,"x_max":831,"o":"m 238 894 l 611 894 q 776 845 722 894 q 831 706 831 796 q 822 628 831 669 q 736 458 800 524 q 571 375 672 393 q 608 341 597 361 q 628 279 618 321 l 689 0 l 611 0 l 550 269 q 530 322 543 304 q 489 349 517 340 q 410 358 461 358 l 200 358 l 125 0 l 49 0 l 238 894 m 489 419 q 746 628 700 419 q 754 700 754 668 q 716 799 754 767 q 593 832 678 832 l 301 832 l 214 419 l 489 419 m 300 -132 l 382 -132 l 365 -211 l 283 -211 l 300 -132 z "},"Ṝ":{"ha":822,"x_min":49,"x_max":831,"o":"m 381 1054 l 764 1054 l 751 996 l 368 996 l 381 1054 m 238 894 l 611 894 q 776 845 722 894 q 831 706 831 796 q 822 628 831 669 q 736 458 800 524 q 571 375 672 393 q 608 341 597 361 q 628 279 618 321 l 689 0 l 611 0 l 550 269 q 530 322 543 304 q 489 349 517 340 q 410 358 461 358 l 200 358 l 125 0 l 49 0 l 238 894 m 489 419 q 746 628 700 419 q 754 700 754 668 q 716 799 754 767 q 593 832 678 832 l 301 832 l 214 419 l 489 419 m 300 -132 l 382 -132 l 365 -211 l 283 -211 l 300 -132 z "},"Ṟ":{"ha":822,"x_min":49,"x_max":831,"o":"m 238 894 l 611 894 q 776 845 722 894 q 831 706 831 796 q 822 628 831 669 q 736 458 800 524 q 571 375 672 393 q 608 341 597 361 q 628 279 618 321 l 689 0 l 611 0 l 550 269 q 530 322 543 304 q 489 349 517 340 q 410 358 461 358 l 200 358 l 125 0 l 49 0 l 238 894 m 489 419 q 746 628 700 419 q 754 700 754 668 q 716 799 754 767 q 593 832 678 832 l 301 832 l 214 419 l 489 419 m 131 -103 l 514 -103 l 501 -161 l 118 -161 l 131 -103 z "},"S":{"ha":768,"x_min":47,"x_max":767,"o":"m 299 -14 q 47 25 138 -14 l 63 93 q 307 51 167 51 q 515 93 440 51 q 608 228 589 135 q 614 271 614 258 q 563 364 614 331 q 386 428 511 397 q 212 501 267 456 q 157 617 157 546 q 163 668 157 644 q 535 908 214 908 q 667 898 604 908 q 767 875 731 888 l 753 807 q 535 842 660 842 q 328 800 401 842 q 238 668 256 758 q 232 628 232 638 q 253 567 232 592 q 322 523 275 542 q 451 483 368 504 q 635 404 581 451 q 690 286 690 357 q 683 228 690 263 q 560 47 658 108 q 299 -14 463 -14 z "},"Ś":{"ha":768,"x_min":47,"x_max":767,"o":"m 621 1183 l 693 1183 l 543 964 l 481 964 l 621 1183 m 299 -14 q 47 25 138 -14 l 63 93 q 307 51 167 51 q 515 93 440 51 q 608 228 589 135 q 614 271 614 258 q 563 364 614 331 q 386 428 511 397 q 212 501 267 456 q 157 617 157 546 q 163 668 157 644 q 535 908 214 908 q 667 898 604 908 q 767 875 731 888 l 753 807 q 535 842 660 842 q 328 800 401 842 q 238 668 256 758 q 232 628 232 638 q 253 567 232 592 q 322 523 275 542 q 451 483 368 504 q 635 404 581 451 q 690 286 690 357 q 683 228 690 263 q 560 47 658 108 q 299 -14 463 -14 z "},"Š":{"ha":768,"x_min":47,"x_max":769,"o":"m 413 1142 l 478 1142 l 557 999 l 697 1142 l 769 1142 l 583 954 l 517 954 l 413 1142 m 299 -14 q 47 25 138 -14 l 63 93 q 307 51 167 51 q 515 93 440 51 q 608 228 589 135 q 614 271 614 258 q 563 364 614 331 q 386 428 511 397 q 212 501 267 456 q 157 617 157 546 q 163 668 157 644 q 535 908 214 908 q 667 898 604 908 q 767 875 731 888 l 753 807 q 535 842 660 842 q 328 800 401 842 q 238 668 256 758 q 232 628 232 638 q 253 567 232 592 q 322 523 275 542 q 451 483 368 504 q 635 404 581 451 q 690 286 690 357 q 683 228 690 263 q 560 47 658 108 q 299 -14 463 -14 z "},"Ş":{"ha":768,"x_min":47,"x_max":767,"o":"m 535 842 q 328 800 401 842 q 238 668 256 758 q 232 628 232 638 q 253 567 232 592 q 322 523 275 542 q 451 483 368 504 q 635 404 581 451 q 690 286 690 357 q 683 228 690 263 q 574 56 661 117 q 340 -12 486 -6 l 310 -71 q 443 -162 443 -71 q 440 -193 443 -182 q 218 -333 410 -333 q 171 -330 197 -333 q 129 -322 144 -326 l 140 -271 q 225 -282 178 -282 q 334 -262 297 -282 q 381 -193 371 -242 q 383 -172 383 -179 q 356 -129 383 -142 q 271 -117 329 -117 l 225 -117 l 281 -14 q 47 25 131 -12 l 63 93 q 307 51 167 51 q 515 93 440 51 q 608 228 589 135 q 614 271 614 258 q 563 364 614 331 q 386 428 511 397 q 212 501 267 456 q 157 617 157 546 q 163 668 157 644 q 535 908 214 908 q 667 898 604 908 q 767 875 731 888 l 753 807 q 535 842 660 842 z "},"Ŝ":{"ha":768,"x_min":47,"x_max":767,"o":"m 540 1164 l 607 1164 l 713 976 l 646 976 l 567 1119 l 426 976 l 356 976 l 540 1164 m 299 -14 q 47 25 138 -14 l 63 93 q 307 51 167 51 q 515 93 440 51 q 608 228 589 135 q 614 271 614 258 q 563 364 614 331 q 386 428 511 397 q 212 501 267 456 q 157 617 157 546 q 163 668 157 644 q 535 908 214 908 q 667 898 604 908 q 767 875 731 888 l 753 807 q 535 842 660 842 q 328 800 401 842 q 238 668 256 758 q 232 628 232 638 q 253 567 232 592 q 322 523 275 542 q 451 483 368 504 q 635 404 581 451 q 690 286 690 357 q 683 228 690 263 q 560 47 658 108 q 299 -14 463 -14 z "},"Ș":{"ha":768,"x_min":47,"x_max":767,"o":"m 299 -14 q 47 25 138 -14 l 63 93 q 307 51 167 51 q 515 93 440 51 q 608 228 589 135 q 614 271 614 258 q 563 364 614 331 q 386 428 511 397 q 212 501 267 456 q 157 617 157 546 q 163 668 157 644 q 535 908 214 908 q 667 898 604 908 q 767 875 731 888 l 753 807 q 535 842 660 842 q 328 800 401 842 q 238 668 256 758 q 232 628 232 638 q 253 567 232 592 q 322 523 275 542 q 451 483 368 504 q 635 404 581 451 q 690 286 690 357 q 683 228 690 263 q 560 47 658 108 q 299 -14 463 -14 m 271 -76 l 344 -76 l 247 -299 l 188 -299 l 271 -76 z "},"Ṡ":{"ha":768,"x_min":47,"x_max":767,"o":"m 513 1069 l 592 1069 l 575 992 l 496 992 l 513 1069 m 299 -14 q 47 25 138 -14 l 63 93 q 307 51 167 51 q 515 93 440 51 q 608 228 589 135 q 614 271 614 258 q 563 364 614 331 q 386 428 511 397 q 212 501 267 456 q 157 617 157 546 q 163 668 157 644 q 535 908 214 908 q 667 898 604 908 q 767 875 731 888 l 753 807 q 535 842 660 842 q 328 800 401 842 q 238 668 256 758 q 232 628 232 638 q 253 567 232 592 q 322 523 275 542 q 451 483 368 504 q 635 404 581 451 q 690 286 690 357 q 683 228 690 263 q 560 47 658 108 q 299 -14 463 -14 z "},"Ṣ":{"ha":768,"x_min":47,"x_max":767,"o":"m 299 -14 q 47 25 138 -14 l 63 93 q 307 51 167 51 q 515 93 440 51 q 608 228 589 135 q 614 271 614 258 q 563 364 614 331 q 386 428 511 397 q 212 501 267 456 q 157 617 157 546 q 163 668 157 644 q 535 908 214 908 q 667 898 604 908 q 767 875 731 888 l 753 807 q 535 842 660 842 q 328 800 401 842 q 238 668 256 758 q 232 628 232 638 q 253 567 232 592 q 322 523 275 542 q 451 483 368 504 q 635 404 581 451 q 690 286 690 357 q 683 228 690 263 q 560 47 658 108 q 299 -14 463 -14 m 249 -132 l 331 -132 l 314 -211 l 232 -211 l 249 -132 z "},"ẞ":{"ha":858,"x_min":42,"x_max":825,"o":"m 453 -14 q 260 17 331 -14 l 274 83 q 458 51 343 51 q 620 101 560 51 q 703 250 681 150 q 711 314 711 286 q 674 394 711 369 q 547 419 636 419 l 408 419 l 424 493 l 749 672 q 754 715 754 703 q 546 842 754 842 q 346 787 418 842 q 247 614 274 732 l 118 0 l 42 0 l 172 617 q 303 834 203 760 q 561 908 404 908 q 759 854 693 908 q 825 708 825 800 q 818 647 825 682 l 508 479 l 582 479 q 734 435 682 479 q 786 311 786 392 q 779 249 786 286 q 668 54 753 122 q 453 -14 583 -14 z "},"Ə":{"ha":919,"x_min":82,"x_max":900,"o":"m 378 -14 q 157 57 232 -14 q 82 249 82 128 q 93 343 82 290 l 124 488 l 819 488 q 832 610 832 554 q 757 788 832 731 q 508 844 682 844 q 378 832 449 844 q 246 796 308 819 l 260 860 q 393 895 322 882 q 529 908 464 908 q 809 833 718 908 q 900 603 900 757 q 881 439 900 532 q 711 103 833 219 q 378 -14 589 -14 m 392 49 q 666 144 565 49 q 807 428 767 239 l 181 428 l 161 335 q 150 240 150 279 q 209 97 150 144 q 392 49 268 49 z "},"T":{"ha":790,"x_min":169,"x_max":875,"o":"m 478 832 l 169 832 l 182 894 l 875 894 l 863 832 l 554 832 l 378 0 l 301 0 l 478 832 z "},"Ŧ":{"ha":790,"x_min":169,"x_max":875,"o":"m 399 463 l 176 463 l 190 524 l 413 524 l 478 832 l 169 832 l 182 894 l 875 894 l 863 832 l 554 832 l 489 524 l 688 524 l 674 463 l 475 463 l 378 0 l 301 0 l 399 463 z "},"Ť":{"ha":790,"x_min":169,"x_max":875,"o":"m 407 1164 l 472 1164 l 551 1021 l 692 1164 l 764 1164 l 578 976 l 511 976 l 407 1164 m 478 832 l 169 832 l 182 894 l 875 894 l 863 832 l 554 832 l 378 0 l 301 0 l 478 832 z "},"Ţ":{"ha":790,"x_min":150,"x_max":875,"o":"m 239 -333 q 192 -330 218 -333 q 150 -322 165 -326 l 161 -271 q 246 -282 199 -282 q 355 -262 318 -282 q 401 -193 392 -242 q 404 -172 404 -179 q 377 -129 404 -142 q 292 -117 350 -117 l 246 -117 l 308 0 l 301 0 l 478 832 l 169 832 l 182 894 l 875 894 l 863 832 l 554 832 l 378 0 l 368 0 l 331 -71 q 464 -162 464 -71 q 461 -193 464 -182 q 239 -333 431 -333 z "},"Ț":{"ha":790,"x_min":169,"x_max":875,"o":"m 478 832 l 169 832 l 182 894 l 875 894 l 863 832 l 554 832 l 378 0 l 301 0 l 478 832 m 290 -56 l 364 -56 l 263 -285 l 206 -285 l 290 -56 z "},"Ṭ":{"ha":790,"x_min":169,"x_max":875,"o":"m 478 832 l 169 832 l 182 894 l 875 894 l 863 832 l 554 832 l 378 0 l 301 0 l 478 832 m 271 -129 l 353 -129 l 336 -208 l 254 -208 l 271 -129 z "},"Ṯ":{"ha":790,"x_min":114,"x_max":875,"o":"m 478 832 l 169 832 l 182 894 l 875 894 l 863 832 l 554 832 l 378 0 l 301 0 l 478 832 m 126 -100 l 510 -100 l 497 -158 l 114 -158 l 126 -100 z "},"U":{"ha":921,"x_min":99,"x_max":957,"o":"m 401 -14 q 176 50 253 -14 q 99 231 99 114 q 110 324 99 271 l 231 894 l 307 894 l 185 315 q 175 229 175 271 q 234 96 175 139 q 417 53 293 53 q 641 117 551 53 q 758 315 731 181 l 881 894 l 957 894 l 836 324 q 401 -14 764 -14 z "},"Ú":{"ha":921,"x_min":99,"x_max":957,"o":"m 706 1175 l 778 1175 l 628 956 l 565 956 l 706 1175 m 401 -14 q 176 50 253 -14 q 99 231 99 114 q 110 324 99 271 l 231 894 l 307 894 l 185 315 q 175 229 175 271 q 234 96 175 139 q 417 53 293 53 q 641 117 551 53 q 758 315 731 181 l 881 894 l 957 894 l 836 324 q 401 -14 764 -14 z "},"Ŭ":{"ha":921,"x_min":99,"x_max":957,"o":"m 606 954 q 513 985 546 954 q 481 1069 481 1017 q 485 1108 481 1088 l 540 1108 q 536 1075 536 1090 q 614 1008 536 1008 q 691 1035 658 1008 q 733 1108 724 1061 l 794 1108 q 729 997 779 1039 q 606 954 679 954 m 401 -14 q 176 50 253 -14 q 99 231 99 114 q 110 324 99 271 l 231 894 l 307 894 l 185 315 q 175 229 175 271 q 234 96 175 139 q 417 53 293 53 q 641 117 551 53 q 758 315 731 181 l 881 894 l 957 894 l 836 324 q 401 -14 764 -14 z "},"Ǔ":{"ha":921,"x_min":99,"x_max":957,"o":"m 468 1142 l 533 1142 l 613 999 l 753 1142 l 825 1142 l 639 954 l 572 954 l 468 1142 m 401 -14 q 176 50 253 -14 q 99 231 99 114 q 110 324 99 271 l 231 894 l 307 894 l 185 315 q 175 229 175 271 q 234 96 175 139 q 417 53 293 53 q 641 117 551 53 q 758 315 731 181 l 881 894 l 957 894 l 836 324 q 401 -14 764 -14 z "},"Û":{"ha":921,"x_min":99,"x_max":957,"o":"m 613 1142 l 679 1142 l 785 954 l 718 954 l 639 1097 l 499 954 l 428 954 l 613 1142 m 401 -14 q 176 50 253 -14 q 99 231 99 114 q 110 324 99 271 l 231 894 l 307 894 l 185 315 q 175 229 175 271 q 234 96 175 139 q 417 53 293 53 q 641 117 551 53 q 758 315 731 181 l 881 894 l 957 894 l 836 324 q 401 -14 764 -14 z "},"Ü":{"ha":921,"x_min":99,"x_max":957,"o":"m 467 1068 l 546 1068 l 529 992 l 451 992 l 467 1068 m 699 1068 l 776 1068 l 760 992 l 682 992 l 699 1068 m 401 -14 q 176 50 253 -14 q 99 231 99 114 q 110 324 99 271 l 231 894 l 307 894 l 185 315 q 175 229 175 271 q 234 96 175 139 q 417 53 293 53 q 641 117 551 53 q 758 315 731 181 l 881 894 l 957 894 l 836 324 q 401 -14 764 -14 z "},"Ǘ":{"ha":921,"x_min":99,"x_max":957,"o":"m 711 1224 l 781 1224 l 656 1061 l 593 1061 l 711 1224 m 458 1031 l 538 1031 l 521 954 l 442 954 l 458 1031 m 704 1031 l 781 1031 l 764 954 l 688 954 l 704 1031 m 401 -14 q 176 50 253 -14 q 99 231 99 114 q 110 324 99 271 l 231 894 l 307 894 l 185 315 q 175 229 175 271 q 234 96 175 139 q 417 53 293 53 q 641 117 551 53 q 758 315 731 181 l 881 894 l 957 894 l 836 324 q 401 -14 764 -14 z "},"Ǚ":{"ha":921,"x_min":99,"x_max":957,"o":"m 486 1214 l 554 1214 l 638 1096 l 769 1214 l 838 1214 l 663 1061 l 596 1061 l 486 1214 m 458 1031 l 538 1031 l 521 954 l 442 954 l 458 1031 m 704 1031 l 781 1031 l 764 954 l 688 954 l 704 1031 m 401 -14 q 176 50 253 -14 q 99 231 99 114 q 110 324 99 271 l 231 894 l 307 894 l 185 315 q 175 229 175 271 q 234 96 175 139 q 417 53 293 53 q 641 117 551 53 q 758 315 731 181 l 881 894 l 957 894 l 836 324 q 401 -14 764 -14 z "},"Ǜ":{"ha":921,"x_min":99,"x_max":957,"o":"m 543 1224 l 614 1224 l 663 1061 l 600 1061 l 543 1224 m 463 1031 l 540 1031 l 524 954 l 446 954 l 463 1031 m 707 1031 l 785 1031 l 768 954 l 690 954 l 707 1031 m 401 -14 q 176 50 253 -14 q 99 231 99 114 q 110 324 99 271 l 231 894 l 307 894 l 185 315 q 175 229 175 271 q 234 96 175 139 q 417 53 293 53 q 641 117 551 53 q 758 315 731 181 l 881 894 l 957 894 l 836 324 q 401 -14 764 -14 z "},"Ǖ":{"ha":921,"x_min":99,"x_max":957,"o":"m 472 1196 l 856 1196 l 843 1138 l 460 1138 l 472 1196 m 475 1064 l 554 1064 l 538 988 l 460 988 l 475 1064 m 707 1064 l 785 1064 l 768 988 l 690 988 l 707 1064 m 401 -14 q 176 50 253 -14 q 99 231 99 114 q 110 324 99 271 l 231 894 l 307 894 l 185 315 q 175 229 175 271 q 234 96 175 139 q 417 53 293 53 q 641 117 551 53 q 758 315 731 181 l 881 894 l 957 894 l 836 324 q 401 -14 764 -14 z "},"Ụ":{"ha":921,"x_min":99,"x_max":957,"o":"m 401 -14 q 176 50 253 -14 q 99 231 99 114 q 110 324 99 271 l 231 894 l 307 894 l 185 315 q 175 229 175 271 q 234 96 175 139 q 417 53 293 53 q 641 117 551 53 q 758 315 731 181 l 881 894 l 957 894 l 836 324 q 401 -14 764 -14 m 336 -132 l 418 -132 l 401 -211 l 319 -211 l 336 -132 z "},"Ù":{"ha":921,"x_min":99,"x_max":957,"o":"m 549 1175 l 621 1175 l 667 956 l 604 956 l 549 1175 m 401 -14 q 176 50 253 -14 q 99 231 99 114 q 110 324 99 271 l 231 894 l 307 894 l 185 315 q 175 229 175 271 q 234 96 175 139 q 417 53 293 53 q 641 117 551 53 q 758 315 731 181 l 881 894 l 957 894 l 836 324 q 401 -14 764 -14 z "},"Ủ":{"ha":921,"x_min":99,"x_max":957,"o":"m 594 1065 q 680 1077 650 1068 q 723 1102 710 1086 q 742 1147 736 1118 q 744 1167 744 1161 q 643 1221 744 1221 q 593 1216 621 1221 q 546 1204 565 1211 l 557 1257 q 610 1269 578 1264 q 668 1274 643 1274 q 771 1250 736 1274 q 806 1181 806 1226 q 803 1151 806 1161 q 756 1065 790 1094 q 651 1028 722 1035 l 636 956 l 571 956 l 594 1065 m 401 -14 q 176 50 253 -14 q 99 231 99 114 q 110 324 99 271 l 231 894 l 307 894 l 185 315 q 175 229 175 271 q 234 96 175 139 q 417 53 293 53 q 641 117 551 53 q 758 315 731 181 l 881 894 l 957 894 l 836 324 q 401 -14 764 -14 z "},"Ư":{"ha":1090,"x_min":99,"x_max":1189,"o":"m 401 -14 q 176 50 253 -14 q 99 231 99 114 q 110 324 99 271 l 231 894 l 307 894 l 185 315 q 175 229 175 271 q 234 96 175 139 q 417 53 293 53 q 641 117 551 53 q 758 315 731 181 l 881 894 l 957 894 l 933 783 q 1060 820 1019 783 q 1122 956 1101 857 l 1189 956 q 1097 774 1161 826 q 921 721 1032 722 l 836 324 q 401 -14 764 -14 z "},"Ứ":{"ha":1090,"x_min":99,"x_max":1189,"o":"m 729 1175 l 801 1175 l 651 956 l 589 956 l 729 1175 m 401 -14 q 176 50 253 -14 q 99 231 99 114 q 110 324 99 271 l 231 894 l 307 894 l 185 315 q 175 229 175 271 q 234 96 175 139 q 417 53 293 53 q 641 117 551 53 q 758 315 731 181 l 881 894 l 957 894 l 933 783 q 1060 820 1019 783 q 1122 956 1101 857 l 1189 956 q 1097 774 1161 826 q 921 721 1032 722 l 836 324 q 401 -14 764 -14 z "},"Ự":{"ha":1090,"x_min":99,"x_max":1189,"o":"m 401 -14 q 176 50 253 -14 q 99 231 99 114 q 110 324 99 271 l 231 894 l 307 894 l 185 315 q 175 229 175 271 q 234 96 175 139 q 417 53 293 53 q 641 117 551 53 q 758 315 731 181 l 881 894 l 957 894 l 933 783 q 1060 820 1019 783 q 1122 956 1101 857 l 1189 956 q 1097 774 1161 826 q 921 721 1032 722 l 836 324 q 401 -14 764 -14 m 332 -132 l 414 -132 l 397 -211 l 315 -211 l 332 -132 z "},"Ừ":{"ha":1090,"x_min":99,"x_max":1189,"o":"m 535 1175 l 607 1175 l 653 956 l 590 956 l 535 1175 m 401 -14 q 176 50 253 -14 q 99 231 99 114 q 110 324 99 271 l 231 894 l 307 894 l 185 315 q 175 229 175 271 q 234 96 175 139 q 417 53 293 53 q 641 117 551 53 q 758 315 731 181 l 881 894 l 957 894 l 933 783 q 1060 820 1019 783 q 1122 956 1101 857 l 1189 956 q 1097 774 1161 826 q 921 721 1032 722 l 836 324 q 401 -14 764 -14 z "},"Ử":{"ha":1090,"x_min":99,"x_max":1189,"o":"m 608 1065 q 694 1077 664 1068 q 737 1102 724 1086 q 756 1147 750 1118 q 758 1167 758 1161 q 657 1221 758 1221 q 607 1216 635 1221 q 560 1204 579 1211 l 571 1257 q 624 1269 592 1264 q 682 1274 657 1274 q 785 1250 750 1274 q 819 1181 819 1226 q 817 1151 819 1161 q 770 1065 804 1094 q 665 1028 736 1035 l 650 956 l 585 956 l 608 1065 m 401 -14 q 176 50 253 -14 q 99 231 99 114 q 110 324 99 271 l 231 894 l 307 894 l 185 315 q 175 229 175 271 q 234 96 175 139 q 417 53 293 53 q 641 117 551 53 q 758 315 731 181 l 881 894 l 957 894 l 933 783 q 1060 820 1019 783 q 1122 956 1101 857 l 1189 956 q 1097 774 1161 826 q 921 721 1032 722 l 836 324 q 401 -14 764 -14 z "},"Ữ":{"ha":1090,"x_min":99,"x_max":1189,"o":"m 710 989 q 664 996 686 989 q 614 1017 642 1003 q 572 1034 589 1028 q 536 1040 554 1040 q 417 992 465 1040 l 431 1057 q 483 1086 450 1075 q 547 1097 515 1097 q 592 1091 572 1097 q 639 1071 611 1085 q 681 1052 664 1058 q 719 1046 699 1046 q 831 1094 786 1046 l 817 1029 q 772 999 800 1010 q 710 989 743 989 m 401 -14 q 176 50 253 -14 q 99 231 99 114 q 110 324 99 271 l 231 894 l 307 894 l 185 315 q 175 229 175 271 q 234 96 175 139 q 417 53 293 53 q 641 117 551 53 q 758 315 731 181 l 881 894 l 957 894 l 933 783 q 1060 820 1019 783 q 1122 956 1101 857 l 1189 956 q 1097 774 1161 826 q 921 721 1032 722 l 836 324 q 401 -14 764 -14 z "},"Ű":{"ha":921,"x_min":99,"x_max":957,"o":"m 524 1150 l 599 1150 l 453 954 l 390 954 l 524 1150 m 800 1150 l 875 1150 l 728 954 l 665 954 l 800 1150 m 401 -14 q 176 50 253 -14 q 99 231 99 114 q 110 324 99 271 l 231 894 l 307 894 l 185 315 q 175 229 175 271 q 234 96 175 139 q 417 53 293 53 q 641 117 551 53 q 758 315 731 181 l 881 894 l 957 894 l 836 324 q 401 -14 764 -14 z "},"Ū":{"ha":921,"x_min":99,"x_max":957,"o":"m 438 1057 l 821 1057 l 808 999 l 425 999 l 438 1057 m 401 -14 q 176 50 253 -14 q 99 231 99 114 q 110 324 99 271 l 231 894 l 307 894 l 185 315 q 175 229 175 271 q 234 96 175 139 q 417 53 293 53 q 641 117 551 53 q 758 315 731 181 l 881 894 l 957 894 l 836 324 q 401 -14 764 -14 z "},"Ų":{"ha":921,"x_min":99,"x_max":957,"o":"m 369 -306 q 292 -285 321 -306 q 264 -219 264 -264 q 299 -108 264 -162 q 390 -14 335 -53 q 173 52 247 -11 q 99 231 99 115 q 110 324 99 271 l 231 894 l 307 894 l 185 315 q 175 229 175 271 q 234 96 175 139 q 417 53 293 53 q 641 117 551 53 q 758 315 731 181 l 881 894 l 957 894 l 836 324 q 457 -11 768 11 q 335 -178 354 -86 q 332 -203 332 -187 q 347 -238 332 -228 q 393 -249 361 -249 q 465 -233 435 -249 l 453 -290 q 369 -306 421 -306 z "},"Ů":{"ha":921,"x_min":99,"x_max":957,"o":"m 606 954 q 522 985 553 954 q 490 1064 490 1017 q 493 1094 490 1083 q 553 1196 506 1156 q 665 1236 600 1236 q 749 1206 718 1236 q 781 1126 781 1175 q 778 1094 781 1106 q 718 994 765 1035 q 606 954 671 954 m 615 1004 q 696 1038 663 1004 q 729 1119 729 1072 q 710 1168 729 1150 q 654 1186 692 1186 q 574 1152 608 1186 q 540 1071 540 1118 q 559 1022 540 1040 q 615 1004 578 1004 m 401 -14 q 176 50 253 -14 q 99 231 99 114 q 110 324 99 271 l 231 894 l 307 894 l 185 315 q 175 229 175 271 q 234 96 175 139 q 417 53 293 53 q 641 117 551 53 q 758 315 731 181 l 881 894 l 957 894 l 836 324 q 401 -14 764 -14 z "},"Ũ":{"ha":921,"x_min":99,"x_max":957,"o":"m 713 990 q 667 997 689 990 q 617 1018 644 1004 q 574 1035 592 1029 q 539 1042 557 1042 q 419 993 468 1042 l 433 1058 q 485 1088 453 1076 q 550 1099 518 1099 q 594 1092 575 1099 q 642 1072 614 1086 q 684 1053 667 1060 q 722 1047 701 1047 q 833 1096 789 1047 l 819 1031 q 774 1001 803 1011 q 713 990 746 990 m 401 -14 q 176 50 253 -14 q 99 231 99 114 q 110 324 99 271 l 231 894 l 307 894 l 185 315 q 175 229 175 271 q 234 96 175 139 q 417 53 293 53 q 641 117 551 53 q 758 315 731 181 l 881 894 l 957 894 l 836 324 q 401 -14 764 -14 z "},"V":{"ha":928,"x_min":210,"x_max":985,"o":"m 210 894 l 285 894 l 418 68 l 901 894 l 985 894 l 458 0 l 358 0 l 210 894 z "},"W":{"ha":1181,"x_min":210,"x_max":1238,"o":"m 210 894 l 286 894 l 301 93 l 669 804 l 688 894 l 750 894 l 807 93 l 1163 894 l 1238 894 l 842 0 l 754 0 l 703 736 l 326 0 l 229 0 l 210 894 z "},"Ẃ":{"ha":1181,"x_min":210,"x_max":1238,"o":"m 856 1175 l 928 1175 l 778 956 l 715 956 l 856 1175 m 210 894 l 286 894 l 301 93 l 669 804 l 688 894 l 750 894 l 807 93 l 1163 894 l 1238 894 l 842 0 l 754 0 l 703 736 l 326 0 l 229 0 l 210 894 z "},"Ŵ":{"ha":1181,"x_min":210,"x_max":1238,"o":"m 750 1142 l 817 1142 l 922 954 l 856 954 l 776 1097 l 636 954 l 565 954 l 750 1142 m 210 894 l 286 894 l 301 93 l 669 804 l 688 894 l 750 894 l 807 93 l 1163 894 l 1238 894 l 842 0 l 754 0 l 703 736 l 326 0 l 229 0 l 210 894 z "},"Ẅ":{"ha":1181,"x_min":210,"x_max":1238,"o":"m 613 1065 l 692 1065 l 675 989 l 597 989 l 613 1065 m 844 1065 l 922 1065 l 906 989 l 828 989 l 844 1065 m 210 894 l 286 894 l 301 93 l 669 804 l 688 894 l 750 894 l 807 93 l 1163 894 l 1238 894 l 842 0 l 754 0 l 703 736 l 326 0 l 229 0 l 210 894 z "},"Ẁ":{"ha":1181,"x_min":210,"x_max":1238,"o":"m 649 1175 l 721 1175 l 767 956 l 704 956 l 649 1175 m 210 894 l 286 894 l 301 93 l 669 804 l 688 894 l 750 894 l 807 93 l 1163 894 l 1238 894 l 842 0 l 754 0 l 703 736 l 326 0 l 229 0 l 210 894 z "},"X":{"ha":867,"x_min":21,"x_max":921,"o":"m 425 442 l 211 894 l 297 894 l 482 496 l 836 894 l 921 894 l 515 442 l 735 0 l 649 0 l 460 386 l 107 0 l 21 0 l 425 442 z "},"Y":{"ha":867,"x_min":210,"x_max":924,"o":"m 410 335 l 210 894 l 285 894 l 458 401 l 840 894 l 924 894 l 486 335 l 415 0 l 339 0 l 410 335 z "},"Ý":{"ha":867,"x_min":210,"x_max":924,"o":"m 671 1175 l 743 1175 l 593 956 l 531 956 l 671 1175 m 410 335 l 210 894 l 285 894 l 458 401 l 840 894 l 924 894 l 486 335 l 415 0 l 339 0 l 410 335 z "},"Ŷ":{"ha":867,"x_min":210,"x_max":924,"o":"m 585 1142 l 651 1142 l 757 954 l 690 954 l 611 1097 l 471 954 l 400 954 l 585 1142 m 410 335 l 210 894 l 285 894 l 458 401 l 840 894 l 924 894 l 486 335 l 415 0 l 339 0 l 410 335 z "},"Ÿ":{"ha":867,"x_min":210,"x_max":924,"o":"m 450 1068 l 529 1068 l 513 992 l 435 992 l 450 1068 m 682 1068 l 760 1068 l 743 992 l 665 992 l 682 1068 m 410 335 l 210 894 l 285 894 l 458 401 l 840 894 l 924 894 l 486 335 l 415 0 l 339 0 l 410 335 z "},"Ẏ":{"ha":867,"x_min":210,"x_max":924,"o":"m 564 1069 l 643 1069 l 626 992 l 547 992 l 564 1069 m 410 335 l 210 894 l 285 894 l 458 401 l 840 894 l 924 894 l 486 335 l 415 0 l 339 0 l 410 335 z "},"Ỵ":{"ha":867,"x_min":210,"x_max":924,"o":"m 410 335 l 210 894 l 285 894 l 458 401 l 840 894 l 924 894 l 486 335 l 415 0 l 339 0 l 410 335 m 314 -108 l 396 -108 l 379 -187 l 297 -187 l 314 -108 z "},"Ỳ":{"ha":867,"x_min":210,"x_max":924,"o":"m 513 1175 l 585 1175 l 631 956 l 568 956 l 513 1175 m 410 335 l 210 894 l 285 894 l 458 401 l 840 894 l 924 894 l 486 335 l 415 0 l 339 0 l 410 335 z "},"Ỷ":{"ha":867,"x_min":210,"x_max":924,"o":"m 556 1065 q 641 1077 611 1068 q 684 1102 671 1086 q 703 1147 697 1118 q 706 1167 706 1161 q 604 1221 706 1221 q 554 1216 582 1221 q 507 1204 526 1211 l 518 1257 q 572 1269 539 1264 q 629 1274 604 1274 q 732 1250 697 1274 q 767 1181 767 1226 q 764 1151 767 1161 q 717 1065 751 1094 q 613 1028 683 1035 l 597 956 l 532 956 l 556 1065 m 410 335 l 210 894 l 285 894 l 458 401 l 840 894 l 924 894 l 486 335 l 415 0 l 339 0 l 410 335 z "},"Ỹ":{"ha":867,"x_min":210,"x_max":924,"o":"m 686 990 q 640 997 663 990 q 590 1018 618 1004 q 548 1035 565 1029 q 513 1042 531 1042 q 393 993 442 1042 l 407 1058 q 459 1088 426 1076 q 524 1099 492 1099 q 568 1092 549 1099 q 615 1072 588 1086 q 658 1053 640 1060 q 696 1047 675 1047 q 807 1096 763 1047 l 793 1031 q 748 1001 776 1011 q 686 990 719 990 m 410 335 l 210 894 l 285 894 l 458 401 l 840 894 l 924 894 l 486 335 l 415 0 l 339 0 l 410 335 z "},"Z":{"ha":789,"x_min":21,"x_max":846,"o":"m 31 47 l 739 832 l 221 832 l 233 894 l 846 894 l 835 840 l 132 61 l 676 61 l 664 0 l 21 0 l 31 47 z "},"Ź":{"ha":789,"x_min":21,"x_max":846,"o":"m 675 1175 l 747 1175 l 597 956 l 535 956 l 675 1175 m 31 47 l 739 832 l 221 832 l 233 894 l 846 894 l 835 840 l 132 61 l 676 61 l 664 0 l 21 0 l 31 47 z "},"Ž":{"ha":789,"x_min":21,"x_max":846,"o":"m 435 1142 l 500 1142 l 579 999 l 719 1142 l 792 1142 l 606 954 l 539 954 l 435 1142 m 31 47 l 739 832 l 221 832 l 233 894 l 846 894 l 835 840 l 132 61 l 676 61 l 664 0 l 21 0 l 31 47 z "},"Ż":{"ha":789,"x_min":21,"x_max":846,"o":"m 547 1069 l 626 1069 l 610 992 l 531 992 l 547 1069 m 31 47 l 739 832 l 221 832 l 233 894 l 846 894 l 835 840 l 132 61 l 676 61 l 664 0 l 21 0 l 31 47 z "},"Ẓ":{"ha":789,"x_min":21,"x_max":846,"o":"m 31 47 l 739 832 l 221 832 l 233 894 l 846 894 l 835 840 l 132 61 l 676 61 l 664 0 l 21 0 l 31 47 m 293 -132 l 375 -132 l 358 -211 l 276 -211 l 293 -132 z "},"a":{"ha":738,"x_min":72,"x_max":763,"o":"m 311 -14 q 72 199 72 -14 q 85 307 72 247 q 227 577 122 482 q 471 672 332 672 q 585 656 539 672 q 675 603 632 640 l 686 658 l 763 658 l 624 0 l 560 0 l 568 74 q 448 8 510 29 q 311 -14 386 -14 m 343 49 q 576 138 474 49 l 661 536 q 585 590 626 572 q 481 608 543 608 q 274 531 357 608 q 160 307 190 453 q 147 204 147 249 q 194 85 147 121 q 343 49 240 49 z "},"á":{"ha":738,"x_min":72,"x_max":763,"o":"m 589 944 l 661 944 l 511 725 l 449 725 l 589 944 m 311 -14 q 72 199 72 -14 q 85 307 72 247 q 227 577 122 482 q 471 672 332 672 q 585 656 539 672 q 675 603 632 640 l 686 658 l 763 658 l 624 0 l 560 0 l 568 74 q 448 8 510 29 q 311 -14 386 -14 m 343 49 q 576 138 474 49 l 661 536 q 585 590 626 572 q 481 608 543 608 q 274 531 357 608 q 160 307 190 453 q 147 204 147 249 q 194 85 147 121 q 343 49 240 49 z "},"ă":{"ha":738,"x_min":72,"x_max":763,"o":"m 493 724 q 401 755 433 724 q 368 839 368 786 q 372 878 368 857 l 428 878 q 424 844 424 860 q 501 778 424 778 q 578 804 546 778 q 621 878 611 831 l 682 878 q 617 766 667 808 q 493 724 567 724 m 311 -14 q 72 199 72 -14 q 85 307 72 247 q 227 577 122 482 q 471 672 332 672 q 585 656 539 672 q 675 603 632 640 l 686 658 l 763 658 l 624 0 l 560 0 l 568 74 q 448 8 510 29 q 311 -14 386 -14 m 343 49 q 576 138 474 49 l 661 536 q 585 590 626 572 q 481 608 543 608 q 274 531 357 608 q 160 307 190 453 q 147 204 147 249 q 194 85 147 121 q 343 49 240 49 z "},"ắ":{"ha":738,"x_min":72,"x_max":763,"o":"m 600 1024 l 665 1024 l 539 861 l 482 861 l 600 1024 m 499 725 q 383 757 428 725 q 339 857 339 789 q 344 908 339 882 l 394 908 q 389 864 389 886 q 417 797 389 818 q 504 775 446 775 q 613 808 568 775 q 672 908 658 842 l 729 908 q 645 769 708 814 q 499 725 582 725 m 311 -14 q 72 199 72 -14 q 85 307 72 247 q 227 577 122 482 q 471 672 332 672 q 585 656 539 672 q 675 603 632 640 l 686 658 l 763 658 l 624 0 l 560 0 l 568 74 q 448 8 510 29 q 311 -14 386 -14 m 343 49 q 576 138 474 49 l 661 536 q 585 590 626 572 q 481 608 543 608 q 274 531 357 608 q 160 307 190 453 q 147 204 147 249 q 194 85 147 121 q 343 49 240 49 z "},"ặ":{"ha":738,"x_min":72,"x_max":763,"o":"m 485 724 q 392 755 425 724 q 360 839 360 786 q 364 878 360 857 l 419 878 q 415 844 415 860 q 493 778 415 778 q 570 804 538 778 q 613 878 603 831 l 674 878 q 608 766 658 808 q 485 724 558 724 m 311 -14 q 72 199 72 -14 q 85 307 72 247 q 227 577 122 482 q 471 672 332 672 q 585 656 539 672 q 675 603 632 640 l 686 658 l 763 658 l 624 0 l 560 0 l 568 74 q 448 8 510 29 q 311 -14 386 -14 m 343 49 q 576 138 474 49 l 661 536 q 585 590 626 572 q 481 608 543 608 q 274 531 357 608 q 160 307 190 453 q 147 204 147 249 q 194 85 147 121 q 343 49 240 49 m 265 -132 l 347 -132 l 331 -211 l 249 -211 l 265 -132 z "},"ằ":{"ha":738,"x_min":72,"x_max":763,"o":"m 451 1024 l 517 1024 l 564 861 l 508 861 l 451 1024 m 493 725 q 378 757 422 725 q 333 857 333 789 q 339 908 333 882 l 389 908 q 383 864 383 886 q 412 797 383 818 q 499 775 440 775 q 608 808 563 775 q 667 908 653 842 l 724 908 q 640 769 703 814 q 493 725 576 725 m 311 -14 q 72 199 72 -14 q 85 307 72 247 q 227 577 122 482 q 471 672 332 672 q 585 656 539 672 q 675 603 632 640 l 686 658 l 763 658 l 624 0 l 560 0 l 568 74 q 448 8 510 29 q 311 -14 386 -14 m 343 49 q 576 138 474 49 l 661 536 q 585 590 626 572 q 481 608 543 608 q 274 531 357 608 q 160 307 190 453 q 147 204 147 249 q 194 85 147 121 q 343 49 240 49 z "},"ẳ":{"ha":738,"x_min":72,"x_max":763,"o":"m 489 926 q 585 944 558 929 q 618 992 611 960 q 619 1008 619 997 q 556 1050 619 1050 q 471 1032 514 1050 l 481 1078 q 576 1094 526 1094 q 652 1075 625 1094 q 679 1019 679 1056 q 676 996 679 1013 q 636 928 667 951 q 544 896 606 904 l 533 847 l 472 847 l 489 926 m 496 725 q 381 757 425 725 q 336 857 336 789 q 342 908 336 882 l 392 908 q 386 864 386 886 q 415 797 386 818 q 501 775 443 775 q 610 808 565 775 q 669 908 656 842 l 726 908 q 642 769 706 814 q 496 725 579 725 m 311 -14 q 72 199 72 -14 q 85 307 72 247 q 227 577 122 482 q 471 672 332 672 q 585 656 539 672 q 675 603 632 640 l 686 658 l 763 658 l 624 0 l 560 0 l 568 74 q 448 8 510 29 q 311 -14 386 -14 m 343 49 q 576 138 474 49 l 661 536 q 585 590 626 572 q 481 608 543 608 q 274 531 357 608 q 160 307 190 453 q 147 204 147 249 q 194 85 147 121 q 343 49 240 49 z "},"ẵ":{"ha":738,"x_min":72,"x_max":763,"o":"m 633 947 q 546 972 596 947 q 506 989 521 983 q 475 994 492 994 q 415 985 443 994 q 361 950 388 975 l 374 1010 q 424 1038 394 1028 q 483 1047 454 1047 q 526 1041 507 1047 q 568 1022 544 1035 q 608 1006 593 1011 q 643 1000 624 1000 q 701 1010 675 1000 q 753 1046 726 1021 l 739 985 q 693 957 721 967 q 633 947 665 947 m 500 725 q 385 757 429 725 q 340 857 340 789 q 346 908 340 882 l 396 908 q 390 864 390 886 q 419 797 390 818 q 506 775 447 775 q 615 808 569 775 q 674 908 660 842 l 731 908 q 647 769 710 814 q 500 725 583 725 m 311 -14 q 72 199 72 -14 q 85 307 72 247 q 227 577 122 482 q 471 672 332 672 q 585 656 539 672 q 675 603 632 640 l 686 658 l 763 658 l 624 0 l 560 0 l 568 74 q 448 8 510 29 q 311 -14 386 -14 m 343 49 q 576 138 474 49 l 661 536 q 585 590 626 572 q 481 608 543 608 q 274 531 357 608 q 160 307 190 453 q 147 204 147 249 q 194 85 147 121 q 343 49 240 49 z "},"ǎ":{"ha":738,"x_min":72,"x_max":763,"o":"m 343 911 l 408 911 l 488 768 l 628 911 l 700 911 l 514 724 l 447 724 l 343 911 m 311 -14 q 72 199 72 -14 q 85 307 72 247 q 227 577 122 482 q 471 672 332 672 q 585 656 539 672 q 675 603 632 640 l 686 658 l 763 658 l 624 0 l 560 0 l 568 74 q 448 8 510 29 q 311 -14 386 -14 m 343 49 q 576 138 474 49 l 661 536 q 585 590 626 572 q 481 608 543 608 q 274 531 357 608 q 160 307 190 453 q 147 204 147 249 q 194 85 147 121 q 343 49 240 49 z "},"â":{"ha":738,"x_min":72,"x_max":763,"o":"m 490 911 l 557 911 l 663 724 l 596 724 l 517 867 l 376 724 l 306 724 l 490 911 m 311 -14 q 72 199 72 -14 q 85 307 72 247 q 227 577 122 482 q 471 672 332 672 q 585 656 539 672 q 675 603 632 640 l 686 658 l 763 658 l 624 0 l 560 0 l 568 74 q 448 8 510 29 q 311 -14 386 -14 m 343 49 q 576 138 474 49 l 661 536 q 585 590 626 572 q 481 608 543 608 q 274 531 357 608 q 160 307 190 453 q 147 204 147 249 q 194 85 147 121 q 343 49 240 49 z "},"ấ":{"ha":738,"x_min":72,"x_max":797,"o":"m 733 1033 l 797 1033 l 672 871 l 615 871 l 733 1033 m 488 876 l 554 876 l 665 724 l 601 724 l 518 842 l 385 724 l 313 724 l 488 876 m 311 -14 q 72 199 72 -14 q 85 307 72 247 q 227 577 122 482 q 471 672 332 672 q 585 656 539 672 q 675 603 632 640 l 686 658 l 763 658 l 624 0 l 560 0 l 568 74 q 448 8 510 29 q 311 -14 386 -14 m 343 49 q 576 138 474 49 l 661 536 q 585 590 626 572 q 481 608 543 608 q 274 531 357 608 q 160 307 190 453 q 147 204 147 249 q 194 85 147 121 q 343 49 240 49 z "},"ậ":{"ha":738,"x_min":72,"x_max":763,"o":"m 488 911 l 554 911 l 660 724 l 593 724 l 514 867 l 374 724 l 303 724 l 488 911 m 311 -14 q 72 199 72 -14 q 85 307 72 247 q 227 577 122 482 q 471 672 332 672 q 585 656 539 672 q 675 603 632 640 l 686 658 l 763 658 l 624 0 l 560 0 l 568 74 q 448 8 510 29 q 311 -14 386 -14 m 343 49 q 576 138 474 49 l 661 536 q 585 590 626 572 q 481 608 543 608 q 274 531 357 608 q 160 307 190 453 q 147 204 147 249 q 194 85 147 121 q 343 49 240 49 m 260 -132 l 342 -132 l 325 -211 l 243 -211 l 260 -132 z "},"ầ":{"ha":738,"x_min":72,"x_max":763,"o":"m 299 1033 l 364 1033 l 411 871 l 356 871 l 299 1033 m 476 876 l 543 876 l 654 724 l 590 724 l 507 842 l 374 724 l 301 724 l 476 876 m 311 -14 q 72 199 72 -14 q 85 307 72 247 q 227 577 122 482 q 471 672 332 672 q 585 656 539 672 q 675 603 632 640 l 686 658 l 763 658 l 624 0 l 560 0 l 568 74 q 448 8 510 29 q 311 -14 386 -14 m 343 49 q 576 138 474 49 l 661 536 q 585 590 626 572 q 481 608 543 608 q 274 531 357 608 q 160 307 190 453 q 147 204 147 249 q 194 85 147 121 q 343 49 240 49 z "},"ẩ":{"ha":738,"x_min":72,"x_max":818,"o":"m 628 924 q 723 942 697 928 q 756 988 749 957 q 757 1003 757 993 q 694 1044 757 1044 q 610 1026 653 1044 l 619 1074 q 714 1090 665 1090 q 791 1070 764 1090 q 818 1014 818 1050 q 815 990 818 1007 q 774 922 806 946 q 685 892 743 897 l 674 842 l 611 842 l 628 924 m 478 876 l 544 876 l 656 724 l 592 724 l 508 842 l 376 724 l 303 724 l 478 876 m 311 -14 q 72 199 72 -14 q 85 307 72 247 q 227 577 122 482 q 471 672 332 672 q 585 656 539 672 q 675 603 632 640 l 686 658 l 763 658 l 624 0 l 560 0 l 568 74 q 448 8 510 29 q 311 -14 386 -14 m 343 49 q 576 138 474 49 l 661 536 q 585 590 626 572 q 481 608 543 608 q 274 531 357 608 q 160 307 190 453 q 147 204 147 249 q 194 85 147 121 q 343 49 240 49 z "},"ẫ":{"ha":738,"x_min":72,"x_max":763,"o":"m 613 888 q 525 913 575 888 q 454 933 481 933 q 394 924 422 933 q 340 889 367 914 l 354 950 q 403 976 374 967 q 463 986 433 986 q 504 981 486 986 q 547 963 522 975 q 588 946 572 951 q 622 940 603 940 q 680 951 654 940 q 731 985 706 961 l 717 924 q 671 897 699 907 q 613 888 643 888 m 486 876 l 553 876 l 664 724 l 600 724 l 517 842 l 385 724 l 311 724 l 486 876 m 311 -14 q 72 199 72 -14 q 85 307 72 247 q 227 577 122 482 q 471 672 332 672 q 585 656 539 672 q 675 603 632 640 l 686 658 l 763 658 l 624 0 l 560 0 l 568 74 q 448 8 510 29 q 311 -14 386 -14 m 343 49 q 576 138 474 49 l 661 536 q 585 590 626 572 q 481 608 543 608 q 274 531 357 608 q 160 307 190 453 q 147 204 147 249 q 194 85 147 121 q 343 49 240 49 z "},"ä":{"ha":738,"x_min":72,"x_max":763,"o":"m 358 838 l 438 838 l 421 761 l 343 761 l 358 838 m 590 838 l 668 838 l 651 761 l 574 761 l 590 838 m 311 -14 q 72 199 72 -14 q 85 307 72 247 q 227 577 122 482 q 471 672 332 672 q 585 656 539 672 q 675 603 632 640 l 686 658 l 763 658 l 624 0 l 560 0 l 568 74 q 448 8 510 29 q 311 -14 386 -14 m 343 49 q 576 138 474 49 l 661 536 q 585 590 626 572 q 481 608 543 608 q 274 531 357 608 q 160 307 190 453 q 147 204 147 249 q 194 85 147 121 q 343 49 240 49 z "},"ạ":{"ha":738,"x_min":72,"x_max":763,"o":"m 311 -14 q 72 199 72 -14 q 85 307 72 247 q 227 577 122 482 q 471 672 332 672 q 585 656 539 672 q 675 603 632 640 l 686 658 l 763 658 l 624 0 l 560 0 l 568 74 q 448 8 510 29 q 311 -14 386 -14 m 343 49 q 576 138 474 49 l 661 536 q 585 590 626 572 q 481 608 543 608 q 274 531 357 608 q 160 307 190 453 q 147 204 147 249 q 194 85 147 121 q 343 49 240 49 m 263 -132 l 344 -132 l 328 -211 l 246 -211 l 263 -132 z "},"à":{"ha":738,"x_min":72,"x_max":763,"o":"m 415 944 l 488 944 l 533 725 l 471 725 l 415 944 m 311 -14 q 72 199 72 -14 q 85 307 72 247 q 227 577 122 482 q 471 672 332 672 q 585 656 539 672 q 675 603 632 640 l 686 658 l 763 658 l 624 0 l 560 0 l 568 74 q 448 8 510 29 q 311 -14 386 -14 m 343 49 q 576 138 474 49 l 661 536 q 585 590 626 572 q 481 608 543 608 q 274 531 357 608 q 160 307 190 453 q 147 204 147 249 q 194 85 147 121 q 343 49 240 49 z "},"ả":{"ha":738,"x_min":72,"x_max":763,"o":"m 463 828 q 548 840 518 831 q 591 865 578 849 q 610 910 604 881 q 613 929 613 924 q 511 983 613 983 q 461 978 489 983 q 414 967 433 974 l 425 1019 q 478 1031 446 1026 q 536 1036 511 1036 q 639 1013 604 1036 q 674 943 674 989 q 671 914 674 924 q 624 827 658 857 q 519 790 590 797 l 504 718 l 439 718 l 463 828 m 311 -14 q 72 199 72 -14 q 85 307 72 247 q 227 577 122 482 q 471 672 332 672 q 585 656 539 672 q 675 603 632 640 l 686 658 l 763 658 l 624 0 l 560 0 l 568 74 q 448 8 510 29 q 311 -14 386 -14 m 343 49 q 576 138 474 49 l 661 536 q 585 590 626 572 q 481 608 543 608 q 274 531 357 608 q 160 307 190 453 q 147 204 147 249 q 194 85 147 121 q 343 49 240 49 z "},"ɑ":{"ha":738,"x_min":72,"x_max":763,"o":"m 311 -14 q 72 199 72 -14 q 85 307 72 247 q 227 577 122 482 q 471 672 332 672 q 585 656 539 672 q 675 603 632 640 l 686 658 l 763 658 l 624 0 l 560 0 l 568 74 q 448 8 510 29 q 311 -14 386 -14 m 343 49 q 576 138 474 49 l 661 536 q 585 590 626 572 q 481 608 543 608 q 274 531 357 608 q 160 307 190 453 q 147 200 147 244 q 193 84 147 119 q 343 49 239 49 z "},"ā":{"ha":738,"x_min":72,"x_max":763,"o":"m 311 821 l 694 821 l 682 763 l 299 763 l 311 821 m 311 -14 q 72 199 72 -14 q 85 307 72 247 q 227 577 122 482 q 471 672 332 672 q 585 656 539 672 q 675 603 632 640 l 686 658 l 763 658 l 624 0 l 560 0 l 568 74 q 448 8 510 29 q 311 -14 386 -14 m 343 49 q 576 138 474 49 l 661 536 q 585 590 626 572 q 481 608 543 608 q 274 531 357 608 q 160 307 190 453 q 147 204 147 249 q 194 85 147 121 q 343 49 240 49 z "},"ą":{"ha":778,"x_min":72,"x_max":763,"o":"m 518 -306 q 441 -285 469 -306 q 413 -219 413 -264 q 456 -97 413 -158 q 560 0 499 -36 l 568 74 q 448 8 510 29 q 311 -14 386 -14 q 72 199 72 -14 q 85 307 72 247 q 227 577 122 482 q 471 672 332 672 q 585 656 539 672 q 675 603 632 640 l 686 658 l 763 658 l 624 0 q 530 -83 565 -37 q 483 -178 494 -129 q 481 -203 481 -187 q 495 -238 481 -228 q 542 -249 510 -249 q 614 -233 583 -249 l 601 -290 q 518 -306 569 -306 m 343 49 q 576 138 474 49 l 661 536 q 585 590 626 572 q 481 608 543 608 q 274 531 357 608 q 160 307 190 453 q 147 204 147 249 q 194 85 147 121 q 343 49 240 49 z "},"å":{"ha":738,"x_min":72,"x_max":763,"o":"m 492 724 q 408 755 439 724 q 376 833 376 786 q 379 864 376 853 q 439 965 392 925 q 551 1006 486 1006 q 635 975 604 1006 q 667 896 667 944 q 664 864 667 875 q 604 764 651 804 q 492 724 557 724 m 501 774 q 582 808 549 774 q 615 889 615 842 q 597 938 615 919 q 540 956 578 956 q 460 922 494 956 q 426 840 426 888 q 445 792 426 810 q 501 774 464 774 m 311 -14 q 72 199 72 -14 q 85 307 72 247 q 227 577 122 482 q 471 672 332 672 q 585 656 539 672 q 675 603 632 640 l 686 658 l 763 658 l 624 0 l 560 0 l 568 74 q 448 8 510 29 q 311 -14 386 -14 m 343 49 q 576 138 474 49 l 661 536 q 585 590 626 572 q 481 608 543 608 q 274 531 357 608 q 160 307 190 453 q 147 204 147 249 q 194 85 147 121 q 343 49 240 49 z "},"ǻ":{"ha":738,"x_min":72,"x_max":768,"o":"m 696 1260 l 768 1260 l 618 1085 l 556 1085 l 696 1260 m 482 722 q 398 753 429 722 q 367 832 367 785 q 369 863 367 851 q 429 964 382 924 q 542 1004 476 1004 q 626 974 594 1004 q 657 894 657 943 q 654 863 657 874 q 594 763 642 803 q 482 722 547 722 m 492 772 q 572 806 539 772 q 606 888 606 840 q 587 936 606 918 q 531 954 568 954 q 451 920 485 954 q 417 839 417 886 q 435 790 417 808 q 492 772 454 772 m 311 -14 q 72 199 72 -14 q 85 307 72 247 q 227 577 122 482 q 471 672 332 672 q 585 656 539 672 q 675 603 632 640 l 686 658 l 763 658 l 624 0 l 560 0 l 568 74 q 448 8 510 29 q 311 -14 386 -14 m 343 49 q 576 138 474 49 l 661 536 q 585 590 626 572 q 481 608 543 608 q 274 531 357 608 q 160 307 190 453 q 147 204 147 249 q 194 85 147 121 q 343 49 240 49 z "},"ã":{"ha":738,"x_min":72,"x_max":763,"o":"m 590 760 q 544 767 567 760 q 494 788 522 774 q 452 805 469 799 q 417 811 435 811 q 297 763 346 811 l 311 828 q 363 857 331 846 q 428 868 396 868 q 472 862 453 868 q 519 842 492 856 q 562 823 544 829 q 600 817 579 817 q 711 865 667 817 l 697 800 q 652 770 681 781 q 590 760 624 760 m 311 -14 q 72 199 72 -14 q 85 307 72 247 q 227 577 122 482 q 471 672 332 672 q 585 656 539 672 q 675 603 632 640 l 686 658 l 763 658 l 624 0 l 560 0 l 568 74 q 448 8 510 29 q 311 -14 386 -14 m 343 49 q 576 138 474 49 l 661 536 q 585 590 626 572 q 481 608 543 608 q 274 531 357 608 q 160 307 190 453 q 147 204 147 249 q 194 85 147 121 q 343 49 240 49 z "},"æ":{"ha":1221,"x_min":51,"x_max":1183,"o":"m 246 -14 q 105 22 158 -14 q 51 131 51 58 q 57 175 51 142 q 343 372 99 372 l 589 372 l 599 418 q 607 482 607 454 q 567 576 607 544 q 436 607 526 607 q 217 571 325 607 l 231 636 q 461 672 331 672 q 669 546 649 672 q 954 672 765 672 q 1126 619 1068 672 q 1183 478 1183 567 q 1175 408 1183 444 l 1150 289 l 649 289 q 640 204 640 242 q 694 84 640 119 q 876 49 747 49 q 1063 83 967 49 l 1050 21 q 849 -14 954 -14 q 667 21 732 -14 q 581 131 601 56 q 443 25 528 64 q 246 -14 358 -14 m 1092 349 l 1104 411 q 1113 481 1113 449 q 1073 576 1113 543 q 943 608 1033 608 q 753 547 817 608 q 661 349 690 485 l 1092 349 m 279 50 q 550 189 472 50 l 576 311 l 333 311 q 193 278 239 311 q 132 175 147 244 q 128 143 128 158 q 279 50 128 50 z "},"ǽ":{"ha":1221,"x_min":51,"x_max":1183,"o":"m 811 944 l 883 944 l 733 725 l 671 725 l 811 944 m 246 -14 q 105 22 158 -14 q 51 131 51 58 q 57 175 51 142 q 343 372 99 372 l 589 372 l 599 418 q 607 482 607 454 q 567 576 607 544 q 436 607 526 607 q 217 571 325 607 l 231 636 q 461 672 331 672 q 669 546 649 672 q 954 672 765 672 q 1126 619 1068 672 q 1183 478 1183 567 q 1175 408 1183 444 l 1150 289 l 649 289 q 640 204 640 242 q 694 84 640 119 q 876 49 747 49 q 1063 83 967 49 l 1050 21 q 849 -14 954 -14 q 667 21 732 -14 q 581 131 601 56 q 443 25 528 64 q 246 -14 358 -14 m 1092 349 l 1104 411 q 1113 481 1113 449 q 1073 576 1113 543 q 943 608 1033 608 q 753 547 817 608 q 661 349 690 485 l 1092 349 m 279 50 q 550 189 472 50 l 576 311 l 333 311 q 193 278 239 311 q 132 175 147 244 q 128 143 128 158 q 279 50 128 50 z "},"b":{"ha":783,"x_min":49,"x_max":735,"o":"m 353 -14 q 226 7 278 -14 q 135 74 174 28 l 113 0 l 49 0 l 247 936 l 324 936 l 253 603 q 499 672 363 672 q 674 617 613 672 q 735 449 735 563 q 722 335 735 397 q 592 72 685 157 q 353 -14 500 -14 m 349 49 q 545 119 474 49 q 647 335 617 190 q 661 444 661 404 q 614 569 661 531 q 465 608 567 608 q 239 536 339 608 l 154 138 q 349 49 217 49 z "},"c":{"ha":671,"x_min":78,"x_max":672,"o":"m 343 -14 q 144 47 211 -14 q 78 221 78 107 q 90 329 78 271 q 234 585 126 499 q 500 672 342 672 q 597 664 560 672 q 672 636 635 656 l 658 574 q 500 608 593 608 q 282 540 368 608 q 165 329 196 471 q 151 219 151 260 q 204 90 151 131 q 375 49 257 49 q 556 85 465 49 l 543 21 q 343 -14 451 -14 z "},"ć":{"ha":671,"x_min":78,"x_max":672,"o":"m 576 944 l 649 944 l 499 725 l 436 725 l 576 944 m 343 -14 q 144 47 211 -14 q 78 221 78 107 q 90 329 78 271 q 234 585 126 499 q 500 672 342 672 q 597 664 560 672 q 672 636 635 656 l 658 574 q 500 608 593 608 q 282 540 368 608 q 165 329 196 471 q 151 219 151 260 q 204 90 151 131 q 375 49 257 49 q 556 85 465 49 l 543 21 q 343 -14 451 -14 z "},"č":{"ha":671,"x_min":78,"x_max":696,"o":"m 339 911 l 404 911 l 483 768 l 624 911 l 696 911 l 510 724 l 443 724 l 339 911 m 343 -14 q 144 47 211 -14 q 78 221 78 107 q 90 329 78 271 q 234 585 126 499 q 500 672 342 672 q 597 664 560 672 q 672 636 635 656 l 658 574 q 500 608 593 608 q 282 540 368 608 q 165 329 196 471 q 151 219 151 260 q 204 90 151 131 q 375 49 257 49 q 556 85 465 49 l 543 21 q 343 -14 451 -14 z "},"ç":{"ha":671,"x_min":78,"x_max":672,"o":"m 500 608 q 282 540 368 608 q 165 329 196 471 q 151 219 151 260 q 204 90 151 131 q 375 49 257 49 q 556 85 465 49 l 543 21 q 349 -14 454 -14 l 318 -71 q 451 -162 451 -71 q 449 -193 451 -182 q 226 -333 418 -333 q 179 -330 206 -333 q 138 -322 153 -326 l 149 -271 q 233 -282 186 -282 q 342 -262 306 -282 q 389 -193 379 -242 q 392 -172 392 -179 q 365 -129 392 -142 q 279 -117 338 -117 l 233 -117 l 290 -11 q 131 59 183 0 q 78 221 78 118 q 90 329 78 271 q 234 585 126 499 q 500 672 342 672 q 597 664 560 672 q 672 636 635 656 l 658 574 q 500 608 593 608 z "},"ĉ":{"ha":671,"x_min":78,"x_max":672,"o":"m 486 911 l 553 911 l 658 724 l 592 724 l 513 867 l 372 724 l 301 724 l 486 911 m 343 -14 q 144 47 211 -14 q 78 221 78 107 q 90 329 78 271 q 234 585 126 499 q 500 672 342 672 q 597 664 560 672 q 672 636 635 656 l 658 574 q 500 608 593 608 q 282 540 368 608 q 165 329 196 471 q 151 219 151 260 q 204 90 151 131 q 375 49 257 49 q 556 85 465 49 l 543 21 q 343 -14 451 -14 z "},"ċ":{"ha":671,"x_min":78,"x_max":672,"o":"m 474 839 l 553 839 l 536 761 l 457 761 l 474 839 m 343 -14 q 144 47 211 -14 q 78 221 78 107 q 90 329 78 271 q 234 585 126 499 q 500 672 342 672 q 597 664 560 672 q 672 636 635 656 l 658 574 q 500 608 593 608 q 282 540 368 608 q 165 329 196 471 q 151 219 151 260 q 204 90 151 131 q 375 49 257 49 q 556 85 465 49 l 543 21 q 343 -14 451 -14 z "},"d":{"ha":783,"x_min":75,"x_max":822,"o":"m 311 -14 q 138 42 201 -14 q 75 211 75 97 q 89 324 75 254 q 224 585 126 499 q 464 672 321 672 q 583 656 532 672 q 675 603 633 640 l 746 936 l 822 936 l 624 0 l 560 0 l 568 74 q 448 8 510 29 q 311 -14 386 -14 m 343 49 q 576 138 474 49 l 661 536 q 582 590 626 572 q 472 608 538 608 q 274 538 353 608 q 164 324 194 468 q 150 214 150 254 q 197 89 150 129 q 343 49 243 49 z "},"ð":{"ha":792,"x_min":69,"x_max":882,"o":"m 329 -14 q 135 41 200 -14 q 69 194 69 96 q 78 271 69 229 q 442 556 138 556 q 563 534 501 556 q 674 471 625 513 l 689 549 q 707 690 707 636 q 696 761 707 728 l 483 676 l 494 731 l 672 801 q 518 849 628 849 q 317 819 407 849 l 329 881 q 539 908 431 908 q 735 826 675 908 l 882 886 l 871 832 l 757 786 q 776 669 776 739 q 763 543 776 608 l 715 321 q 583 66 678 146 q 329 -14 489 -14 m 343 46 q 635 289 583 46 l 660 411 q 558 472 617 449 q 440 496 500 496 q 240 438 310 496 q 147 271 171 379 q 139 203 139 233 q 343 46 139 46 z "},"ď":{"ha":951,"x_min":75,"x_max":1069,"o":"m 999 983 l 1069 983 l 918 760 l 857 760 l 999 983 m 311 -14 q 138 41 200 -14 q 75 210 75 96 q 89 324 75 263 q 224 585 126 499 q 464 672 321 672 q 583 656 532 672 q 675 603 633 640 l 746 936 l 822 936 l 624 0 l 560 0 l 568 74 q 448 8 510 29 q 311 -14 386 -14 m 343 49 q 576 138 474 49 l 661 536 q 582 590 626 572 q 472 608 538 608 q 272 539 349 608 q 164 324 194 469 q 151 221 151 268 q 343 49 151 49 z "},"đ":{"ha":796,"x_min":75,"x_max":882,"o":"m 311 -14 q 138 42 201 -14 q 75 211 75 97 q 89 324 75 254 q 224 585 126 499 q 464 672 321 672 q 583 656 532 672 q 675 603 633 640 l 711 772 l 467 772 l 479 835 l 724 835 l 746 936 l 822 936 l 800 835 l 882 835 l 869 772 l 788 772 l 624 0 l 560 0 l 568 74 q 448 8 510 29 q 311 -14 386 -14 m 343 49 q 576 138 474 49 l 661 536 q 582 590 626 572 q 472 608 538 608 q 274 538 353 608 q 164 324 194 468 q 150 214 150 254 q 197 89 150 129 q 343 49 243 49 z "},"ḍ":{"ha":783,"x_min":75,"x_max":822,"o":"m 311 -14 q 138 42 201 -14 q 75 211 75 97 q 89 324 75 254 q 224 585 126 499 q 464 672 321 672 q 583 656 532 672 q 675 603 633 640 l 746 936 l 822 936 l 624 0 l 560 0 l 568 74 q 448 8 510 29 q 311 -14 386 -14 m 343 49 q 576 138 474 49 l 661 536 q 582 590 626 572 q 472 608 538 608 q 274 538 353 608 q 164 324 194 468 q 150 214 150 254 q 197 89 150 129 q 343 49 243 49 m 296 -132 l 378 -132 l 361 -211 l 279 -211 l 296 -132 z "},"ḏ":{"ha":783,"x_min":75,"x_max":822,"o":"m 311 -14 q 138 42 201 -14 q 75 211 75 97 q 89 324 75 254 q 224 585 126 499 q 464 672 321 672 q 583 656 532 672 q 675 603 633 640 l 746 936 l 822 936 l 624 0 l 560 0 l 568 74 q 448 8 510 29 q 311 -14 386 -14 m 343 49 q 576 138 474 49 l 661 536 q 582 590 626 572 q 472 608 538 608 q 274 538 353 608 q 164 324 194 468 q 150 214 150 254 q 197 89 150 129 q 343 49 243 49 m 133 -112 l 517 -112 l 504 -171 l 121 -171 l 133 -112 z "},"e":{"ha":729,"x_min":76,"x_max":692,"o":"m 357 -14 q 144 41 213 -14 q 76 210 76 96 q 92 333 76 261 q 467 672 163 672 q 636 620 581 672 q 692 481 692 568 q 683 408 692 446 l 658 289 l 158 289 q 150 206 150 243 q 204 85 150 121 q 386 49 258 49 q 571 83 478 49 l 558 21 q 357 -14 465 -14 m 601 349 l 614 411 q 622 482 622 449 q 583 576 622 544 q 456 608 544 608 q 265 544 331 608 q 171 349 199 479 l 601 349 z "},"é":{"ha":729,"x_min":76,"x_max":692,"o":"m 571 944 l 643 944 l 493 725 l 431 725 l 571 944 m 357 -14 q 144 41 213 -14 q 76 210 76 96 q 92 333 76 261 q 467 672 163 672 q 636 620 581 672 q 692 481 692 568 q 683 408 692 446 l 658 289 l 158 289 q 150 206 150 243 q 204 85 150 121 q 386 49 258 49 q 571 83 478 49 l 558 21 q 357 -14 465 -14 m 601 349 l 614 411 q 622 482 622 449 q 583 576 622 544 q 456 608 544 608 q 265 544 331 608 q 171 349 199 479 l 601 349 z "},"ĕ":{"ha":729,"x_min":76,"x_max":692,"o":"m 475 724 q 383 755 415 724 q 350 839 350 786 q 354 878 350 857 l 410 878 q 406 844 406 860 q 483 778 406 778 q 560 804 528 778 q 603 878 593 831 l 664 878 q 599 766 649 808 q 475 724 549 724 m 357 -14 q 144 41 213 -14 q 76 210 76 96 q 92 333 76 261 q 467 672 163 672 q 636 620 581 672 q 692 481 692 568 q 683 408 692 446 l 658 289 l 158 289 q 150 206 150 243 q 204 85 150 121 q 386 49 258 49 q 571 83 478 49 l 558 21 q 357 -14 465 -14 m 601 349 l 614 411 q 622 482 622 449 q 583 576 622 544 q 456 608 544 608 q 265 544 331 608 q 171 349 199 479 l 601 349 z "},"ě":{"ha":729,"x_min":76,"x_max":703,"o":"m 346 911 l 411 911 l 490 768 l 631 911 l 703 911 l 517 724 l 450 724 l 346 911 m 357 -14 q 144 41 213 -14 q 76 210 76 96 q 92 333 76 261 q 467 672 163 672 q 636 620 581 672 q 692 481 692 568 q 683 408 692 446 l 658 289 l 158 289 q 150 206 150 243 q 204 85 150 121 q 386 49 258 49 q 571 83 478 49 l 558 21 q 357 -14 465 -14 m 601 349 l 614 411 q 622 482 622 449 q 583 576 622 544 q 456 608 544 608 q 265 544 331 608 q 171 349 199 479 l 601 349 z "},"ê":{"ha":729,"x_min":76,"x_max":692,"o":"m 476 911 l 543 911 l 649 724 l 582 724 l 503 867 l 363 724 l 292 724 l 476 911 m 357 -14 q 144 41 213 -14 q 76 210 76 96 q 92 333 76 261 q 467 672 163 672 q 636 620 581 672 q 692 481 692 568 q 683 408 692 446 l 658 289 l 158 289 q 150 206 150 243 q 204 85 150 121 q 386 49 258 49 q 571 83 478 49 l 558 21 q 357 -14 465 -14 m 601 349 l 614 411 q 622 482 622 449 q 583 576 622 544 q 456 608 544 608 q 265 544 331 608 q 171 349 199 479 l 601 349 z "},"ế":{"ha":729,"x_min":76,"x_max":783,"o":"m 719 1033 l 783 1033 l 658 871 l 601 871 l 719 1033 m 474 876 l 540 876 l 651 724 l 588 724 l 504 842 l 371 724 l 299 724 l 474 876 m 357 -14 q 144 41 213 -14 q 76 210 76 96 q 92 333 76 261 q 467 672 163 672 q 636 620 581 672 q 692 481 692 568 q 683 408 692 446 l 658 289 l 158 289 q 150 206 150 243 q 204 85 150 121 q 386 49 258 49 q 571 83 478 49 l 558 21 q 357 -14 465 -14 m 601 349 l 614 411 q 622 482 622 449 q 583 576 622 544 q 456 608 544 608 q 265 544 331 608 q 171 349 199 479 l 601 349 z "},"ệ":{"ha":729,"x_min":76,"x_max":692,"o":"m 485 911 l 551 911 l 657 724 l 590 724 l 511 867 l 371 724 l 300 724 l 485 911 m 357 -14 q 144 41 213 -14 q 76 210 76 96 q 92 333 76 261 q 467 672 163 672 q 636 620 581 672 q 692 481 692 568 q 683 408 692 446 l 658 289 l 158 289 q 150 206 150 243 q 204 85 150 121 q 386 49 258 49 q 571 83 478 49 l 558 21 q 357 -14 465 -14 m 601 349 l 614 411 q 622 482 622 449 q 583 576 622 544 q 456 608 544 608 q 265 544 331 608 q 171 349 199 479 l 601 349 m 257 -132 l 339 -132 l 322 -211 l 240 -211 l 257 -132 z "},"ề":{"ha":729,"x_min":76,"x_max":692,"o":"m 317 1057 l 382 1057 l 429 894 l 374 894 l 317 1057 m 494 900 l 561 900 l 672 747 l 608 747 l 525 865 l 392 747 l 319 747 l 494 900 m 357 -14 q 144 41 213 -14 q 76 210 76 96 q 92 333 76 261 q 467 672 163 672 q 636 620 581 672 q 692 481 692 568 q 683 408 692 446 l 658 289 l 158 289 q 150 206 150 243 q 204 85 150 121 q 386 49 258 49 q 571 83 478 49 l 558 21 q 357 -14 465 -14 m 601 349 l 614 411 q 622 482 622 449 q 583 576 622 544 q 456 608 544 608 q 265 544 331 608 q 171 349 199 479 l 601 349 z "},"ể":{"ha":738,"x_min":76,"x_max":811,"o":"m 621 924 q 716 942 690 928 q 749 988 742 957 q 750 1003 750 993 q 688 1044 750 1044 q 603 1026 646 1044 l 613 1074 q 707 1090 658 1090 q 784 1070 757 1090 q 811 1014 811 1050 q 808 990 811 1007 q 767 922 799 946 q 678 892 736 897 l 667 842 l 604 842 l 621 924 m 471 876 l 538 876 l 649 724 l 585 724 l 501 842 l 369 724 l 296 724 l 471 876 m 357 -14 q 144 41 213 -14 q 76 210 76 96 q 92 333 76 261 q 467 672 163 672 q 636 620 581 672 q 692 481 692 568 q 683 408 692 446 l 658 289 l 158 289 q 150 206 150 243 q 204 85 150 121 q 386 49 258 49 q 571 83 478 49 l 558 21 q 357 -14 465 -14 m 601 349 l 614 411 q 622 482 622 449 q 583 576 622 544 q 456 608 544 608 q 265 544 331 608 q 171 349 199 479 l 601 349 z "},"ễ":{"ha":729,"x_min":76,"x_max":722,"o":"m 604 888 q 517 913 567 888 q 446 933 472 933 q 386 924 414 933 q 332 889 358 914 l 346 950 q 395 976 365 967 q 454 986 425 986 q 496 981 478 986 q 539 963 514 975 q 579 946 564 951 q 614 940 594 940 q 672 951 646 940 q 722 985 697 961 l 708 924 q 663 897 690 907 q 604 888 635 888 m 478 876 l 544 876 l 656 724 l 592 724 l 508 842 l 376 724 l 303 724 l 478 876 m 357 -14 q 144 41 213 -14 q 76 210 76 96 q 92 333 76 261 q 467 672 163 672 q 636 620 581 672 q 692 481 692 568 q 683 408 692 446 l 658 289 l 158 289 q 150 206 150 243 q 204 85 150 121 q 386 49 258 49 q 571 83 478 49 l 558 21 q 357 -14 465 -14 m 601 349 l 614 411 q 622 482 622 449 q 583 576 622 544 q 456 608 544 608 q 265 544 331 608 q 171 349 199 479 l 601 349 z "},"ë":{"ha":729,"x_min":76,"x_max":692,"o":"m 336 838 l 415 838 l 399 761 l 321 761 l 336 838 m 568 838 l 646 838 l 629 761 l 551 761 l 568 838 m 357 -14 q 144 41 213 -14 q 76 210 76 96 q 92 333 76 261 q 467 672 163 672 q 636 620 581 672 q 692 481 692 568 q 683 408 692 446 l 658 289 l 158 289 q 150 206 150 243 q 204 85 150 121 q 386 49 258 49 q 571 83 478 49 l 558 21 q 357 -14 465 -14 m 601 349 l 614 411 q 622 482 622 449 q 583 576 622 544 q 456 608 544 608 q 265 544 331 608 q 171 349 199 479 l 601 349 z "},"ė":{"ha":729,"x_min":76,"x_max":692,"o":"m 457 839 l 536 839 l 519 761 l 440 761 l 457 839 m 357 -14 q 144 41 213 -14 q 76 210 76 96 q 92 333 76 261 q 467 672 163 672 q 636 620 581 672 q 692 481 692 568 q 683 408 692 446 l 658 289 l 158 289 q 150 206 150 243 q 204 85 150 121 q 386 49 258 49 q 571 83 478 49 l 558 21 q 357 -14 465 -14 m 601 349 l 614 411 q 622 482 622 449 q 583 576 622 544 q 456 608 544 608 q 265 544 331 608 q 171 349 199 479 l 601 349 z "},"ẹ":{"ha":729,"x_min":76,"x_max":692,"o":"m 357 -14 q 144 41 213 -14 q 76 210 76 96 q 92 333 76 261 q 467 672 163 672 q 636 620 581 672 q 692 481 692 568 q 683 408 692 446 l 658 289 l 158 289 q 150 206 150 243 q 204 85 150 121 q 386 49 258 49 q 571 83 478 49 l 558 21 q 357 -14 465 -14 m 601 349 l 614 411 q 622 482 622 449 q 583 576 622 544 q 456 608 544 608 q 265 544 331 608 q 171 349 199 479 l 601 349 m 249 -132 l 331 -132 l 314 -211 l 232 -211 l 249 -132 z "},"è":{"ha":729,"x_min":76,"x_max":692,"o":"m 386 944 l 458 944 l 504 725 l 442 725 l 386 944 m 357 -14 q 144 41 213 -14 q 76 210 76 96 q 92 333 76 261 q 467 672 163 672 q 636 620 581 672 q 692 481 692 568 q 683 408 692 446 l 658 289 l 158 289 q 150 206 150 243 q 204 85 150 121 q 386 49 258 49 q 571 83 478 49 l 558 21 q 357 -14 465 -14 m 601 349 l 614 411 q 622 482 622 449 q 583 576 622 544 q 456 608 544 608 q 265 544 331 608 q 171 349 199 479 l 601 349 z "},"ẻ":{"ha":729,"x_min":76,"x_max":692,"o":"m 468 835 q 553 847 524 838 q 597 872 583 856 q 615 917 610 888 q 618 936 618 931 q 517 990 618 990 q 467 985 494 990 q 419 974 439 981 l 431 1026 q 484 1038 451 1033 q 542 1043 517 1043 q 644 1019 610 1043 q 679 950 679 996 q 676 921 679 931 q 630 834 664 864 q 525 797 596 804 l 510 725 l 444 725 l 468 835 m 357 -14 q 144 41 213 -14 q 76 210 76 96 q 92 333 76 261 q 467 672 163 672 q 636 620 581 672 q 692 481 692 568 q 683 408 692 446 l 658 289 l 158 289 q 150 206 150 243 q 204 85 150 121 q 386 49 258 49 q 571 83 478 49 l 558 21 q 357 -14 465 -14 m 601 349 l 614 411 q 622 482 622 449 q 583 576 622 544 q 456 608 544 608 q 265 544 331 608 q 171 349 199 479 l 601 349 z "},"ē":{"ha":729,"x_min":76,"x_max":708,"o":"m 325 826 l 708 826 l 696 768 l 313 768 l 325 826 m 357 -14 q 144 41 213 -14 q 76 210 76 96 q 92 333 76 261 q 467 672 163 672 q 636 620 581 672 q 692 481 692 568 q 683 408 692 446 l 658 289 l 158 289 q 150 206 150 243 q 204 85 150 121 q 386 49 258 49 q 571 83 478 49 l 558 21 q 357 -14 465 -14 m 601 349 l 614 411 q 622 482 622 449 q 583 576 622 544 q 456 608 544 608 q 265 544 331 608 q 171 349 199 479 l 601 349 z "},"ę":{"ha":729,"x_min":76,"x_max":692,"o":"m 381 -306 q 303 -285 332 -306 q 275 -219 275 -264 q 312 -107 275 -162 q 403 -12 349 -51 q 357 -14 388 -14 q 144 41 213 -14 q 76 210 76 96 q 92 333 76 261 q 467 672 163 672 q 636 620 581 672 q 692 481 692 568 q 683 408 692 446 l 658 289 l 158 289 q 150 206 150 243 q 204 85 150 121 q 386 49 258 49 q 571 83 478 49 l 558 21 q 486 0 522 8 q 392 -83 428 -37 q 346 -178 357 -129 q 343 -203 343 -187 q 358 -238 343 -228 q 404 -249 372 -249 q 476 -233 446 -249 l 464 -290 q 381 -306 432 -306 m 601 349 l 614 411 q 622 482 622 449 q 583 576 622 544 q 456 608 544 608 q 265 544 331 608 q 171 349 199 479 l 601 349 z "},"ẽ":{"ha":729,"x_min":76,"x_max":699,"o":"m 578 760 q 532 767 554 760 q 482 788 510 774 q 440 805 457 799 q 404 811 422 811 q 285 763 333 811 l 299 828 q 351 857 318 846 q 415 868 383 868 q 460 862 440 868 q 507 842 479 856 q 549 823 532 829 q 588 817 567 817 q 699 865 654 817 l 685 800 q 640 770 668 781 q 578 760 611 760 m 357 -14 q 144 41 213 -14 q 76 210 76 96 q 92 333 76 261 q 467 672 163 672 q 636 620 581 672 q 692 481 692 568 q 683 408 692 446 l 658 289 l 158 289 q 150 206 150 243 q 204 85 150 121 q 386 49 258 49 q 571 83 478 49 l 558 21 q 357 -14 465 -14 m 601 349 l 614 411 q 622 482 622 449 q 583 576 622 544 q 456 608 544 608 q 265 544 331 608 q 171 349 199 479 l 601 349 z "},"f":{"ha":471,"x_min":94,"x_max":593,"o":"m 219 594 l 118 594 l 132 658 l 233 658 l 257 769 q 336 910 276 863 q 490 958 396 958 q 593 940 550 958 l 581 879 q 496 894 542 894 q 385 866 421 894 q 333 771 349 838 l 310 658 l 493 658 l 475 594 l 296 594 l 171 0 l 94 0 l 219 594 z "},"g":{"ha":753,"x_min":78,"x_max":763,"o":"m 278 -244 q 193 -240 240 -244 q 122 -231 146 -236 l 136 -164 q 203 -176 163 -172 q 278 -181 244 -181 q 456 -137 386 -181 q 544 -11 526 -94 l 561 68 q 449 16 506 32 q 321 0 392 0 q 142 53 206 0 q 78 218 78 106 q 90 328 78 265 q 220 588 126 504 q 457 672 314 672 q 585 651 532 672 q 676 583 638 629 l 699 658 l 763 658 l 622 -4 q 508 -180 599 -115 q 278 -244 417 -244 m 353 63 q 575 136 476 63 l 657 519 q 463 608 592 608 q 266 540 338 608 q 165 328 194 471 q 151 221 151 258 q 199 99 151 136 q 353 63 247 63 z "},"ğ":{"ha":753,"x_min":78,"x_max":763,"o":"m 476 724 q 384 755 417 724 q 351 839 351 786 q 356 878 351 857 l 411 878 q 407 844 407 860 q 485 778 407 778 q 562 804 529 778 q 604 878 594 831 l 665 878 q 600 766 650 808 q 476 724 550 724 m 278 -244 q 193 -240 240 -244 q 122 -231 146 -236 l 136 -164 q 203 -176 163 -172 q 278 -181 244 -181 q 456 -137 386 -181 q 544 -11 526 -94 l 561 68 q 449 16 506 32 q 321 0 392 0 q 142 53 206 0 q 78 218 78 106 q 90 328 78 265 q 220 588 126 504 q 457 672 314 672 q 585 651 532 672 q 676 583 638 629 l 699 658 l 763 658 l 622 -4 q 508 -180 599 -115 q 278 -244 417 -244 m 353 63 q 575 136 476 63 l 657 519 q 463 608 592 608 q 266 540 338 608 q 165 328 194 471 q 151 221 151 258 q 199 99 151 136 q 353 63 247 63 z "},"ǧ":{"ha":753,"x_min":78,"x_max":763,"o":"m 356 911 l 421 911 l 500 768 l 640 911 l 713 911 l 526 724 l 460 724 l 356 911 m 278 -244 q 193 -240 240 -244 q 122 -231 146 -236 l 136 -164 q 203 -176 163 -172 q 278 -181 244 -181 q 456 -137 386 -181 q 544 -11 526 -94 l 561 68 q 449 16 506 32 q 321 0 392 0 q 142 53 206 0 q 78 218 78 106 q 90 328 78 265 q 220 588 126 504 q 457 672 314 672 q 585 651 532 672 q 676 583 638 629 l 699 658 l 763 658 l 622 -4 q 508 -180 599 -115 q 278 -244 417 -244 m 353 63 q 575 136 476 63 l 657 519 q 463 608 592 608 q 266 540 338 608 q 165 328 194 471 q 151 221 151 258 q 199 99 151 136 q 353 63 247 63 z "},"ĝ":{"ha":753,"x_min":78,"x_max":763,"o":"m 476 911 l 543 911 l 649 724 l 582 724 l 503 867 l 363 724 l 292 724 l 476 911 m 278 -244 q 193 -240 240 -244 q 122 -231 146 -236 l 136 -164 q 203 -176 163 -172 q 278 -181 244 -181 q 456 -137 386 -181 q 544 -11 526 -94 l 561 68 q 449 16 506 32 q 321 0 392 0 q 142 53 206 0 q 78 218 78 106 q 90 328 78 265 q 220 588 126 504 q 457 672 314 672 q 585 651 532 672 q 676 583 638 629 l 699 658 l 763 658 l 622 -4 q 508 -180 599 -115 q 278 -244 417 -244 m 353 63 q 575 136 476 63 l 657 519 q 463 608 592 608 q 266 540 338 608 q 165 328 194 471 q 151 221 151 258 q 199 99 151 136 q 353 63 247 63 z "},"ģ":{"ha":753,"x_min":78,"x_max":763,"o":"m 511 954 l 568 954 l 483 725 l 410 725 l 511 954 m 278 -244 q 193 -240 240 -244 q 122 -231 146 -236 l 136 -164 q 203 -176 163 -172 q 278 -181 244 -181 q 456 -137 386 -181 q 544 -11 526 -94 l 561 68 q 449 16 506 32 q 321 0 392 0 q 142 53 206 0 q 78 218 78 106 q 90 328 78 265 q 220 588 126 504 q 457 672 314 672 q 585 651 532 672 q 676 583 638 629 l 699 658 l 763 658 l 622 -4 q 508 -180 599 -115 q 278 -244 417 -244 m 353 63 q 575 136 476 63 l 657 519 q 463 608 592 608 q 266 540 338 608 q 165 328 194 471 q 151 221 151 258 q 199 99 151 136 q 353 63 247 63 z "},"ġ":{"ha":753,"x_min":78,"x_max":763,"o":"m 454 835 l 533 835 l 517 757 l 438 757 l 454 835 m 278 -244 q 193 -240 240 -244 q 122 -231 146 -236 l 136 -164 q 203 -176 163 -172 q 278 -181 244 -181 q 456 -137 386 -181 q 544 -11 526 -94 l 561 68 q 449 16 506 32 q 321 0 392 0 q 142 53 206 0 q 78 218 78 106 q 90 328 78 265 q 220 588 126 504 q 457 672 314 672 q 585 651 532 672 q 676 583 638 629 l 699 658 l 763 658 l 622 -4 q 508 -180 599 -115 q 278 -244 417 -244 m 353 63 q 575 136 476 63 l 657 519 q 463 608 592 608 q 266 540 338 608 q 165 328 194 471 q 151 221 151 258 q 199 99 151 136 q 353 63 247 63 z "},"ḡ":{"ha":753,"x_min":78,"x_max":763,"o":"m 318 824 l 701 824 l 689 765 l 306 765 l 318 824 m 278 -244 q 193 -240 240 -244 q 122 -231 146 -236 l 136 -164 q 203 -176 163 -172 q 278 -181 244 -181 q 456 -137 386 -181 q 544 -11 526 -94 l 561 68 q 449 16 506 32 q 321 0 392 0 q 142 53 206 0 q 78 218 78 106 q 90 328 78 265 q 220 588 126 504 q 457 672 314 672 q 585 651 532 672 q 676 583 638 629 l 699 658 l 763 658 l 622 -4 q 508 -180 599 -115 q 278 -244 417 -244 m 353 63 q 575 136 476 63 l 657 519 q 463 608 592 608 q 266 540 338 608 q 165 328 194 471 q 151 221 151 258 q 199 99 151 136 q 353 63 247 63 z "},"h":{"ha":776,"x_min":49,"x_max":724,"o":"m 247 936 l 324 936 l 247 579 q 378 648 310 624 q 531 672 447 672 q 724 511 724 672 q 715 435 724 476 l 624 0 l 547 0 l 639 433 q 647 504 647 474 q 611 584 647 560 q 489 608 575 608 q 356 582 424 608 q 233 511 288 556 l 125 0 l 49 0 l 247 936 z "},"ħ":{"ha":807,"x_min":79,"x_max":754,"o":"m 240 761 l 154 761 l 168 824 l 254 824 l 278 936 l 354 936 l 329 824 l 574 824 l 560 761 l 317 761 l 278 579 q 409 648 340 624 q 561 672 478 672 q 754 511 754 672 q 746 435 754 476 l 654 0 l 578 0 l 669 433 q 678 504 678 474 q 642 584 678 560 q 519 608 606 608 q 386 582 454 608 q 264 511 318 556 l 156 0 l 79 0 l 240 761 z "},"ḫ":{"ha":776,"x_min":49,"x_max":724,"o":"m 247 936 l 324 936 l 247 579 q 378 648 310 624 q 531 672 447 672 q 724 511 724 672 q 715 435 724 476 l 624 0 l 547 0 l 639 433 q 647 504 647 474 q 611 584 647 560 q 489 608 575 608 q 356 582 424 608 q 233 511 288 556 l 125 0 l 49 0 l 247 936 m 286 -257 q 172 -224 214 -257 q 131 -125 131 -190 q 136 -76 131 -100 l 192 -76 q 186 -119 186 -107 q 213 -184 186 -164 q 294 -204 240 -204 q 397 -173 354 -204 q 453 -76 439 -142 l 513 -76 q 433 -212 493 -167 q 286 -257 374 -257 z "},"ĥ":{"ha":776,"x_min":49,"x_max":724,"o":"m 444 1158 l 511 1158 l 617 971 l 550 971 l 471 1114 l 331 971 l 260 971 l 444 1158 m 247 936 l 324 936 l 247 579 q 378 648 310 624 q 531 672 447 672 q 724 511 724 672 q 715 435 724 476 l 624 0 l 547 0 l 639 433 q 647 504 647 474 q 611 584 647 560 q 489 608 575 608 q 356 582 424 608 q 233 511 288 556 l 125 0 l 49 0 l 247 936 z "},"ḥ":{"ha":776,"x_min":49,"x_max":724,"o":"m 247 936 l 324 936 l 247 579 q 378 648 310 624 q 531 672 447 672 q 724 511 724 672 q 715 435 724 476 l 624 0 l 547 0 l 639 433 q 647 504 647 474 q 611 584 647 560 q 489 608 575 608 q 356 582 424 608 q 233 511 288 556 l 125 0 l 49 0 l 247 936 m 264 -132 l 346 -132 l 329 -211 l 247 -211 l 264 -132 z "},"i":{"ha":375,"x_min":138,"x_max":408,"o":"m 321 913 l 408 913 l 390 829 l 303 829 l 321 913 m 263 594 l 160 594 l 182 658 l 353 658 l 214 0 l 138 0 l 263 594 z "},"ı":{"ha":375,"x_min":139,"x_max":354,"o":"m 264 594 l 160 594 l 179 658 l 354 658 l 215 0 l 139 0 l 264 594 z "},"í":{"ha":375,"x_min":139,"x_max":496,"o":"m 424 944 l 496 944 l 346 725 l 283 725 l 424 944 m 264 594 l 160 594 l 179 658 l 354 658 l 215 0 l 139 0 l 264 594 z "},"ĭ":{"ha":375,"x_min":139,"x_max":490,"o":"m 303 724 q 210 755 243 724 q 178 839 178 786 q 182 876 178 858 l 236 876 q 233 846 233 865 q 253 794 233 813 q 311 776 272 776 q 389 803 357 776 q 431 876 421 831 l 490 876 q 425 766 476 808 q 303 724 374 724 m 264 594 l 160 594 l 179 658 l 354 658 l 215 0 l 139 0 l 264 594 z "},"ǐ":{"ha":375,"x_min":139,"x_max":522,"o":"m 165 911 l 231 911 l 310 768 l 450 911 l 522 911 l 336 724 l 269 724 l 165 911 m 264 594 l 160 594 l 179 658 l 354 658 l 215 0 l 139 0 l 264 594 z "},"î":{"ha":375,"x_min":129,"x_max":486,"o":"m 314 911 l 381 911 l 486 724 l 419 724 l 340 867 l 200 724 l 129 724 l 314 911 m 264 594 l 160 594 l 179 658 l 354 658 l 215 0 l 139 0 l 264 594 z "},"ï":{"ha":375,"x_min":135,"x_max":460,"o":"m 150 838 l 229 838 l 213 761 l 135 761 l 150 838 m 382 838 l 460 838 l 443 761 l 365 761 l 382 838 m 264 594 l 160 594 l 179 658 l 354 658 l 215 0 l 139 0 l 264 594 z "},"ị":{"ha":375,"x_min":92,"x_max":408,"o":"m 321 913 l 408 913 l 390 829 l 303 829 l 321 913 m 263 594 l 160 594 l 182 658 l 353 658 l 214 0 l 138 0 l 263 594 m 108 -132 l 190 -132 l 174 -211 l 92 -211 l 108 -132 z "},"ì":{"ha":375,"x_min":139,"x_max":363,"o":"m 244 944 l 317 944 l 363 725 l 300 725 l 244 944 m 264 594 l 160 594 l 179 658 l 354 658 l 215 0 l 139 0 l 264 594 z "},"ỉ":{"ha":375,"x_min":139,"x_max":500,"o":"m 289 835 q 374 847 344 838 q 417 872 404 856 q 436 917 431 888 q 439 936 439 931 q 338 990 439 990 q 288 985 315 990 q 240 974 260 981 l 251 1026 q 305 1038 272 1033 q 363 1043 338 1043 q 465 1019 431 1043 q 500 950 500 996 q 497 921 500 931 q 451 834 485 864 q 346 797 417 804 l 331 725 l 265 725 l 289 835 m 264 594 l 160 594 l 179 658 l 354 658 l 215 0 l 139 0 l 264 594 z "},"ĳ":{"ha":651,"x_min":128,"x_max":685,"o":"m 321 913 l 408 913 l 390 829 l 303 829 l 321 913 m 597 913 l 685 913 l 667 829 l 579 829 l 597 913 m 235 -325 q 128 -308 171 -325 l 142 -246 q 224 -260 182 -260 q 335 -231 300 -260 q 383 -137 371 -203 l 539 594 l 436 594 l 458 658 l 629 658 l 460 -142 q 235 -325 421 -325 m 263 594 l 160 594 l 182 658 l 353 658 l 214 0 l 138 0 l 263 594 z "},"ī":{"ha":375,"x_min":93,"x_max":490,"o":"m 106 831 l 490 831 l 478 772 l 93 772 l 106 831 m 264 594 l 160 594 l 179 658 l 354 658 l 215 0 l 139 0 l 264 594 z "},"į":{"ha":375,"x_min":3,"x_max":408,"o":"m 321 913 l 408 913 l 390 829 l 303 829 l 321 913 m 108 -306 q 31 -285 60 -306 q 3 -219 3 -264 q 44 -99 3 -160 q 138 0 85 -39 l 263 594 l 160 594 l 182 658 l 353 658 l 214 0 q 120 -83 156 -37 q 74 -178 85 -129 q 71 -203 71 -187 q 85 -238 71 -228 q 132 -249 100 -249 q 204 -233 174 -249 l 192 -290 q 108 -306 160 -306 z "},"ĩ":{"ha":375,"x_min":83,"x_max":497,"o":"m 376 728 q 331 735 353 728 q 281 756 308 742 q 238 773 256 767 q 203 779 221 779 q 83 731 132 779 l 97 796 q 149 825 117 814 q 214 836 182 836 q 258 830 239 836 q 306 810 278 824 q 348 791 331 797 q 386 785 365 785 q 497 833 453 785 l 483 768 q 438 738 467 749 q 376 728 410 728 m 264 594 l 160 594 l 179 658 l 354 658 l 215 0 l 139 0 l 264 594 z "},"j":{"ha":374,"x_min":-149,"x_max":408,"o":"m 321 913 l 408 913 l 390 829 l 303 829 l 321 913 m -42 -325 q -149 -308 -106 -325 l -135 -246 q -53 -260 -94 -260 q 59 -231 24 -260 q 107 -137 94 -203 l 263 594 l 160 594 l 182 658 l 353 658 l 183 -142 q -42 -325 143 -325 z "},"ȷ":{"ha":374,"x_min":-149,"x_max":353,"o":"m -42 -325 q -149 -308 -106 -325 l -135 -246 q -53 -260 -94 -260 q 58 -231 22 -260 q 107 -137 94 -201 l 263 594 l 160 594 l 182 658 l 353 658 l 183 -142 q 105 -276 164 -228 q -42 -325 46 -325 z "},"ĵ":{"ha":374,"x_min":-149,"x_max":478,"o":"m 306 911 l 372 911 l 478 724 l 411 724 l 332 867 l 192 724 l 121 724 l 306 911 m -42 -325 q -149 -308 -106 -325 l -135 -246 q -53 -260 -94 -260 q 58 -231 22 -260 q 107 -137 94 -201 l 263 594 l 160 594 l 182 658 l 353 658 l 183 -142 q 105 -276 164 -228 q -42 -325 46 -325 z "},"k":{"ha":703,"x_min":49,"x_max":694,"o":"m 247 936 l 324 936 l 197 342 l 603 658 l 694 658 l 369 401 l 571 0 l 490 0 l 310 358 l 179 256 l 125 0 l 49 0 l 247 936 z "},"ķ":{"ha":703,"x_min":49,"x_max":694,"o":"m 247 936 l 324 936 l 197 342 l 603 658 l 694 658 l 369 401 l 571 0 l 490 0 l 310 358 l 179 256 l 125 0 l 49 0 l 247 936 m 247 -51 l 321 -51 l 219 -281 l 163 -281 l 247 -51 z "},"ĸ":{"ha":703,"x_min":49,"x_max":694,"o":"m 188 658 l 264 658 l 190 313 l 603 658 l 694 658 l 365 381 l 571 0 l 490 0 l 307 338 l 172 224 l 125 0 l 49 0 l 188 658 z "},"l":{"ha":342,"x_min":69,"x_max":324,"o":"m 167 -14 q 94 6 118 -14 q 69 74 69 26 q 75 126 69 100 l 247 936 l 324 936 l 151 129 q 146 90 146 99 q 157 60 146 68 q 193 51 168 51 q 257 60 224 51 l 243 -4 q 167 -14 213 -14 z "},"ĺ":{"ha":342,"x_min":69,"x_max":476,"o":"m 404 1224 l 476 1224 l 326 1004 l 264 1004 l 404 1224 m 167 -14 q 94 6 118 -14 q 69 74 69 26 q 75 126 69 100 l 247 936 l 324 936 l 151 129 q 146 90 146 99 q 157 60 146 68 q 193 51 168 51 q 257 60 224 51 l 243 -4 q 167 -14 213 -14 z "},"ľ":{"ha":411,"x_min":69,"x_max":554,"o":"m 481 1103 l 554 1103 l 453 874 l 396 874 l 481 1103 m 167 -14 q 94 6 118 -14 q 69 74 69 26 q 75 126 69 100 l 247 936 l 324 936 l 151 129 q 146 90 146 99 q 157 60 146 68 q 193 51 168 51 q 257 60 224 51 l 243 -4 q 167 -14 213 -14 z "},"ļ":{"ha":342,"x_min":36,"x_max":324,"o":"m 167 -14 q 94 6 118 -14 q 69 74 69 26 q 75 126 69 100 l 247 936 l 324 936 l 151 129 q 146 90 146 99 q 157 60 146 68 q 193 51 168 51 q 257 60 224 51 l 243 -4 q 167 -14 213 -14 m 121 -51 l 194 -51 l 93 -281 l 36 -281 l 121 -51 z "},"ŀ":{"ha":375,"x_min":69,"x_max":396,"o":"m 167 -14 q 94 6 118 -14 q 69 74 69 26 q 75 126 69 100 l 247 936 l 324 936 l 151 129 q 146 90 146 99 q 157 60 146 68 q 193 51 168 51 q 257 60 224 51 l 243 -4 q 167 -14 213 -14 m 314 453 l 396 453 l 379 374 l 297 374 l 314 453 z "},"ḷ":{"ha":342,"x_min":36,"x_max":324,"o":"m 167 -14 q 94 6 118 -14 q 69 74 69 26 q 75 126 69 100 l 247 936 l 324 936 l 151 129 q 146 90 146 99 q 157 60 146 68 q 193 51 168 51 q 257 60 224 51 l 243 -4 q 167 -14 213 -14 m 53 -132 l 135 -132 l 118 -211 l 36 -211 l 53 -132 z "},"ḹ":{"ha":342,"x_min":50,"x_max":504,"o":"m 121 1058 l 504 1058 l 492 1000 l 108 1000 l 121 1058 m 167 -14 q 94 6 118 -14 q 69 74 69 26 q 75 126 69 100 l 247 936 l 324 936 l 151 129 q 146 90 146 99 q 157 60 146 68 q 193 51 168 51 q 257 60 224 51 l 243 -4 q 167 -14 213 -14 m 67 -132 l 149 -132 l 132 -211 l 50 -211 l 67 -132 z "},"ḻ":{"ha":342,"x_min":-110,"x_max":324,"o":"m 167 -14 q 94 6 118 -14 q 69 74 69 26 q 75 126 69 100 l 247 936 l 324 936 l 151 129 q 146 90 146 99 q 157 60 146 68 q 193 51 168 51 q 257 60 224 51 l 243 -4 q 167 -14 213 -14 m -97 -104 l 286 -104 l 274 -162 l -110 -162 l -97 -104 z "},"ł":{"ha":342,"x_min":-29,"x_max":418,"o":"m 167 -14 q 94 6 118 -14 q 69 74 69 26 q 75 126 69 100 l 135 411 l -29 346 l -14 413 l 149 478 l 247 936 l 324 936 l 232 511 l 418 585 l 404 518 l 218 444 l 151 129 q 147 93 147 108 q 158 61 147 71 q 193 51 169 51 q 257 60 224 51 l 243 -4 q 167 -14 213 -14 z "},"m":{"ha":1181,"x_min":49,"x_max":1129,"o":"m 188 658 l 254 658 l 244 578 q 510 672 378 672 q 617 647 578 672 q 667 578 657 621 q 949 672 799 672 q 1129 517 1129 672 q 1121 440 1129 482 l 1028 0 l 953 0 l 1044 433 q 1054 506 1054 482 q 1020 585 1054 563 q 907 608 986 608 q 783 587 843 608 q 676 524 722 565 q 665 431 676 478 l 575 0 l 501 0 l 592 429 q 603 510 603 478 q 573 585 603 561 q 475 608 543 608 q 351 582 417 608 q 232 513 286 556 l 124 0 l 49 0 l 188 658 z "},"ṃ":{"ha":1181,"x_min":49,"x_max":1129,"o":"m 188 658 l 254 658 l 244 578 q 510 672 378 672 q 617 647 578 672 q 667 578 657 621 q 949 672 799 672 q 1129 517 1129 672 q 1121 440 1129 482 l 1028 0 l 953 0 l 1044 433 q 1054 506 1054 482 q 1020 585 1054 563 q 907 608 986 608 q 783 587 843 608 q 676 524 722 565 q 665 431 676 478 l 575 0 l 501 0 l 592 429 q 603 510 603 478 q 573 585 603 561 q 475 608 543 608 q 351 582 417 608 q 232 513 286 556 l 124 0 l 49 0 l 188 658 m 468 -132 l 550 -132 l 533 -211 l 451 -211 l 468 -132 z "},"n":{"ha":776,"x_min":49,"x_max":724,"o":"m 188 658 l 254 658 l 244 578 q 531 672 376 672 q 724 511 724 672 q 715 435 724 476 l 624 0 l 547 0 l 639 433 q 649 511 649 476 q 615 586 649 564 q 500 608 582 608 q 358 583 429 608 q 233 513 288 557 l 125 0 l 49 0 l 188 658 z "},"ń":{"ha":776,"x_min":49,"x_max":724,"o":"m 592 944 l 664 944 l 514 725 l 451 725 l 592 944 m 188 658 l 254 658 l 244 578 q 531 672 376 672 q 724 511 724 672 q 715 435 724 476 l 624 0 l 547 0 l 639 433 q 649 511 649 476 q 615 586 649 564 q 500 608 582 608 q 358 583 429 608 q 233 513 288 557 l 125 0 l 49 0 l 188 658 z "},"ŉ":{"ha":868,"x_min":132,"x_max":815,"o":"m 217 903 l 290 903 l 189 674 l 132 674 l 217 903 m 279 658 l 346 658 l 336 578 q 622 672 468 672 q 815 511 815 672 q 807 435 815 476 l 715 0 l 639 0 l 731 433 q 740 511 740 476 q 707 586 740 564 q 592 608 674 608 q 450 583 521 608 q 325 513 379 557 l 217 0 l 140 0 l 279 658 z "},"ň":{"ha":776,"x_min":49,"x_max":724,"o":"m 344 911 l 410 911 l 489 768 l 629 911 l 701 911 l 515 724 l 449 724 l 344 911 m 188 658 l 254 658 l 244 578 q 531 672 376 672 q 724 511 724 672 q 715 435 724 476 l 624 0 l 547 0 l 639 433 q 649 511 649 476 q 615 586 649 564 q 500 608 582 608 q 358 583 429 608 q 233 513 288 557 l 125 0 l 49 0 l 188 658 z "},"ņ":{"ha":776,"x_min":49,"x_max":724,"o":"m 188 658 l 254 658 l 244 578 q 531 672 376 672 q 724 511 724 672 q 715 435 724 476 l 624 0 l 547 0 l 639 433 q 649 511 649 476 q 615 586 649 564 q 500 608 582 608 q 358 583 429 608 q 233 513 288 557 l 125 0 l 49 0 l 188 658 m 301 -51 l 375 -51 l 274 -281 l 217 -281 l 301 -51 z "},"ṅ":{"ha":776,"x_min":49,"x_max":724,"o":"m 476 839 l 556 839 l 539 761 l 460 761 l 476 839 m 188 658 l 254 658 l 244 578 q 531 672 376 672 q 724 511 724 672 q 715 435 724 476 l 624 0 l 547 0 l 639 433 q 649 511 649 476 q 615 586 649 564 q 500 608 582 608 q 358 583 429 608 q 233 513 288 557 l 125 0 l 49 0 l 188 658 z "},"ṇ":{"ha":776,"x_min":49,"x_max":724,"o":"m 188 658 l 254 658 l 244 578 q 531 672 376 672 q 724 511 724 672 q 715 435 724 476 l 624 0 l 547 0 l 639 433 q 649 511 649 476 q 615 586 649 564 q 500 608 582 608 q 358 583 429 608 q 233 513 288 557 l 125 0 l 49 0 l 188 658 m 276 -132 l 358 -132 l 342 -211 l 260 -211 l 276 -132 z "},"ŋ":{"ha":776,"x_min":49,"x_max":725,"o":"m 367 -325 q 258 -308 301 -325 l 272 -246 q 354 -260 314 -260 q 467 -231 429 -260 q 517 -137 504 -201 l 639 433 q 647 504 647 474 q 610 585 647 561 q 486 608 574 608 q 354 583 419 608 q 233 513 289 557 l 125 0 l 49 0 l 188 658 l 254 658 l 244 578 q 531 672 376 672 q 678 635 631 672 q 725 518 725 597 q 715 435 725 478 l 593 -142 q 514 -276 574 -228 q 367 -325 454 -325 z "},"ṉ":{"ha":776,"x_min":49,"x_max":724,"o":"m 188 658 l 254 658 l 244 578 q 531 672 376 672 q 724 511 724 672 q 715 435 724 476 l 624 0 l 547 0 l 639 433 q 649 511 649 476 q 615 586 649 564 q 500 608 582 608 q 358 583 429 608 q 233 513 288 557 l 125 0 l 49 0 l 188 658 m 126 -103 l 510 -103 l 497 -161 l 114 -161 l 126 -103 z "},"ñ":{"ha":776,"x_min":49,"x_max":724,"o":"m 603 760 q 557 767 579 760 q 507 788 535 774 q 465 805 482 799 q 429 811 447 811 q 310 763 358 811 l 324 828 q 376 857 343 846 q 440 868 408 868 q 485 862 465 868 q 532 842 504 856 q 574 823 557 829 q 613 817 592 817 q 724 865 679 817 l 710 800 q 665 770 693 781 q 603 760 636 760 m 188 658 l 254 658 l 244 578 q 531 672 376 672 q 724 511 724 672 q 715 435 724 476 l 624 0 l 547 0 l 639 433 q 649 511 649 476 q 615 586 649 564 q 500 608 582 608 q 358 583 429 608 q 233 513 288 557 l 125 0 l 49 0 l 188 658 z "},"o":{"ha":782,"x_min":76,"x_max":733,"o":"m 331 -14 q 138 42 200 -14 q 76 207 76 97 q 90 329 76 265 q 217 587 126 501 q 476 672 308 672 q 733 447 733 672 q 719 329 733 390 q 592 71 683 156 q 331 -14 501 -14 m 344 51 q 543 118 474 51 q 643 329 613 185 q 658 444 658 399 q 613 567 658 528 q 463 606 567 606 q 265 539 335 606 q 165 329 196 472 q 150 210 150 257 q 195 90 150 128 q 344 51 240 51 z "},"ó":{"ha":782,"x_min":76,"x_max":733,"o":"m 601 944 l 674 944 l 524 725 l 461 725 l 601 944 m 331 -14 q 138 42 200 -14 q 76 207 76 97 q 90 329 76 265 q 217 587 126 501 q 476 672 308 672 q 733 447 733 672 q 719 329 733 390 q 592 71 683 156 q 331 -14 501 -14 m 344 51 q 543 118 474 51 q 643 329 613 185 q 658 444 658 399 q 613 567 658 528 q 463 606 567 606 q 265 539 335 606 q 165 329 196 472 q 150 210 150 257 q 195 90 150 128 q 344 51 240 51 z "},"ŏ":{"ha":782,"x_min":76,"x_max":733,"o":"m 488 724 q 395 755 428 724 q 363 839 363 786 q 367 878 363 857 l 422 878 q 418 844 418 860 q 496 778 418 778 q 573 804 540 778 q 615 878 606 831 l 676 878 q 611 766 661 808 q 488 724 561 724 m 331 -14 q 138 42 200 -14 q 76 207 76 97 q 90 329 76 265 q 217 587 126 501 q 476 672 308 672 q 733 447 733 672 q 719 329 733 390 q 592 71 683 156 q 331 -14 501 -14 m 344 51 q 543 118 474 51 q 643 329 613 185 q 658 444 658 399 q 613 567 658 528 q 463 606 567 606 q 265 539 335 606 q 165 329 196 472 q 150 210 150 257 q 195 90 150 128 q 344 51 240 51 z "},"ǒ":{"ha":782,"x_min":76,"x_max":733,"o":"m 350 911 l 415 911 l 494 768 l 635 911 l 707 911 l 521 724 l 454 724 l 350 911 m 331 -14 q 138 42 200 -14 q 76 207 76 97 q 90 329 76 265 q 217 587 126 501 q 476 672 308 672 q 733 447 733 672 q 719 329 733 390 q 592 71 683 156 q 331 -14 501 -14 m 344 51 q 543 118 474 51 q 643 329 613 185 q 658 444 658 399 q 613 567 658 528 q 463 606 567 606 q 265 539 335 606 q 165 329 196 472 q 150 210 150 257 q 195 90 150 128 q 344 51 240 51 z "},"ô":{"ha":782,"x_min":76,"x_max":733,"o":"m 494 911 l 561 911 l 667 724 l 600 724 l 521 867 l 381 724 l 310 724 l 494 911 m 331 -14 q 138 42 200 -14 q 76 207 76 97 q 90 329 76 265 q 217 587 126 501 q 476 672 308 672 q 733 447 733 672 q 719 329 733 390 q 592 71 683 156 q 331 -14 501 -14 m 344 51 q 543 118 474 51 q 643 329 613 185 q 658 444 658 399 q 613 567 658 528 q 463 606 567 606 q 265 539 335 606 q 165 329 196 472 q 150 210 150 257 q 195 90 150 128 q 344 51 240 51 z "},"ố":{"ha":782,"x_min":76,"x_max":807,"o":"m 743 1033 l 807 1033 l 682 871 l 625 871 l 743 1033 m 497 876 l 564 876 l 675 724 l 611 724 l 528 842 l 394 724 l 322 724 l 497 876 m 331 -14 q 138 42 200 -14 q 76 207 76 97 q 90 329 76 265 q 217 587 126 501 q 476 672 308 672 q 733 447 733 672 q 719 329 733 390 q 592 71 683 156 q 331 -14 501 -14 m 344 51 q 543 118 474 51 q 643 329 613 185 q 658 444 658 399 q 613 567 658 528 q 463 606 567 606 q 265 539 335 606 q 165 329 196 472 q 150 210 150 257 q 195 90 150 128 q 344 51 240 51 z "},"ộ":{"ha":782,"x_min":76,"x_max":733,"o":"m 494 911 l 561 911 l 667 724 l 600 724 l 521 867 l 381 724 l 310 724 l 494 911 m 331 -14 q 138 42 200 -14 q 76 207 76 97 q 90 329 76 265 q 217 587 126 501 q 476 672 308 672 q 733 447 733 672 q 719 329 733 390 q 592 71 683 156 q 331 -14 501 -14 m 344 51 q 543 118 474 51 q 643 329 613 185 q 658 444 658 399 q 613 567 658 528 q 463 606 567 606 q 265 539 335 606 q 165 329 196 472 q 150 210 150 257 q 195 90 150 128 q 344 51 240 51 m 267 -132 l 349 -132 l 332 -211 l 250 -211 l 267 -132 z "},"ồ":{"ha":782,"x_min":76,"x_max":733,"o":"m 308 1033 l 374 1033 l 421 871 l 365 871 l 308 1033 m 486 876 l 553 876 l 664 724 l 600 724 l 517 842 l 383 724 l 311 724 l 486 876 m 331 -14 q 138 42 200 -14 q 76 207 76 97 q 90 329 76 265 q 217 587 126 501 q 476 672 308 672 q 733 447 733 672 q 719 329 733 390 q 592 71 683 156 q 331 -14 501 -14 m 344 51 q 543 118 474 51 q 643 329 613 185 q 658 444 658 399 q 613 567 658 528 q 463 606 567 606 q 265 539 335 606 q 165 329 196 472 q 150 210 150 257 q 195 90 150 128 q 344 51 240 51 z "},"ổ":{"ha":782,"x_min":76,"x_max":846,"o":"m 656 924 q 751 942 725 928 q 783 988 776 957 q 785 1003 785 993 q 722 1044 785 1044 q 638 1026 681 1044 l 647 1074 q 742 1090 693 1090 q 819 1070 792 1090 q 846 1014 846 1050 q 843 990 846 1007 q 802 922 833 946 q 713 892 771 897 l 701 842 l 639 842 l 656 924 m 506 876 l 572 876 l 683 724 l 619 724 l 536 842 l 404 724 l 331 724 l 506 876 m 331 -14 q 138 42 200 -14 q 76 207 76 97 q 90 329 76 265 q 217 587 126 501 q 476 672 308 672 q 733 447 733 672 q 719 329 733 390 q 592 71 683 156 q 331 -14 501 -14 m 344 51 q 543 118 474 51 q 643 329 613 185 q 658 444 658 399 q 613 567 658 528 q 463 606 567 606 q 265 539 335 606 q 165 329 196 472 q 150 210 150 257 q 195 90 150 128 q 344 51 240 51 z "},"ỗ":{"ha":782,"x_min":76,"x_max":742,"o":"m 622 947 q 535 972 585 947 q 495 989 510 983 q 464 994 481 994 q 404 985 432 994 q 350 950 376 975 l 363 1010 q 413 1038 383 1028 q 472 1047 443 1047 q 515 1041 496 1047 q 557 1022 533 1035 q 597 1006 582 1011 q 632 1000 613 1000 q 690 1010 664 1000 q 742 1046 715 1021 l 728 985 q 682 957 710 967 q 622 947 654 947 m 489 725 q 374 757 418 725 q 329 857 329 789 q 335 908 329 882 l 385 908 q 379 864 379 886 q 408 797 379 818 q 494 775 436 775 q 603 808 558 775 q 663 908 649 842 l 719 908 q 635 769 699 814 q 489 725 572 725 m 331 -14 q 138 42 200 -14 q 76 207 76 97 q 90 329 76 265 q 217 587 126 501 q 476 672 308 672 q 733 447 733 672 q 719 329 733 390 q 592 71 683 156 q 331 -14 501 -14 m 344 51 q 543 118 474 51 q 643 329 613 185 q 658 444 658 399 q 613 567 658 528 q 463 606 567 606 q 265 539 335 606 q 165 329 196 472 q 150 210 150 257 q 195 90 150 128 q 344 51 240 51 z "},"ö":{"ha":782,"x_min":76,"x_max":733,"o":"m 357 838 l 436 838 l 419 761 l 342 761 l 357 838 m 589 838 l 667 838 l 650 761 l 572 761 l 589 838 m 331 -14 q 138 42 200 -14 q 76 207 76 97 q 90 329 76 265 q 217 587 126 501 q 476 672 308 672 q 733 447 733 672 q 719 329 733 390 q 592 71 683 156 q 331 -14 501 -14 m 344 51 q 543 118 474 51 q 643 329 613 185 q 658 444 658 399 q 613 567 658 528 q 463 606 567 606 q 265 539 335 606 q 165 329 196 472 q 150 210 150 257 q 195 90 150 128 q 344 51 240 51 z "},"ọ":{"ha":782,"x_min":76,"x_max":733,"o":"m 331 -14 q 138 42 200 -14 q 76 207 76 97 q 90 329 76 265 q 217 587 126 501 q 476 672 308 672 q 733 447 733 672 q 719 329 733 390 q 592 71 683 156 q 331 -14 501 -14 m 344 51 q 543 118 474 51 q 643 329 613 185 q 658 444 658 399 q 613 567 658 528 q 463 606 567 606 q 265 539 335 606 q 165 329 196 472 q 150 210 150 257 q 195 90 150 128 q 344 51 240 51 m 267 -132 l 349 -132 l 332 -211 l 250 -211 l 267 -132 z "},"ò":{"ha":782,"x_min":76,"x_max":733,"o":"m 413 944 l 485 944 l 531 725 l 468 725 l 413 944 m 331 -14 q 138 42 200 -14 q 76 207 76 97 q 90 329 76 265 q 217 587 126 501 q 476 672 308 672 q 733 447 733 672 q 719 329 733 390 q 592 71 683 156 q 331 -14 501 -14 m 344 51 q 543 118 474 51 q 643 329 613 185 q 658 444 658 399 q 613 567 658 528 q 463 606 567 606 q 265 539 335 606 q 165 329 196 472 q 150 210 150 257 q 195 90 150 128 q 344 51 240 51 z "},"ỏ":{"ha":782,"x_min":76,"x_max":733,"o":"m 482 835 q 567 847 538 838 q 610 872 597 856 q 629 917 624 888 q 632 936 632 931 q 531 990 632 990 q 481 985 508 990 q 433 974 453 981 l 444 1026 q 498 1038 465 1033 q 556 1043 531 1043 q 658 1019 624 1043 q 693 950 693 996 q 690 921 693 931 q 644 834 678 864 q 539 797 610 804 l 524 725 l 458 725 l 482 835 m 331 -14 q 138 42 200 -14 q 76 207 76 97 q 90 329 76 265 q 217 587 126 501 q 476 672 308 672 q 733 447 733 672 q 719 329 733 390 q 592 71 683 156 q 331 -14 501 -14 m 344 51 q 543 118 474 51 q 643 329 613 185 q 658 444 658 399 q 613 567 658 528 q 463 606 567 606 q 265 539 335 606 q 165 329 196 472 q 150 210 150 257 q 195 90 150 128 q 344 51 240 51 z "},"ơ":{"ha":888,"x_min":76,"x_max":954,"o":"m 331 -14 q 138 42 200 -14 q 76 207 76 97 q 90 329 76 265 q 217 587 126 501 q 476 672 308 672 q 706 571 650 672 q 828 610 789 572 q 888 744 867 647 l 954 744 q 874 574 929 626 q 726 513 819 521 q 733 446 733 478 q 719 329 733 390 q 592 71 683 156 q 331 -14 501 -14 m 344 51 q 543 118 474 51 q 643 329 613 185 q 658 444 658 399 q 613 567 658 528 q 463 606 567 606 q 265 539 335 606 q 165 329 196 472 q 150 210 150 257 q 195 90 150 128 q 344 51 240 51 z "},"ớ":{"ha":888,"x_min":76,"x_max":954,"o":"m 613 944 l 685 944 l 535 725 l 472 725 l 613 944 m 331 -14 q 138 42 200 -14 q 76 207 76 97 q 90 329 76 265 q 217 587 126 501 q 476 672 308 672 q 706 571 650 672 q 828 610 789 572 q 888 744 867 647 l 954 744 q 874 574 929 626 q 726 513 819 521 q 733 446 733 478 q 719 329 733 390 q 592 71 683 156 q 331 -14 501 -14 m 344 51 q 543 118 474 51 q 643 329 613 185 q 658 444 658 399 q 613 567 658 528 q 463 606 567 606 q 265 539 335 606 q 165 329 196 472 q 150 210 150 257 q 195 90 150 128 q 344 51 240 51 z "},"ợ":{"ha":888,"x_min":76,"x_max":954,"o":"m 331 -14 q 138 42 200 -14 q 76 207 76 97 q 90 329 76 265 q 217 587 126 501 q 476 672 308 672 q 706 571 650 672 q 828 610 789 572 q 888 744 867 647 l 954 744 q 874 574 929 626 q 726 513 819 521 q 733 446 733 478 q 719 329 733 390 q 592 71 683 156 q 331 -14 501 -14 m 344 51 q 543 118 474 51 q 643 329 613 185 q 658 444 658 399 q 613 567 658 528 q 463 606 567 606 q 265 539 335 606 q 165 329 196 472 q 150 210 150 257 q 195 90 150 128 q 344 51 240 51 m 279 -132 l 361 -132 l 344 -211 l 263 -211 l 279 -132 z "},"ờ":{"ha":888,"x_min":76,"x_max":954,"o":"m 429 944 l 501 944 l 547 725 l 485 725 l 429 944 m 331 -14 q 138 42 200 -14 q 76 207 76 97 q 90 329 76 265 q 217 587 126 501 q 476 672 308 672 q 706 571 650 672 q 828 610 789 572 q 888 744 867 647 l 954 744 q 874 574 929 626 q 726 513 819 521 q 733 446 733 478 q 719 329 733 390 q 592 71 683 156 q 331 -14 501 -14 m 344 51 q 543 118 474 51 q 643 329 613 185 q 658 444 658 399 q 613 567 658 528 q 463 606 567 606 q 265 539 335 606 q 165 329 196 472 q 150 210 150 257 q 195 90 150 128 q 344 51 240 51 z "},"ở":{"ha":888,"x_min":76,"x_max":954,"o":"m 478 835 q 563 847 533 838 q 606 872 593 856 q 625 917 619 888 q 628 936 628 931 q 526 990 628 990 q 476 985 504 990 q 429 974 449 981 l 440 1026 q 494 1038 461 1033 q 551 1043 526 1043 q 654 1019 619 1043 q 689 950 689 996 q 686 921 689 931 q 640 834 674 864 q 535 797 606 804 l 519 725 l 454 725 l 478 835 m 331 -14 q 138 42 200 -14 q 76 207 76 97 q 90 329 76 265 q 217 587 126 501 q 476 672 308 672 q 706 571 650 672 q 828 610 789 572 q 888 744 867 647 l 954 744 q 874 574 929 626 q 726 513 819 521 q 733 446 733 478 q 719 329 733 390 q 592 71 683 156 q 331 -14 501 -14 m 344 51 q 543 118 474 51 q 643 329 613 185 q 658 444 658 399 q 613 567 658 528 q 463 606 567 606 q 265 539 335 606 q 165 329 196 472 q 150 210 150 257 q 195 90 150 128 q 344 51 240 51 z "},"ỡ":{"ha":888,"x_min":76,"x_max":954,"o":"m 603 758 q 557 765 579 758 q 507 786 535 772 q 465 803 482 797 q 429 810 447 810 q 310 761 358 810 l 324 826 q 376 856 343 844 q 440 867 408 867 q 485 860 465 867 q 532 840 504 854 q 574 822 557 828 q 613 815 592 815 q 724 864 679 815 l 710 799 q 665 769 693 779 q 603 758 636 758 m 331 -14 q 138 42 200 -14 q 76 207 76 97 q 90 329 76 265 q 217 587 126 501 q 476 672 308 672 q 706 571 650 672 q 828 610 789 572 q 888 744 867 647 l 954 744 q 874 574 929 626 q 726 513 819 521 q 733 446 733 478 q 719 329 733 390 q 592 71 683 156 q 331 -14 501 -14 m 344 51 q 543 118 474 51 q 643 329 613 185 q 658 444 658 399 q 613 567 658 528 q 463 606 567 606 q 265 539 335 606 q 165 329 196 472 q 150 210 150 257 q 195 90 150 128 q 344 51 240 51 z "},"ő":{"ha":782,"x_min":76,"x_max":814,"o":"m 463 919 l 538 919 l 392 724 l 329 724 l 463 919 m 739 919 l 814 919 l 667 724 l 604 724 l 739 919 m 331 -14 q 138 42 200 -14 q 76 207 76 97 q 90 329 76 265 q 217 587 126 501 q 476 672 308 672 q 733 447 733 672 q 719 329 733 390 q 592 71 683 156 q 331 -14 501 -14 m 344 51 q 543 118 474 51 q 643 329 613 185 q 658 444 658 399 q 613 567 658 528 q 463 606 567 606 q 265 539 335 606 q 165 329 196 472 q 150 210 150 257 q 195 90 150 128 q 344 51 240 51 z "},"ō":{"ha":782,"x_min":76,"x_max":733,"o":"m 319 826 l 703 826 l 690 768 l 307 768 l 319 826 m 331 -14 q 138 42 200 -14 q 76 207 76 97 q 90 329 76 265 q 217 587 126 501 q 476 672 308 672 q 733 447 733 672 q 719 329 733 390 q 592 71 683 156 q 331 -14 501 -14 m 344 51 q 543 118 474 51 q 643 329 613 185 q 658 444 658 399 q 613 567 658 528 q 463 606 567 606 q 265 539 335 606 q 165 329 196 472 q 150 210 150 257 q 195 90 150 128 q 344 51 240 51 z "},"ø":{"ha":782,"x_min":75,"x_max":733,"o":"m 194 7 q 75 206 75 54 q 90 329 75 257 q 217 587 126 501 q 476 672 308 672 q 569 663 531 672 l 610 733 l 678 733 l 626 643 q 733 447 733 593 q 719 329 733 401 q 592 71 683 156 q 331 -14 501 -14 q 253 -8 300 -14 l 215 -75 l 147 -75 l 194 7 m 533 600 q 463 606 492 606 q 265 539 335 606 q 165 329 196 472 q 150 210 150 257 q 169 122 150 156 q 229 69 188 88 l 533 600 m 344 51 q 543 118 474 51 q 643 329 613 185 q 657 444 657 390 q 590 581 657 546 l 289 54 q 344 51 322 51 z "},"ǿ":{"ha":782,"x_min":75,"x_max":733,"o":"m 586 944 l 658 944 l 508 725 l 446 725 l 586 944 m 194 7 q 75 206 75 54 q 90 329 75 257 q 217 587 126 501 q 476 672 308 672 q 569 663 531 672 l 610 733 l 678 733 l 626 643 q 733 447 733 593 q 719 329 733 401 q 592 71 683 156 q 331 -14 501 -14 q 253 -8 300 -14 l 215 -75 l 147 -75 l 194 7 m 533 600 q 463 606 492 606 q 265 539 335 606 q 165 329 196 472 q 150 210 150 257 q 169 122 150 156 q 229 69 188 88 l 533 600 m 344 51 q 543 118 474 51 q 643 329 613 185 q 657 444 657 390 q 590 581 657 546 l 289 54 q 344 51 322 51 z "},"õ":{"ha":782,"x_min":76,"x_max":733,"o":"m 594 763 q 549 769 571 763 q 499 790 526 776 q 456 808 474 801 q 421 814 439 814 q 301 765 350 814 l 315 831 q 367 860 335 849 q 432 871 400 871 q 476 865 457 871 q 524 844 496 858 q 566 826 549 832 q 604 819 583 819 q 715 868 671 819 l 701 803 q 656 773 685 783 q 594 763 628 763 m 331 -14 q 138 42 200 -14 q 76 207 76 97 q 90 329 76 265 q 217 587 126 501 q 476 672 308 672 q 733 447 733 672 q 719 329 733 390 q 592 71 683 156 q 331 -14 501 -14 m 344 51 q 543 118 474 51 q 643 329 613 185 q 658 444 658 399 q 613 567 658 528 q 463 606 567 606 q 265 539 335 606 q 165 329 196 472 q 150 210 150 257 q 195 90 150 128 q 344 51 240 51 z "},"œ":{"ha":1283,"x_min":76,"x_max":1246,"o":"m 331 -14 q 140 44 203 -14 q 76 214 76 101 q 90 329 76 260 q 218 587 126 501 q 476 672 310 672 q 640 634 582 672 q 717 519 699 596 q 840 633 764 593 q 1021 672 917 672 q 1190 620 1133 672 q 1246 479 1246 568 q 1238 408 1246 446 l 1213 289 l 711 289 q 704 215 704 244 q 759 88 704 126 q 939 49 814 49 q 1125 83 1029 49 l 1113 21 q 911 -14 1017 -14 q 728 24 794 -14 q 644 139 663 61 q 331 -14 546 -14 m 1154 349 l 1167 411 q 1175 481 1175 449 q 1136 576 1175 543 q 1010 608 1097 608 q 818 544 885 608 q 724 349 751 479 l 1154 349 m 344 51 q 543 119 474 51 q 643 332 613 186 q 657 444 657 393 q 611 566 657 526 q 463 606 565 606 q 265 539 335 606 q 165 329 196 472 q 150 207 150 256 q 195 89 150 126 q 344 51 240 51 z "},"p":{"ha":783,"x_min":-15,"x_max":735,"o":"m 188 658 l 251 658 l 243 583 q 362 651 300 629 q 499 672 424 672 q 674 617 613 672 q 735 449 735 563 q 721 331 735 394 q 347 -14 649 -14 q 228 2 278 -14 q 136 54 178 18 l 61 -300 l -15 -300 l 188 658 m 342 49 q 540 117 465 49 q 646 331 615 185 q 660 444 660 392 q 615 569 660 529 q 468 608 569 608 q 235 519 336 608 l 150 122 q 342 49 219 49 z "},"þ":{"ha":783,"x_min":-15,"x_max":735,"o":"m 254 972 l 331 972 l 250 594 q 367 653 307 635 q 499 672 428 672 q 673 617 611 672 q 735 447 735 561 q 721 331 735 392 q 588 72 685 157 q 347 -14 490 -14 q 228 2 278 -14 q 136 54 178 18 l 61 -300 l -15 -300 l 254 972 m 342 49 q 540 117 465 49 q 646 331 615 185 q 660 444 660 392 q 614 568 660 528 q 468 608 568 608 q 235 519 336 608 l 150 122 q 342 49 219 49 z "},"q":{"ha":838,"x_min":76,"x_max":763,"o":"m 618 -336 q 533 -310 563 -336 q 503 -231 503 -283 q 510 -175 503 -210 l 558 54 q 444 2 501 18 q 317 -14 386 -14 q 138 42 200 -14 q 76 213 76 99 q 90 331 76 269 q 457 672 164 672 q 585 651 532 672 q 676 583 638 629 l 699 658 l 763 658 l 586 -172 q 579 -222 579 -204 q 595 -260 579 -249 q 651 -271 611 -271 q 704 -262 674 -271 l 692 -326 q 618 -336 657 -336 m 350 49 q 572 122 471 49 l 657 519 q 463 608 592 608 q 266 541 336 608 q 165 331 196 474 q 151 215 151 267 q 199 89 151 129 q 350 49 246 49 z "},"r":{"ha":475,"x_min":49,"x_max":513,"o":"m 188 658 l 254 658 l 243 567 q 373 629 301 601 q 513 672 444 657 l 500 610 q 357 565 435 594 q 232 506 279 535 l 125 0 l 49 0 l 188 658 z "},"ŕ":{"ha":475,"x_min":49,"x_max":513,"o":"m 404 944 l 476 944 l 326 725 l 264 725 l 404 944 m 188 658 l 254 658 l 243 567 q 373 629 301 601 q 513 672 444 657 l 500 610 q 357 565 435 594 q 232 506 279 535 l 125 0 l 49 0 l 188 658 z "},"ř":{"ha":475,"x_min":49,"x_max":513,"o":"m 139 911 l 204 911 l 283 768 l 424 911 l 496 911 l 310 724 l 243 724 l 139 911 m 188 658 l 254 658 l 243 567 q 373 629 301 601 q 513 672 444 657 l 500 610 q 357 565 435 594 q 232 506 279 535 l 125 0 l 49 0 l 188 658 z "},"ŗ":{"ha":475,"x_min":-49,"x_max":513,"o":"m 188 658 l 254 658 l 243 567 q 373 629 301 601 q 513 672 444 657 l 500 610 q 357 565 435 594 q 232 506 279 535 l 125 0 l 49 0 l 188 658 m 36 -51 l 110 -51 l 8 -281 l -49 -281 l 36 -51 z "},"ṛ":{"ha":475,"x_min":0,"x_max":513,"o":"m 188 658 l 254 658 l 243 567 q 373 629 301 601 q 513 672 444 657 l 500 610 q 357 565 435 594 q 232 506 279 535 l 125 0 l 49 0 l 188 658 m 17 -132 l 99 -132 l 82 -211 l 0 -211 l 17 -132 z "},"ṝ":{"ha":478,"x_min":3,"x_max":515,"o":"m 128 824 l 511 824 l 499 765 l 115 765 l 128 824 m 190 658 l 257 658 l 246 567 q 376 629 304 601 q 515 672 447 657 l 503 610 q 360 565 438 594 q 235 506 282 535 l 128 0 l 51 0 l 190 658 m 19 -132 l 101 -132 l 85 -211 l 3 -211 l 19 -132 z "},"ṟ":{"ha":475,"x_min":-124,"x_max":513,"o":"m 188 658 l 254 658 l 243 567 q 373 629 301 601 q 513 672 444 657 l 500 610 q 357 565 435 594 q 232 506 279 535 l 125 0 l 49 0 l 188 658 m -111 -103 l 272 -103 l 260 -161 l -124 -161 l -111 -103 z "},"s":{"ha":621,"x_min":42,"x_max":575,"o":"m 238 -14 q 128 -6 181 -14 q 42 14 76 1 l 56 82 q 242 51 139 51 q 386 78 339 51 q 447 167 433 104 q 451 197 451 183 q 424 253 451 235 q 318 300 396 272 l 285 313 q 192 350 221 336 q 142 390 163 364 q 121 456 121 415 q 126 499 121 468 q 211 629 144 586 q 404 672 278 672 q 575 649 500 672 l 560 581 q 401 606 485 606 q 258 581 303 606 q 201 500 213 557 q 199 472 199 490 q 229 416 199 435 q 346 368 260 397 q 487 303 444 335 q 529 213 529 271 q 524 167 529 189 q 238 -14 485 -14 z "},"ś":{"ha":621,"x_min":42,"x_max":585,"o":"m 513 944 l 585 944 l 435 725 l 372 725 l 513 944 m 238 -14 q 128 -6 181 -14 q 42 14 76 1 l 56 82 q 242 51 139 51 q 386 78 339 51 q 447 167 433 104 q 451 197 451 183 q 424 253 451 235 q 318 300 396 272 l 285 313 q 192 350 221 336 q 142 390 163 364 q 121 456 121 415 q 126 499 121 468 q 211 629 144 586 q 404 672 278 672 q 575 649 500 672 l 560 581 q 401 606 485 606 q 258 581 303 606 q 201 500 213 557 q 199 472 199 490 q 229 416 199 435 q 346 368 260 397 q 487 303 444 335 q 529 213 529 271 q 524 167 529 189 q 238 -14 485 -14 z "},"š":{"ha":621,"x_min":42,"x_max":635,"o":"m 278 911 l 343 911 l 422 768 l 563 911 l 635 911 l 449 724 l 382 724 l 278 911 m 238 -14 q 128 -6 181 -14 q 42 14 76 1 l 56 82 q 242 51 139 51 q 386 78 339 51 q 447 167 433 104 q 451 197 451 183 q 424 253 451 235 q 318 300 396 272 l 285 313 q 192 350 221 336 q 142 390 163 364 q 121 456 121 415 q 126 499 121 468 q 211 629 144 586 q 404 672 278 672 q 575 649 500 672 l 560 581 q 401 606 485 606 q 258 581 303 606 q 201 500 213 557 q 199 472 199 490 q 229 416 199 435 q 346 368 260 397 q 487 303 444 335 q 529 213 529 271 q 524 167 529 189 q 238 -14 485 -14 z "},"ş":{"ha":621,"x_min":42,"x_max":575,"o":"m 401 606 q 258 581 303 606 q 201 500 213 557 q 199 472 199 490 q 229 416 199 435 q 346 368 260 397 q 487 303 444 335 q 529 213 529 271 q 524 167 529 189 q 285 -12 489 6 l 254 -71 q 388 -162 388 -71 q 385 -193 388 -182 q 163 -333 354 -333 q 115 -330 142 -333 q 74 -322 89 -326 l 85 -271 q 169 -282 122 -282 q 278 -262 242 -282 q 325 -193 315 -242 q 328 -172 328 -179 q 301 -129 328 -142 q 215 -117 274 -117 l 169 -117 l 225 -14 q 42 14 114 -11 l 56 82 q 242 51 139 51 q 386 78 339 51 q 447 167 433 104 q 451 197 451 183 q 424 253 451 235 q 318 300 396 272 l 285 313 q 192 350 221 336 q 142 390 163 364 q 121 456 121 415 q 126 499 121 468 q 211 629 144 586 q 404 672 278 672 q 575 649 500 672 l 560 581 q 401 606 485 606 z "},"ŝ":{"ha":621,"x_min":42,"x_max":601,"o":"m 429 925 l 496 925 l 601 738 l 535 738 l 456 881 l 315 738 l 244 738 l 429 925 m 238 -14 q 128 -6 181 -14 q 42 14 76 1 l 56 82 q 242 51 139 51 q 386 78 339 51 q 447 167 433 104 q 451 197 451 183 q 424 253 451 235 q 318 300 396 272 l 285 313 q 192 350 221 336 q 142 390 163 364 q 121 456 121 415 q 126 499 121 468 q 211 629 144 586 q 404 672 278 672 q 575 649 500 672 l 560 581 q 401 606 485 606 q 258 581 303 606 q 201 500 213 557 q 199 472 199 490 q 229 416 199 435 q 346 368 260 397 q 487 303 444 335 q 529 213 529 271 q 524 167 529 189 q 238 -14 485 -14 z "},"ș":{"ha":621,"x_min":42,"x_max":575,"o":"m 238 -14 q 128 -6 181 -14 q 42 14 76 1 l 56 82 q 242 51 139 51 q 386 78 339 51 q 447 167 433 104 q 451 197 451 183 q 424 253 451 235 q 318 300 396 272 l 285 313 q 192 350 221 336 q 142 390 163 364 q 121 456 121 415 q 126 499 121 468 q 211 629 144 586 q 404 672 278 672 q 575 649 500 672 l 560 581 q 401 606 485 606 q 258 581 303 606 q 201 500 213 557 q 199 472 199 490 q 229 416 199 435 q 346 368 260 397 q 487 303 444 335 q 529 213 529 271 q 524 167 529 189 q 238 -14 485 -14 m 207 -76 l 281 -76 l 183 -299 l 124 -299 l 207 -76 z "},"ṡ":{"ha":621,"x_min":42,"x_max":575,"o":"m 407 839 l 486 839 l 469 761 l 390 761 l 407 839 m 238 -14 q 128 -6 181 -14 q 42 14 76 1 l 56 82 q 242 51 139 51 q 386 78 339 51 q 447 167 433 104 q 451 197 451 183 q 424 253 451 235 q 318 300 396 272 l 285 313 q 192 350 221 336 q 142 390 163 364 q 121 456 121 415 q 126 499 121 468 q 211 629 144 586 q 404 672 278 672 q 575 649 500 672 l 560 581 q 401 606 485 606 q 258 581 303 606 q 201 500 213 557 q 199 472 199 490 q 229 416 199 435 q 346 368 260 397 q 487 303 444 335 q 529 213 529 271 q 524 167 529 189 q 238 -14 485 -14 z "},"ṣ":{"ha":621,"x_min":42,"x_max":575,"o":"m 238 -14 q 128 -6 181 -14 q 42 14 76 1 l 56 82 q 242 51 139 51 q 386 78 339 51 q 447 167 433 104 q 451 197 451 183 q 424 253 451 235 q 318 300 396 272 l 285 313 q 192 350 221 336 q 142 390 163 364 q 121 456 121 415 q 126 499 121 468 q 211 629 144 586 q 404 672 278 672 q 575 649 500 672 l 560 581 q 401 606 485 606 q 258 581 303 606 q 201 500 213 557 q 199 472 199 490 q 229 416 199 435 q 346 368 260 397 q 487 303 444 335 q 529 213 529 271 q 524 167 529 189 q 238 -14 485 -14 m 203 -132 l 285 -132 l 268 -211 l 186 -211 l 203 -132 z "},"ß":{"ha":861,"x_min":42,"x_max":849,"o":"m 451 -14 q 258 17 329 -14 l 272 83 q 457 51 342 51 q 621 107 556 51 q 708 265 686 163 q 717 331 717 301 q 674 431 717 396 q 539 465 632 465 l 418 465 l 431 526 l 557 526 q 699 578 646 526 q 769 711 753 629 q 776 769 776 746 q 726 870 776 835 q 560 906 676 906 q 360 843 436 906 q 257 658 283 781 l 118 0 l 42 0 l 182 664 q 314 890 213 808 q 574 972 415 972 q 780 917 711 972 q 849 771 849 863 q 842 711 849 746 q 780 575 825 633 q 675 493 735 517 q 761 435 731 478 q 792 328 792 392 q 785 263 792 292 q 669 58 756 131 q 451 -14 583 -14 z "},"ə":{"ha":729,"x_min":65,"x_max":681,"o":"m 289 -14 q 121 38 176 -14 q 65 176 65 89 q 74 250 65 213 l 99 368 l 599 368 q 607 454 607 417 q 555 573 607 538 q 371 608 503 608 q 185 574 275 608 l 199 636 q 399 672 288 672 q 611 617 542 672 q 681 447 681 563 q 665 325 681 397 q 541 72 631 158 q 289 -14 451 -14 m 301 49 q 492 113 426 49 q 586 310 557 178 l 156 310 l 142 246 q 133 176 133 208 q 173 81 133 114 q 301 49 213 49 z "},"t":{"ha":486,"x_min":118,"x_max":501,"o":"m 274 -14 q 163 20 201 -14 q 125 117 125 54 q 132 171 125 139 l 221 594 l 118 594 l 132 658 l 235 658 l 272 831 l 353 856 l 311 658 l 501 658 l 483 594 l 297 594 l 208 174 q 201 122 201 142 q 227 65 201 81 q 310 49 253 49 q 394 64 349 49 l 382 3 q 274 -14 332 -14 z "},"ŧ":{"ha":492,"x_min":68,"x_max":501,"o":"m 274 -14 q 163 20 201 -14 q 125 117 125 54 q 132 171 125 139 l 164 322 l 68 322 l 81 381 l 176 381 l 221 594 l 118 594 l 132 658 l 235 658 l 272 831 l 353 856 l 311 658 l 501 658 l 483 594 l 297 594 l 251 381 l 450 381 l 438 322 l 239 322 l 208 174 q 203 131 203 143 q 229 69 203 89 q 313 49 256 49 q 394 64 349 49 l 382 3 q 274 -14 332 -14 z "},"ť":{"ha":536,"x_min":118,"x_max":672,"o":"m 599 1007 l 672 1007 l 571 778 l 514 778 l 599 1007 m 274 -14 q 163 20 201 -14 q 125 117 125 54 q 132 171 125 139 l 221 594 l 118 594 l 132 658 l 235 658 l 272 831 l 353 856 l 311 658 l 501 658 l 483 594 l 297 594 l 208 174 q 201 122 201 142 q 227 65 201 81 q 310 49 253 49 q 394 64 349 49 l 382 3 q 274 -14 332 -14 z "},"ţ":{"ha":517,"x_min":67,"x_max":501,"o":"m 156 -333 q 108 -330 135 -333 q 67 -322 82 -326 l 78 -271 q 163 -282 115 -282 q 272 -262 235 -282 q 318 -193 308 -242 q 321 -172 321 -179 q 294 -129 321 -142 q 208 -117 267 -117 l 163 -117 l 221 -8 q 151 36 175 4 q 126 118 126 68 q 132 171 126 147 l 221 594 l 118 594 l 132 658 l 235 658 l 272 831 l 353 856 l 311 658 l 501 658 l 483 594 l 297 594 l 208 174 q 201 122 201 142 q 227 65 201 81 q 310 49 253 49 q 394 64 349 49 l 382 3 q 276 -14 332 -14 l 247 -71 q 381 -162 381 -71 q 378 -193 381 -182 q 156 -333 347 -333 z "},"ț":{"ha":486,"x_min":118,"x_max":501,"o":"m 274 -14 q 163 20 201 -14 q 125 117 125 54 q 132 171 125 139 l 221 594 l 118 594 l 132 658 l 235 658 l 272 831 l 353 856 l 311 658 l 501 658 l 483 594 l 297 594 l 208 174 q 201 122 201 142 q 227 65 201 81 q 310 49 253 49 q 394 64 349 49 l 382 3 q 274 -14 332 -14 m 222 -56 l 296 -56 l 194 -285 l 138 -285 l 222 -56 z "},"ẗ":{"ha":486,"x_min":118,"x_max":503,"o":"m 193 974 l 272 974 l 256 897 l 178 897 l 193 974 m 425 974 l 503 974 l 486 897 l 408 897 l 425 974 m 274 -14 q 163 20 201 -14 q 125 117 125 54 q 132 171 125 139 l 221 594 l 118 594 l 132 658 l 235 658 l 272 831 l 353 856 l 311 658 l 501 658 l 483 594 l 297 594 l 208 174 q 201 122 201 142 q 227 65 201 81 q 310 49 253 49 q 394 64 349 49 l 382 3 q 274 -14 332 -14 z "},"ṭ":{"ha":486,"x_min":118,"x_max":501,"o":"m 274 -14 q 163 20 201 -14 q 125 117 125 54 q 132 171 125 139 l 221 594 l 118 594 l 132 658 l 235 658 l 272 831 l 353 856 l 311 658 l 501 658 l 483 594 l 297 594 l 208 174 q 201 122 201 142 q 227 65 201 81 q 310 49 253 49 q 394 64 349 49 l 382 3 q 274 -14 332 -14 m 194 -129 l 276 -129 l 260 -208 l 178 -208 l 194 -129 z "},"ṯ":{"ha":501,"x_min":1,"x_max":501,"o":"m 274 -14 q 163 20 201 -14 q 125 117 125 54 q 132 171 125 139 l 221 594 l 118 594 l 132 658 l 235 658 l 272 831 l 353 856 l 311 658 l 501 658 l 483 594 l 297 594 l 208 174 q 201 122 201 142 q 227 65 201 81 q 310 49 253 49 q 394 64 349 49 l 382 3 q 274 -14 332 -14 m 14 -100 l 397 -100 l 385 -158 l 1 -158 l 14 -100 z "},"u":{"ha":776,"x_min":83,"x_max":756,"o":"m 278 -14 q 133 32 183 -14 q 83 164 83 78 q 92 242 83 200 l 181 658 l 257 658 l 168 239 q 160 168 160 200 q 199 76 160 104 q 324 49 238 49 q 453 74 390 49 q 571 144 517 100 l 679 658 l 756 658 l 617 0 l 549 0 l 558 81 q 428 10 496 35 q 278 -14 360 -14 z "},"ú":{"ha":776,"x_min":83,"x_max":756,"o":"m 575 944 l 647 944 l 497 725 l 435 725 l 575 944 m 278 -14 q 133 32 183 -14 q 83 164 83 78 q 92 242 83 200 l 181 658 l 257 658 l 168 239 q 160 168 160 200 q 199 76 160 104 q 324 49 238 49 q 453 74 390 49 q 571 144 517 100 l 679 658 l 756 658 l 617 0 l 549 0 l 558 81 q 428 10 496 35 q 278 -14 360 -14 z "},"ŭ":{"ha":776,"x_min":83,"x_max":756,"o":"m 486 724 q 394 755 426 724 q 361 839 361 786 q 365 878 361 857 l 421 878 q 417 844 417 860 q 494 778 417 778 q 572 804 539 778 q 614 878 604 831 l 675 878 q 610 766 660 808 q 486 724 560 724 m 278 -14 q 133 32 183 -14 q 83 164 83 78 q 92 242 83 200 l 181 658 l 257 658 l 168 239 q 160 168 160 200 q 199 76 160 104 q 324 49 238 49 q 453 74 390 49 q 571 144 517 100 l 679 658 l 756 658 l 617 0 l 549 0 l 558 81 q 428 10 496 35 q 278 -14 360 -14 z "},"ǔ":{"ha":776,"x_min":83,"x_max":756,"o":"m 346 911 l 411 911 l 490 768 l 631 911 l 703 911 l 517 724 l 450 724 l 346 911 m 278 -14 q 133 32 183 -14 q 83 164 83 78 q 92 242 83 200 l 181 658 l 257 658 l 168 239 q 160 168 160 200 q 199 76 160 104 q 324 49 238 49 q 453 74 390 49 q 571 144 517 100 l 679 658 l 756 658 l 617 0 l 549 0 l 558 81 q 428 10 496 35 q 278 -14 360 -14 z "},"û":{"ha":776,"x_min":83,"x_max":756,"o":"m 488 911 l 554 911 l 660 724 l 593 724 l 514 867 l 374 724 l 303 724 l 488 911 m 278 -14 q 133 32 183 -14 q 83 164 83 78 q 92 242 83 200 l 181 658 l 257 658 l 168 239 q 160 168 160 200 q 199 76 160 104 q 324 49 238 49 q 453 74 390 49 q 571 144 517 100 l 679 658 l 756 658 l 617 0 l 549 0 l 558 81 q 428 10 496 35 q 278 -14 360 -14 z "},"ü":{"ha":776,"x_min":83,"x_max":756,"o":"m 346 835 l 425 835 l 408 758 l 331 758 l 346 835 m 578 835 l 656 835 l 639 758 l 561 758 l 578 835 m 278 -14 q 133 32 183 -14 q 83 164 83 78 q 92 242 83 200 l 181 658 l 257 658 l 168 239 q 160 168 160 200 q 199 76 160 104 q 324 49 238 49 q 453 74 390 49 q 571 144 517 100 l 679 658 l 756 658 l 617 0 l 549 0 l 558 81 q 428 10 496 35 q 278 -14 360 -14 z "},"ǘ":{"ha":776,"x_min":83,"x_max":756,"o":"m 589 993 l 658 993 l 533 831 l 471 831 l 589 993 m 336 800 l 415 800 l 399 724 l 319 724 l 336 800 m 582 800 l 658 800 l 642 724 l 565 724 l 582 800 m 278 -14 q 133 32 183 -14 q 83 164 83 78 q 92 242 83 200 l 181 658 l 257 658 l 168 239 q 160 168 160 200 q 199 76 160 104 q 324 49 238 49 q 453 74 390 49 q 571 144 517 100 l 679 658 l 756 658 l 617 0 l 549 0 l 558 81 q 428 10 496 35 q 278 -14 360 -14 z "},"ǚ":{"ha":776,"x_min":83,"x_max":756,"o":"m 363 983 l 431 983 l 514 865 l 646 983 l 714 983 l 539 831 l 472 831 l 363 983 m 335 800 l 414 800 l 397 724 l 318 724 l 335 800 m 581 800 l 657 800 l 640 724 l 564 724 l 581 800 m 278 -14 q 133 32 183 -14 q 83 164 83 78 q 92 242 83 200 l 181 658 l 257 658 l 168 239 q 160 168 160 200 q 199 76 160 104 q 324 49 238 49 q 453 74 390 49 q 571 144 517 100 l 679 658 l 756 658 l 617 0 l 549 0 l 558 81 q 428 10 496 35 q 278 -14 360 -14 z "},"ǜ":{"ha":776,"x_min":83,"x_max":756,"o":"m 421 993 l 492 993 l 540 831 l 478 831 l 421 993 m 340 800 l 418 800 l 401 724 l 324 724 l 340 800 m 585 800 l 663 800 l 646 724 l 568 724 l 585 800 m 278 -14 q 133 32 183 -14 q 83 164 83 78 q 92 242 83 200 l 181 658 l 257 658 l 168 239 q 160 168 160 200 q 199 76 160 104 q 324 49 238 49 q 453 74 390 49 q 571 144 517 100 l 679 658 l 756 658 l 617 0 l 549 0 l 558 81 q 428 10 496 35 q 278 -14 360 -14 z "},"ǖ":{"ha":776,"x_min":83,"x_max":756,"o":"m 363 983 l 746 983 l 733 925 l 350 925 l 363 983 m 357 833 l 436 833 l 419 757 l 342 757 l 357 833 m 589 833 l 667 833 l 650 757 l 572 757 l 589 833 m 278 -14 q 133 32 183 -14 q 83 164 83 78 q 92 242 83 200 l 181 658 l 257 658 l 168 239 q 160 168 160 200 q 199 76 160 104 q 324 49 238 49 q 453 74 390 49 q 571 144 517 100 l 679 658 l 756 658 l 617 0 l 549 0 l 558 81 q 428 10 496 35 q 278 -14 360 -14 z "},"ụ":{"ha":776,"x_min":83,"x_max":756,"o":"m 278 -14 q 133 32 183 -14 q 83 164 83 78 q 92 242 83 200 l 181 658 l 257 658 l 168 239 q 160 168 160 200 q 199 76 160 104 q 324 49 238 49 q 453 74 390 49 q 571 144 517 100 l 679 658 l 756 658 l 617 0 l 549 0 l 558 81 q 428 10 496 35 q 278 -14 360 -14 m 250 -132 l 332 -132 l 315 -211 l 233 -211 l 250 -132 z "},"ù":{"ha":776,"x_min":83,"x_max":756,"o":"m 406 944 l 478 944 l 524 725 l 461 725 l 406 944 m 278 -14 q 133 32 183 -14 q 83 164 83 78 q 92 242 83 200 l 181 658 l 257 658 l 168 239 q 160 168 160 200 q 199 76 160 104 q 324 49 238 49 q 453 74 390 49 q 571 144 517 100 l 679 658 l 756 658 l 617 0 l 549 0 l 558 81 q 428 10 496 35 q 278 -14 360 -14 z "},"ủ":{"ha":776,"x_min":83,"x_max":756,"o":"m 469 835 q 555 847 525 838 q 598 872 585 856 q 617 917 611 888 q 619 936 619 931 q 518 990 619 990 q 468 985 496 990 q 421 974 440 981 l 432 1026 q 485 1038 453 1033 q 543 1043 518 1043 q 646 1019 611 1043 q 681 950 681 996 q 678 921 681 931 q 631 834 665 864 q 526 797 597 804 l 511 725 l 446 725 l 469 835 m 278 -14 q 133 32 183 -14 q 83 164 83 78 q 92 242 83 200 l 181 658 l 257 658 l 168 239 q 160 168 160 200 q 199 76 160 104 q 324 49 238 49 q 453 74 390 49 q 571 144 517 100 l 679 658 l 756 658 l 617 0 l 549 0 l 558 81 q 428 10 496 35 q 278 -14 360 -14 z "},"ư":{"ha":915,"x_min":83,"x_max":968,"o":"m 278 -14 q 133 32 183 -14 q 83 164 83 78 q 92 242 83 200 l 181 658 l 257 658 l 168 239 q 160 168 160 200 q 199 76 160 104 q 324 49 238 49 q 453 74 390 49 q 571 144 517 100 l 679 658 l 756 658 l 736 571 q 845 614 808 575 q 901 744 882 653 l 968 744 q 882 570 943 625 q 724 511 821 515 l 617 0 l 549 0 l 558 81 q 428 10 496 35 q 278 -14 360 -14 z "},"ứ":{"ha":915,"x_min":83,"x_max":968,"o":"m 604 944 l 676 944 l 526 725 l 464 725 l 604 944 m 278 -14 q 133 32 183 -14 q 83 164 83 78 q 92 242 83 200 l 181 658 l 257 658 l 168 239 q 160 168 160 200 q 199 76 160 104 q 324 49 238 49 q 453 74 390 49 q 571 144 517 100 l 679 658 l 756 658 l 736 571 q 845 614 808 575 q 901 744 882 653 l 968 744 q 882 570 943 625 q 724 511 821 515 l 617 0 l 549 0 l 558 81 q 428 10 496 35 q 278 -14 360 -14 z "},"ự":{"ha":915,"x_min":83,"x_max":968,"o":"m 278 -14 q 133 32 183 -14 q 83 164 83 78 q 92 242 83 200 l 181 658 l 257 658 l 168 239 q 160 168 160 200 q 199 76 160 104 q 324 49 238 49 q 453 74 390 49 q 571 144 517 100 l 679 658 l 756 658 l 736 571 q 845 614 808 575 q 901 744 882 653 l 968 744 q 882 570 943 625 q 724 511 821 515 l 617 0 l 549 0 l 558 81 q 428 10 496 35 q 278 -14 360 -14 m 258 -132 l 340 -132 l 324 -211 l 242 -211 l 258 -132 z "},"ừ":{"ha":915,"x_min":83,"x_max":968,"o":"m 418 944 l 490 944 l 536 725 l 474 725 l 418 944 m 278 -14 q 133 32 183 -14 q 83 164 83 78 q 92 242 83 200 l 181 658 l 257 658 l 168 239 q 160 168 160 200 q 199 76 160 104 q 324 49 238 49 q 453 74 390 49 q 571 144 517 100 l 679 658 l 756 658 l 736 571 q 845 614 808 575 q 901 744 882 653 l 968 744 q 882 570 943 625 q 724 511 821 515 l 617 0 l 549 0 l 558 81 q 428 10 496 35 q 278 -14 360 -14 z "},"ử":{"ha":915,"x_min":83,"x_max":968,"o":"m 482 835 q 567 847 538 838 q 610 872 597 856 q 629 917 624 888 q 632 936 632 931 q 531 990 632 990 q 481 985 508 990 q 433 974 453 981 l 444 1026 q 498 1038 465 1033 q 556 1043 531 1043 q 658 1019 624 1043 q 693 950 693 996 q 690 921 693 931 q 644 834 678 864 q 539 797 610 804 l 524 725 l 458 725 l 482 835 m 278 -14 q 133 32 183 -14 q 83 164 83 78 q 92 242 83 200 l 181 658 l 257 658 l 168 239 q 160 168 160 200 q 199 76 160 104 q 324 49 238 49 q 453 74 390 49 q 571 144 517 100 l 679 658 l 756 658 l 736 571 q 845 614 808 575 q 901 744 882 653 l 968 744 q 882 570 943 625 q 724 511 821 515 l 617 0 l 549 0 l 558 81 q 428 10 496 35 q 278 -14 360 -14 z "},"ữ":{"ha":915,"x_min":83,"x_max":968,"o":"m 604 758 q 558 765 581 758 q 508 786 536 772 q 466 803 483 797 q 431 810 449 810 q 311 761 360 810 l 325 826 q 377 856 344 844 q 442 867 410 867 q 486 860 467 867 q 533 840 506 854 q 576 822 558 828 q 614 815 593 815 q 725 864 681 815 l 711 799 q 666 769 694 779 q 604 758 638 758 m 278 -14 q 133 32 183 -14 q 83 164 83 78 q 92 242 83 200 l 181 658 l 257 658 l 168 239 q 160 168 160 200 q 199 76 160 104 q 324 49 238 49 q 453 74 390 49 q 571 144 517 100 l 679 658 l 756 658 l 736 571 q 845 614 808 575 q 901 744 882 653 l 968 744 q 882 570 943 625 q 724 511 821 515 l 617 0 l 549 0 l 558 81 q 428 10 496 35 q 278 -14 360 -14 z "},"ű":{"ha":776,"x_min":83,"x_max":764,"o":"m 413 919 l 488 919 l 342 724 l 279 724 l 413 919 m 689 919 l 764 919 l 617 724 l 554 724 l 689 919 m 278 -14 q 133 32 183 -14 q 83 164 83 78 q 92 242 83 200 l 181 658 l 257 658 l 168 239 q 160 168 160 200 q 199 76 160 104 q 324 49 238 49 q 453 74 390 49 q 571 144 517 100 l 679 658 l 756 658 l 617 0 l 549 0 l 558 81 q 428 10 496 35 q 278 -14 360 -14 z "},"ū":{"ha":776,"x_min":83,"x_max":756,"o":"m 314 826 l 697 826 l 685 768 l 301 768 l 314 826 m 278 -14 q 133 32 183 -14 q 83 164 83 78 q 92 242 83 200 l 181 658 l 257 658 l 168 239 q 160 168 160 200 q 199 76 160 104 q 324 49 238 49 q 453 74 390 49 q 571 144 517 100 l 679 658 l 756 658 l 617 0 l 549 0 l 558 81 q 428 10 496 35 q 278 -14 360 -14 z "},"ų":{"ha":776,"x_min":83,"x_max":756,"o":"m 511 -306 q 434 -285 463 -306 q 406 -219 406 -264 q 448 -98 406 -158 q 549 0 490 -37 l 558 81 q 428 10 496 35 q 278 -14 360 -14 q 133 32 183 -14 q 83 164 83 78 q 92 242 83 200 l 181 658 l 257 658 l 168 239 q 160 168 160 200 q 199 76 160 104 q 324 49 238 49 q 453 74 390 49 q 571 144 517 100 l 679 658 l 756 658 l 617 0 q 523 -83 558 -37 q 476 -178 488 -129 q 474 -203 474 -187 q 488 -238 474 -228 q 535 -249 503 -249 q 607 -233 576 -249 l 594 -290 q 511 -306 563 -306 z "},"ů":{"ha":776,"x_min":83,"x_max":756,"o":"m 489 724 q 405 755 436 724 q 374 833 374 786 q 376 864 374 853 q 436 965 389 925 q 549 1006 483 1006 q 633 975 601 1006 q 664 896 664 944 q 661 864 664 875 q 601 764 649 804 q 489 724 554 724 m 499 774 q 579 808 546 774 q 613 889 613 842 q 594 938 613 919 q 538 956 575 956 q 458 922 492 956 q 424 840 424 888 q 442 792 424 810 q 499 774 461 774 m 278 -14 q 133 32 183 -14 q 83 164 83 78 q 92 242 83 200 l 181 658 l 257 658 l 168 239 q 160 168 160 200 q 199 76 160 104 q 324 49 238 49 q 453 74 390 49 q 571 144 517 100 l 679 658 l 756 658 l 617 0 l 549 0 l 558 81 q 428 10 496 35 q 278 -14 360 -14 z "},"ũ":{"ha":776,"x_min":83,"x_max":756,"o":"m 593 760 q 547 767 569 760 q 497 788 525 774 q 455 805 472 799 q 419 811 438 811 q 300 763 349 811 l 314 828 q 366 857 333 846 q 431 868 399 868 q 475 862 456 868 q 522 842 494 856 q 565 823 547 829 q 603 817 582 817 q 714 865 669 817 l 700 800 q 655 770 683 781 q 593 760 626 760 m 278 -14 q 133 32 183 -14 q 83 164 83 78 q 92 242 83 200 l 181 658 l 257 658 l 168 239 q 160 168 160 200 q 199 76 160 104 q 324 49 238 49 q 453 74 390 49 q 571 144 517 100 l 679 658 l 756 658 l 617 0 l 549 0 l 558 81 q 428 10 496 35 q 278 -14 360 -14 z "},"v":{"ha":758,"x_min":160,"x_max":765,"o":"m 160 658 l 235 658 l 332 64 l 683 658 l 765 658 l 369 0 l 278 0 l 160 658 z "},"w":{"ha":999,"x_min":160,"x_max":1006,"o":"m 160 658 l 236 658 l 257 78 l 531 586 l 546 658 l 606 658 l 663 78 l 929 658 l 1006 658 l 696 0 l 618 0 l 561 524 l 279 0 l 192 0 l 160 658 z "},"ẃ":{"ha":999,"x_min":160,"x_max":1006,"o":"m 701 944 l 774 944 l 624 725 l 561 725 l 701 944 m 160 658 l 236 658 l 257 78 l 531 586 l 546 658 l 606 658 l 663 78 l 929 658 l 1006 658 l 696 0 l 618 0 l 561 524 l 279 0 l 192 0 l 160 658 z "},"ŵ":{"ha":999,"x_min":160,"x_max":1006,"o":"m 606 911 l 672 911 l 778 724 l 711 724 l 632 867 l 492 724 l 421 724 l 606 911 m 160 658 l 236 658 l 257 78 l 531 586 l 546 658 l 606 658 l 663 78 l 929 658 l 1006 658 l 696 0 l 618 0 l 561 524 l 279 0 l 192 0 l 160 658 z "},"ẅ":{"ha":999,"x_min":160,"x_max":1006,"o":"m 467 835 l 546 835 l 529 758 l 451 758 l 467 835 m 699 835 l 776 835 l 760 758 l 682 758 l 699 835 m 160 658 l 236 658 l 257 78 l 531 586 l 546 658 l 606 658 l 663 78 l 929 658 l 1006 658 l 696 0 l 618 0 l 561 524 l 279 0 l 192 0 l 160 658 z "},"ẁ":{"ha":999,"x_min":160,"x_max":1006,"o":"m 501 944 l 574 944 l 619 725 l 557 725 l 501 944 m 160 658 l 236 658 l 257 78 l 531 586 l 546 658 l 606 658 l 663 78 l 929 658 l 1006 658 l 696 0 l 618 0 l 561 524 l 279 0 l 192 0 l 160 658 z "},"x":{"ha":733,"x_min":21,"x_max":731,"o":"m 340 335 l 167 658 l 250 658 l 392 388 l 649 658 l 731 658 l 425 335 l 601 0 l 518 0 l 369 283 l 103 0 l 21 0 l 340 335 z "},"y":{"ha":786,"x_min":83,"x_max":756,"o":"m 246 -244 q 161 -240 208 -244 q 90 -231 114 -236 l 104 -164 q 172 -176 131 -172 q 246 -181 213 -181 q 440 -137 360 -181 q 539 -11 519 -93 l 558 81 q 428 10 496 35 q 278 -14 360 -14 q 133 32 183 -14 q 83 164 83 78 q 92 242 83 200 l 181 658 l 257 658 l 168 239 q 160 168 160 200 q 199 76 160 104 q 324 49 238 49 q 453 74 390 49 q 571 144 517 100 l 679 658 l 756 658 l 615 -4 q 546 -131 600 -76 q 413 -215 492 -185 q 246 -244 333 -244 z "},"ý":{"ha":786,"x_min":83,"x_max":756,"o":"m 597 944 l 669 944 l 519 725 l 457 725 l 597 944 m 246 -244 q 161 -240 208 -244 q 90 -231 114 -236 l 104 -164 q 172 -176 131 -172 q 246 -181 213 -181 q 440 -137 360 -181 q 539 -11 519 -93 l 558 81 q 428 10 496 35 q 278 -14 360 -14 q 133 32 183 -14 q 83 164 83 78 q 92 242 83 200 l 181 658 l 257 658 l 168 239 q 160 168 160 200 q 199 76 160 104 q 324 49 238 49 q 453 74 390 49 q 571 144 517 100 l 679 658 l 756 658 l 615 -4 q 546 -131 600 -76 q 413 -215 492 -185 q 246 -244 333 -244 z "},"ŷ":{"ha":786,"x_min":83,"x_max":756,"o":"m 511 911 l 578 911 l 683 724 l 617 724 l 538 867 l 397 724 l 326 724 l 511 911 m 246 -244 q 161 -240 208 -244 q 90 -231 114 -236 l 104 -164 q 172 -176 131 -172 q 246 -181 213 -181 q 440 -137 360 -181 q 539 -11 519 -93 l 558 81 q 428 10 496 35 q 278 -14 360 -14 q 133 32 183 -14 q 83 164 83 78 q 92 242 83 200 l 181 658 l 257 658 l 168 239 q 160 168 160 200 q 199 76 160 104 q 324 49 238 49 q 453 74 390 49 q 571 144 517 100 l 679 658 l 756 658 l 615 -4 q 546 -131 600 -76 q 413 -215 492 -185 q 246 -244 333 -244 z "},"ÿ":{"ha":786,"x_min":83,"x_max":756,"o":"m 378 842 l 457 842 l 440 765 l 363 765 l 378 842 m 610 842 l 688 842 l 671 765 l 593 765 l 610 842 m 246 -244 q 161 -240 208 -244 q 90 -231 114 -236 l 104 -164 q 172 -176 131 -172 q 246 -181 213 -181 q 440 -137 360 -181 q 539 -11 519 -93 l 558 81 q 428 10 496 35 q 278 -14 360 -14 q 133 32 183 -14 q 83 164 83 78 q 92 242 83 200 l 181 658 l 257 658 l 168 239 q 160 168 160 200 q 199 76 160 104 q 324 49 238 49 q 453 74 390 49 q 571 144 517 100 l 679 658 l 756 658 l 615 -4 q 546 -131 600 -76 q 413 -215 492 -185 q 246 -244 333 -244 z "},"ẏ":{"ha":786,"x_min":83,"x_max":756,"o":"m 486 839 l 565 839 l 549 761 l 469 761 l 486 839 m 246 -244 q 161 -240 208 -244 q 90 -231 114 -236 l 104 -164 q 172 -176 131 -172 q 246 -181 213 -181 q 440 -137 360 -181 q 539 -11 519 -93 l 558 81 q 428 10 496 35 q 278 -14 360 -14 q 133 32 183 -14 q 83 164 83 78 q 92 242 83 200 l 181 658 l 257 658 l 168 239 q 160 168 160 200 q 199 76 160 104 q 324 49 238 49 q 453 74 390 49 q 571 144 517 100 l 679 658 l 756 658 l 615 -4 q 546 -131 600 -76 q 413 -215 492 -185 q 246 -244 333 -244 z "},"ỵ":{"ha":786,"x_min":83,"x_max":756,"o":"m 246 -244 q 161 -240 208 -244 q 90 -231 114 -236 l 104 -164 q 172 -176 131 -172 q 246 -181 213 -181 q 440 -137 360 -181 q 539 -11 519 -93 l 558 81 q 428 10 496 35 q 278 -14 360 -14 q 133 32 183 -14 q 83 164 83 78 q 92 242 83 200 l 181 658 l 257 658 l 168 239 q 160 168 160 200 q 199 76 160 104 q 324 49 238 49 q 453 74 390 49 q 571 144 517 100 l 679 658 l 756 658 l 615 -4 q 546 -131 600 -76 q 413 -215 492 -185 q 246 -244 333 -244 m 625 -108 l 707 -108 l 690 -187 l 608 -187 l 625 -108 z "},"ỳ":{"ha":786,"x_min":83,"x_max":756,"o":"m 426 944 l 499 944 l 544 725 l 482 725 l 426 944 m 246 -244 q 161 -240 208 -244 q 90 -231 114 -236 l 104 -164 q 172 -176 131 -172 q 246 -181 213 -181 q 440 -137 360 -181 q 539 -11 519 -93 l 558 81 q 428 10 496 35 q 278 -14 360 -14 q 133 32 183 -14 q 83 164 83 78 q 92 242 83 200 l 181 658 l 257 658 l 168 239 q 160 168 160 200 q 199 76 160 104 q 324 49 238 49 q 453 74 390 49 q 571 144 517 100 l 679 658 l 756 658 l 615 -4 q 546 -131 600 -76 q 413 -215 492 -185 q 246 -244 333 -244 z "},"ỷ":{"ha":786,"x_min":83,"x_max":756,"o":"m 494 835 q 580 847 550 838 q 623 872 610 856 q 642 917 636 888 q 644 936 644 931 q 543 990 644 990 q 493 985 521 990 q 446 974 465 981 l 457 1026 q 510 1038 478 1033 q 568 1043 543 1043 q 671 1019 636 1043 q 706 950 706 996 q 703 921 706 931 q 656 834 690 864 q 551 797 622 804 l 536 725 l 471 725 l 494 835 m 246 -244 q 161 -240 208 -244 q 90 -231 114 -236 l 104 -164 q 172 -176 131 -172 q 246 -181 213 -181 q 440 -137 360 -181 q 539 -11 519 -93 l 558 81 q 428 10 496 35 q 278 -14 360 -14 q 133 32 183 -14 q 83 164 83 78 q 92 242 83 200 l 181 658 l 257 658 l 168 239 q 160 168 160 200 q 199 76 160 104 q 324 49 238 49 q 453 74 390 49 q 571 144 517 100 l 679 658 l 756 658 l 615 -4 q 546 -131 600 -76 q 413 -215 492 -185 q 246 -244 333 -244 z "},"ỹ":{"ha":786,"x_min":83,"x_max":756,"o":"m 607 760 q 561 767 583 760 q 511 788 539 774 q 469 805 486 799 q 433 811 451 811 q 314 763 363 811 l 328 828 q 380 857 347 846 q 444 868 413 868 q 489 862 469 868 q 536 842 508 856 q 578 823 561 829 q 617 817 596 817 q 728 865 683 817 l 714 800 q 669 770 697 781 q 607 760 640 760 m 246 -244 q 161 -240 208 -244 q 90 -231 114 -236 l 104 -164 q 172 -176 131 -172 q 246 -181 213 -181 q 440 -137 360 -181 q 539 -11 519 -93 l 558 81 q 428 10 496 35 q 278 -14 360 -14 q 133 32 183 -14 q 83 164 83 78 q 92 242 83 200 l 181 658 l 257 658 l 168 239 q 160 168 160 200 q 199 76 160 104 q 324 49 238 49 q 453 74 390 49 q 571 144 517 100 l 679 658 l 756 658 l 615 -4 q 546 -131 600 -76 q 413 -215 492 -185 q 246 -244 333 -244 z "},"z":{"ha":665,"x_min":21,"x_max":664,"o":"m 31 47 l 560 594 l 165 594 l 179 658 l 664 658 l 653 606 l 126 63 l 546 63 l 533 0 l 21 0 l 31 47 z "},"ź":{"ha":665,"x_min":21,"x_max":664,"o":"m 549 944 l 621 944 l 471 725 l 408 725 l 549 944 m 31 47 l 560 594 l 165 594 l 179 658 l 664 658 l 653 606 l 126 63 l 546 63 l 533 0 l 21 0 l 31 47 z "},"ž":{"ha":665,"x_min":21,"x_max":664,"o":"m 286 911 l 351 911 l 431 768 l 571 911 l 643 911 l 457 724 l 390 724 l 286 911 m 31 47 l 560 594 l 165 594 l 179 658 l 664 658 l 653 606 l 126 63 l 546 63 l 533 0 l 21 0 l 31 47 z "},"ż":{"ha":665,"x_min":21,"x_max":664,"o":"m 425 839 l 504 839 l 488 761 l 408 761 l 425 839 m 31 47 l 560 594 l 165 594 l 179 658 l 664 658 l 653 606 l 126 63 l 546 63 l 533 0 l 21 0 l 31 47 z "},"ẓ":{"ha":665,"x_min":21,"x_max":664,"o":"m 31 47 l 560 594 l 165 594 l 179 658 l 664 658 l 653 606 l 126 63 l 546 63 l 533 0 l 21 0 l 31 47 m 218 -132 l 300 -132 l 283 -211 l 201 -211 l 218 -132 z "},"ﬁ":{"ha":686,"x_min":94,"x_max":665,"o":"m 219 594 l 118 594 l 132 658 l 233 658 l 254 754 q 347 909 275 853 q 526 965 419 965 q 664 943 619 965 l 650 882 q 601 897 633 892 q 532 901 568 901 q 393 867 439 901 q 331 756 347 832 l 310 658 l 665 658 l 526 0 l 450 0 l 575 594 l 296 594 l 171 0 l 94 0 l 219 594 z "},"ﬂ":{"ha":686,"x_min":94,"x_max":726,"o":"m 219 594 l 118 594 l 132 658 l 233 658 l 254 754 q 345 910 275 854 q 526 965 415 965 q 667 943 610 965 l 726 943 l 526 0 l 450 0 l 575 594 l 296 594 l 171 0 l 94 0 l 219 594 m 589 658 l 636 882 q 532 901 594 901 q 394 866 442 901 q 331 756 346 831 l 310 658 l 589 658 z "},"ª":{"ha":483,"x_min":151,"x_max":519,"o":"m 264 528 q 182 548 213 528 q 151 608 151 568 q 154 633 151 617 q 322 750 179 750 l 453 750 l 458 774 q 463 807 463 793 q 441 848 463 836 q 363 860 419 860 q 246 840 304 860 l 257 889 q 386 908 315 908 q 484 884 449 908 q 519 811 519 860 q 515 776 519 796 l 465 536 l 414 536 l 418 581 q 349 540 386 553 q 264 528 311 528 m 288 572 q 364 586 331 572 q 428 631 397 600 l 443 706 l 317 706 q 242 690 265 706 q 210 635 218 674 q 207 617 207 621 q 226 583 207 593 q 288 572 246 572 z "},"º":{"ha":504,"x_min":165,"x_max":531,"o":"m 307 528 q 165 653 165 528 q 172 718 165 689 q 245 860 193 813 q 389 908 297 908 q 531 782 531 908 q 524 718 531 747 q 451 575 503 622 q 307 528 399 528 m 317 575 q 417 610 382 575 q 467 718 451 646 q 474 778 474 756 q 451 840 474 819 q 378 860 429 860 q 278 824 314 860 q 228 718 243 789 q 219 654 219 683 q 242 594 219 614 q 317 575 264 575 z "},"ⁿ":{"ha":504,"x_min":142,"x_max":542,"o":"m 218 900 l 271 900 l 264 856 q 339 894 300 881 q 425 907 378 907 q 542 814 542 907 q 538 778 542 797 l 486 536 l 429 536 l 476 763 q 482 803 482 793 q 463 847 482 833 q 396 860 443 860 q 322 845 358 860 q 256 806 286 831 l 199 536 l 142 536 l 218 900 z "},"Δ":{"ha":910,"x_min":21,"x_max":788,"o":"m 31 47 l 543 894 l 632 894 l 788 46 l 778 0 l 21 0 l 31 47 m 714 61 l 576 825 l 114 61 l 714 61 z "},"Ω":{"ha":1071,"x_min":31,"x_max":1057,"o":"m 43 61 l 288 61 q 160 200 207 117 q 114 390 114 283 q 126 503 114 444 q 229 740 154 635 q 420 905 304 844 q 685 965 536 965 q 887 921 803 965 q 1014 798 971 876 q 1057 617 1057 719 q 1044 503 1057 561 q 922 242 1014 354 q 699 61 829 131 l 942 61 l 929 0 l 579 0 l 592 61 q 845 249 750 138 q 969 503 940 361 q 982 613 982 561 q 903 822 982 746 q 671 899 824 899 q 460 848 558 899 q 294 707 363 797 q 201 503 226 617 q 190 397 190 444 q 393 61 190 183 l 381 0 l 31 0 l 43 61 z "},"μ":{"ha":783,"x_min":6,"x_max":763,"o":"m 188 658 l 264 658 l 175 239 q 167 172 167 201 q 206 79 167 110 q 331 49 244 49 q 460 74 397 49 q 578 144 524 100 l 686 658 l 763 658 l 624 0 l 556 0 l 565 81 q 435 10 503 35 q 285 -14 367 -14 q 195 4 233 -14 q 136 53 157 22 l 82 -199 l 6 -199 l 188 658 z "},"π":{"ha":914,"x_min":103,"x_max":832,"o":"m 686 -14 q 583 20 618 -14 q 549 115 549 54 q 556 174 549 139 l 646 596 l 306 596 l 179 0 l 103 0 l 229 596 l 133 596 l 146 658 l 832 658 l 819 596 l 722 596 l 632 174 q 625 118 625 136 q 645 67 625 82 q 713 51 665 51 q 808 65 761 51 l 796 3 q 686 -14 746 -14 z "},"ก":{"ha":833,"x_min":69,"x_max":786,"o":"m 140 338 q 190 433 151 393 q 288 489 228 472 l 132 525 l 156 636 q 317 728 222 692 q 521 764 411 764 q 786 567 786 764 q 778 490 786 532 l 674 0 l 597 0 l 701 494 q 711 569 711 543 q 664 668 711 639 q 507 697 617 697 q 344 672 422 697 q 218 604 267 646 l 210 565 l 368 529 l 354 463 q 262 419 296 450 q 217 333 228 389 l 146 0 l 69 0 l 140 338 z "},"ถ":{"ha":833,"x_min":92,"x_max":786,"o":"m 189 0 q 117 24 142 0 q 92 90 92 47 q 96 126 92 108 l 140 338 q 190 433 151 393 q 288 489 228 472 l 132 525 l 156 636 q 318 727 222 690 q 525 764 414 764 q 786 568 786 764 q 778 490 786 532 l 674 0 l 597 0 l 701 494 q 710 569 710 536 q 663 669 710 640 q 510 697 617 697 q 345 672 425 697 q 218 604 265 646 l 210 565 l 368 529 l 354 463 q 217 333 238 436 l 175 140 q 171 106 171 119 q 184 74 171 83 q 228 64 197 64 l 313 64 l 300 0 l 189 0 z "},"ภ":{"ha":888,"x_min":21,"x_max":840,"o":"m 33 64 l 93 64 q 175 139 158 64 l 217 338 q 259 434 229 396 q 344 489 289 472 l 185 525 l 208 636 q 372 727 275 690 q 578 764 468 764 q 774 714 708 764 q 840 567 840 664 q 832 490 840 532 l 728 0 l 651 0 l 756 494 q 764 568 764 536 q 717 668 764 639 q 564 697 669 697 q 399 672 479 697 q 271 604 319 646 l 263 565 l 425 529 l 411 463 q 330 420 356 449 q 293 333 304 392 l 250 136 q 198 35 236 69 q 99 0 160 0 l 21 0 l 33 64 z "},"ฤ":{"ha":838,"x_min":92,"x_max":790,"o":"m 706 494 q 714 567 714 536 q 665 668 714 639 q 510 697 617 697 q 345 672 425 697 q 218 604 265 646 l 210 565 l 368 529 l 354 463 q 217 333 238 436 l 175 140 q 171 104 171 119 q 183 73 171 82 q 228 64 196 64 l 313 64 l 300 0 l 189 0 q 117 24 142 0 q 92 90 92 47 q 96 126 92 108 l 140 338 q 190 433 151 393 q 288 489 228 472 l 132 525 l 156 636 q 318 727 222 690 q 525 764 414 764 q 790 568 790 764 q 782 490 790 532 l 629 -222 l 553 -222 l 706 494 z "},"ฦ":{"ha":890,"x_min":21,"x_max":843,"o":"m 758 494 q 768 569 768 543 q 721 668 768 639 q 564 697 674 697 q 399 672 479 697 q 271 604 319 646 l 263 565 l 425 529 l 411 463 q 331 420 357 449 q 293 333 306 392 l 250 136 q 198 35 236 69 q 99 0 160 0 l 21 0 l 33 64 l 93 64 q 148 81 129 64 q 175 139 167 97 l 217 338 q 259 434 229 396 q 344 489 289 472 l 185 525 l 208 636 q 372 727 275 690 q 578 764 468 764 q 843 567 843 764 q 835 490 843 532 l 682 -222 l 606 -222 l 758 494 z "},"ฎ":{"ha":890,"x_min":21,"x_max":843,"o":"m 154 -204 q 406 -150 279 -150 q 611 -201 538 -150 l 758 494 q 767 565 767 535 q 719 667 767 636 q 564 697 671 697 q 399 672 479 697 q 271 604 319 646 l 263 565 l 425 529 l 411 463 q 331 420 357 449 q 293 333 306 392 l 250 136 q 198 35 236 69 q 99 0 160 0 l 21 0 l 33 64 l 93 64 q 175 139 158 64 l 217 338 q 259 434 229 396 q 344 489 289 472 l 185 525 l 208 636 q 372 727 275 690 q 578 764 468 764 q 843 567 843 764 q 835 490 843 532 l 672 -269 l 599 -269 q 503 -228 551 -242 q 388 -215 456 -215 q 265 -228 324 -215 q 140 -271 207 -242 l 154 -204 z "},"ฏ":{"ha":890,"x_min":21,"x_max":843,"o":"m 503 -271 q 424 -254 457 -271 q 379 -210 392 -237 q 322 -253 358 -237 q 238 -269 285 -269 l 122 -269 l 143 -201 l 242 -201 q 311 -188 283 -201 q 367 -142 339 -175 l 413 -142 q 510 -204 436 -204 q 592 -178 564 -204 q 633 -93 621 -153 l 758 494 q 767 565 767 535 q 719 667 767 636 q 564 697 671 697 q 399 672 479 697 q 271 604 319 646 l 263 565 l 425 529 l 411 463 q 330 420 356 449 q 293 333 304 392 l 250 136 q 198 35 236 69 q 99 0 160 0 l 21 0 l 33 64 l 93 64 q 175 139 158 64 l 217 338 q 259 434 229 396 q 344 489 289 472 l 185 525 l 208 636 q 372 727 275 690 q 578 764 468 764 q 843 569 843 764 q 835 490 843 532 l 708 -100 q 637 -227 690 -183 q 503 -271 583 -271 z "},"ญ":{"ha":1336,"x_min":92,"x_max":1335,"o":"m 861 -69 q 723 -54 788 -69 q 610 -12 658 -39 l 624 56 q 738 11 668 26 q 875 -4 807 -4 q 1128 129 1128 -4 q 1110 172 1128 158 q 901 118 1025 118 q 715 169 778 118 q 651 318 651 219 q 661 406 651 361 l 679 494 q 689 572 689 538 q 645 669 689 640 q 499 697 601 697 q 342 672 417 697 q 218 604 267 646 l 210 565 l 368 529 l 354 463 q 217 333 238 436 l 175 140 q 171 106 171 119 q 184 74 171 83 q 228 64 197 64 l 313 64 l 300 0 l 189 0 q 117 24 143 0 q 92 92 92 49 q 96 126 92 108 l 140 338 q 190 433 151 393 q 288 489 228 472 l 132 525 l 156 636 q 314 728 222 692 q 514 764 406 764 q 704 716 643 764 q 765 574 765 668 q 756 490 765 533 l 735 396 q 725 321 725 347 q 771 216 725 249 q 915 183 817 183 q 1093 237 1025 183 q 1183 396 1161 290 l 1258 750 l 1335 750 l 1263 406 q 1227 300 1250 344 q 1169 219 1204 256 q 1201 143 1201 192 q 1197 103 1201 124 q 1099 -26 1181 18 q 861 -69 1018 -69 z "},"ข":{"ha":772,"x_min":78,"x_max":771,"o":"m 318 -14 q 140 35 201 -14 q 78 176 78 85 q 86 247 78 210 l 114 375 q 150 449 122 413 q 228 539 178 486 q 285 603 267 581 q 307 646 303 626 l 310 664 q 301 683 310 678 q 271 688 292 688 l 167 688 l 186 750 l 319 750 q 390 689 390 750 q 365 609 390 646 q 288 515 340 572 q 219 435 243 467 q 189 368 196 403 l 160 235 q 153 174 153 207 q 197 80 153 108 q 332 51 242 51 q 586 236 546 51 l 694 750 l 771 750 l 664 247 q 318 -14 610 -14 z "},"ฃ":{"ha":754,"x_min":81,"x_max":753,"o":"m 311 -14 q 81 168 81 -14 q 89 244 81 203 l 113 356 q 150 428 121 392 q 235 522 179 465 q 303 594 278 564 q 333 649 328 624 q 335 661 335 653 q 303 689 335 689 q 222 656 265 689 l 211 603 l 149 603 l 179 750 l 242 750 l 233 711 q 339 750 286 750 q 392 733 374 750 q 411 685 411 715 q 408 660 411 679 q 373 585 401 622 q 293 496 344 549 q 219 414 244 446 q 188 350 194 382 l 163 235 q 154 167 154 196 q 195 77 154 103 q 325 51 236 51 q 568 236 528 51 l 676 750 l 753 750 l 646 247 q 311 -14 592 -14 z "},"ช":{"ha":779,"x_min":78,"x_max":781,"o":"m 322 -14 q 141 34 204 -14 q 78 176 78 82 q 86 247 78 210 l 114 375 q 150 451 122 414 q 228 540 178 488 q 284 603 265 579 q 307 646 303 626 l 310 664 q 301 683 310 678 q 271 688 292 688 l 167 688 l 186 750 l 319 750 q 390 689 390 750 q 365 609 390 646 q 288 515 340 572 q 219 435 243 467 q 189 368 196 403 l 160 235 q 153 175 153 197 q 197 80 153 108 q 336 51 242 51 q 506 96 439 51 q 593 236 572 140 l 614 335 q 622 407 622 376 q 597 474 622 454 q 511 493 571 493 l 472 493 l 492 556 l 525 556 q 640 592 604 556 q 693 711 676 629 l 704 764 l 781 764 l 769 708 q 720 583 751 629 q 622 521 689 538 q 681 477 664 504 q 699 410 699 450 q 689 331 699 382 l 671 247 q 556 52 644 118 q 322 -14 467 -14 z "},"ซ":{"ha":779,"x_min":78,"x_max":781,"o":"m 322 -14 q 141 34 204 -14 q 78 176 78 82 q 86 247 78 210 l 110 356 q 148 428 118 392 q 235 522 178 465 q 303 594 278 564 q 333 649 328 624 q 335 661 335 653 q 303 689 335 689 q 222 656 265 689 l 211 603 l 149 603 l 179 750 l 242 750 l 233 711 q 339 750 286 750 q 392 733 374 750 q 411 685 411 715 q 408 660 411 679 q 374 588 401 622 q 296 501 347 554 q 219 419 247 454 q 185 350 192 385 l 160 235 q 153 175 153 197 q 197 80 153 108 q 336 51 242 51 q 506 96 439 51 q 593 236 572 140 l 614 335 q 622 407 622 376 q 597 474 622 454 q 511 493 571 493 l 472 493 l 492 556 l 525 556 q 640 592 604 556 q 693 711 676 629 l 704 764 l 781 764 l 769 708 q 720 583 751 629 q 622 521 689 538 q 681 477 664 504 q 699 410 699 450 q 689 331 699 382 l 671 247 q 556 52 644 118 q 322 -14 467 -14 z "},"ค":{"ha":825,"x_min":49,"x_max":779,"o":"m 154 497 q 272 699 183 635 q 519 764 360 764 q 779 574 779 764 q 771 497 779 539 l 665 0 l 589 0 l 696 508 q 703 569 703 546 q 656 667 703 638 q 506 697 608 697 q 232 508 274 697 l 192 315 q 381 378 282 378 l 474 378 l 465 314 l 367 314 q 178 251 269 314 l 125 0 l 49 0 l 154 497 z "},"ฅ":{"ha":825,"x_min":49,"x_max":796,"o":"m 171 578 q 247 716 190 668 q 376 764 303 764 q 451 747 421 764 q 500 692 481 731 q 578 747 531 729 q 672 764 625 764 q 766 736 736 764 q 796 650 796 708 q 788 576 796 618 l 665 0 l 589 0 l 713 585 q 718 633 718 608 q 701 681 718 665 q 646 697 685 697 q 513 628 571 697 l 467 628 q 381 697 443 697 q 291 669 321 697 q 249 583 261 642 l 192 315 q 381 378 282 378 l 474 378 l 465 314 l 367 314 q 178 251 269 314 l 125 0 l 49 0 l 171 578 z "},"ศ":{"ha":853,"x_min":49,"x_max":893,"o":"m 154 497 q 272 699 183 635 q 519 764 360 764 q 642 750 583 764 l 893 750 l 875 685 l 742 685 q 779 569 779 643 q 771 497 779 535 l 665 0 l 589 0 l 696 508 q 704 575 704 546 q 658 669 704 642 q 506 697 611 697 q 232 508 274 697 l 192 315 q 381 378 282 378 l 474 378 l 465 314 l 367 314 q 178 251 269 314 l 125 0 l 49 0 l 154 497 z "},"ด":{"ha":872,"x_min":82,"x_max":821,"o":"m 307 -14 q 140 46 199 -14 q 82 228 82 106 q 99 372 82 292 q 547 764 183 764 q 754 703 688 764 q 821 543 821 643 q 813 472 821 508 l 713 0 l 636 0 l 736 476 q 744 543 744 513 q 532 697 744 697 q 174 372 244 697 q 157 231 157 289 q 201 94 157 136 q 336 51 244 51 q 433 63 399 51 l 419 -3 q 307 -14 376 -14 z "},"ต":{"ha":872,"x_min":82,"x_max":843,"o":"m 307 -14 q 140 46 199 -14 q 82 228 82 106 q 99 372 82 292 q 214 665 140 565 q 401 764 288 764 q 483 747 453 764 q 536 692 513 731 q 622 746 574 728 q 718 764 671 764 q 810 734 778 764 q 843 646 843 704 q 838 593 843 619 l 713 0 l 636 0 l 760 585 q 767 638 767 619 q 749 684 767 671 q 690 697 732 697 q 615 680 653 697 q 550 628 576 663 l 501 628 q 460 681 483 665 q 397 697 438 697 q 261 613 315 697 q 174 372 207 528 q 156 226 156 290 q 199 92 156 133 q 336 51 243 51 q 433 63 399 51 l 419 -3 q 307 -14 376 -14 z "},"ท":{"ha":813,"x_min":49,"x_max":767,"o":"m 207 750 l 274 750 l 260 651 q 402 735 329 706 q 567 764 475 764 q 714 716 661 764 q 767 575 767 668 q 758 497 767 539 l 653 0 l 576 0 l 682 501 q 690 574 690 542 q 651 667 690 638 q 526 697 613 697 q 247 581 385 697 l 125 0 l 49 0 l 207 750 z "},"ฑ":{"ha":806,"x_min":69,"x_max":765,"o":"m 142 342 q 175 420 150 383 q 251 521 200 457 q 316 604 296 574 q 336 661 336 635 q 304 689 336 689 q 222 656 265 689 l 211 603 l 149 603 l 179 750 l 242 750 l 233 711 q 339 750 286 750 q 406 707 394 750 q 592 764 499 764 q 723 725 681 764 q 765 607 765 686 q 753 506 765 563 l 646 0 l 569 0 l 678 510 q 690 604 690 567 q 662 676 690 656 q 561 697 633 697 q 478 683 522 697 q 403 643 435 668 q 376 581 396 611 q 314 496 357 551 q 249 410 274 449 q 217 335 225 372 l 146 0 l 69 0 l 142 342 z "},"น":{"ha":813,"x_min":90,"x_max":811,"o":"m 289 -14 q 140 31 190 -14 q 90 164 90 75 q 101 253 90 200 l 207 750 l 283 750 l 178 249 q 168 169 168 206 q 206 78 168 106 q 328 51 243 51 q 611 168 475 51 l 735 750 l 811 750 l 653 0 l 586 0 l 600 99 q 455 15 531 44 q 289 -14 379 -14 z "},"ม":{"ha":813,"x_min":49,"x_max":811,"o":"m 400 -14 q 249 15 308 -14 q 143 99 189 44 l 115 0 l 49 0 l 207 750 l 283 750 l 160 168 q 257 82 201 113 q 389 51 313 51 q 550 99 493 51 q 629 249 607 146 l 735 750 l 811 750 l 706 253 q 400 -14 649 -14 z "},"ฌ":{"ha":1321,"x_min":92,"x_max":1319,"o":"m 918 -14 q 775 15 831 -14 q 674 99 719 43 l 646 0 l 579 0 l 683 494 q 692 569 692 539 q 647 669 692 640 q 499 697 601 697 q 342 672 417 697 q 218 604 267 646 l 210 565 l 368 529 l 354 463 q 217 333 238 436 l 175 140 q 171 106 171 119 q 183 73 171 82 q 226 64 196 64 l 313 64 l 300 0 l 189 0 q 117 24 142 0 q 92 92 92 49 q 96 126 92 108 l 140 338 q 190 433 151 393 q 288 489 228 472 l 132 525 l 156 636 q 314 728 222 692 q 514 764 406 764 q 768 571 768 764 q 758 490 768 542 l 689 168 q 783 82 731 113 q 907 51 835 51 q 1060 99 1004 51 q 1138 249 1115 146 l 1243 750 l 1319 750 l 1214 253 q 1110 53 1185 119 q 918 -14 1035 -14 z "},"ณ":{"ha":1321,"x_min":92,"x_max":1319,"o":"m 808 -14 q 670 33 718 -14 q 622 167 622 79 q 632 253 622 210 l 683 494 q 693 571 693 546 q 648 668 693 639 q 499 697 603 697 q 342 672 417 697 q 218 604 267 646 l 210 565 l 368 529 l 354 463 q 217 333 238 436 l 175 140 q 169 103 169 110 q 183 72 169 81 q 228 64 196 64 l 313 64 l 300 0 l 189 0 q 117 24 142 0 q 92 90 92 47 q 96 126 92 108 l 140 338 q 190 433 151 393 q 288 489 228 472 l 132 525 l 156 636 q 314 728 222 692 q 514 764 406 764 q 706 716 643 764 q 768 572 768 668 q 758 490 768 542 l 707 249 q 697 168 697 206 q 732 80 697 108 q 847 51 767 51 q 1119 168 983 51 l 1243 750 l 1319 750 l 1161 0 l 1093 0 l 1107 99 q 966 15 1036 43 q 808 -14 896 -14 z "},"ฒ":{"ha":1357,"x_min":82,"x_max":1356,"o":"m 307 -14 q 140 46 199 -14 q 82 228 82 106 q 99 372 82 292 q 213 665 140 565 q 396 764 285 764 q 472 747 442 764 q 525 692 501 729 q 703 764 607 764 q 791 734 760 764 q 822 649 822 704 q 815 593 822 628 l 725 168 q 819 82 767 113 q 943 51 871 51 q 1098 99 1044 51 q 1174 249 1151 146 l 1279 750 l 1356 750 l 1250 253 q 954 -14 1193 -14 q 811 15 867 -14 q 710 99 756 43 l 682 0 l 615 0 l 739 585 q 746 639 746 619 q 728 684 746 671 q 668 697 710 697 q 539 628 593 697 l 490 628 q 451 682 472 667 q 390 697 431 697 q 174 372 244 697 q 156 229 156 282 q 200 93 156 135 q 336 51 244 51 q 433 63 399 51 l 419 -3 q 307 -14 376 -14 z "},"ฆ":{"ha":801,"x_min":38,"x_max":800,"o":"m 389 -14 q 238 15 297 -14 q 132 99 178 44 l 104 0 l 38 0 l 108 339 q 148 417 117 376 q 235 517 179 458 q 304 595 281 565 q 333 649 328 625 q 335 661 335 653 q 303 689 335 689 q 222 656 265 689 l 211 603 l 149 603 l 179 750 l 242 750 l 233 711 q 339 750 286 750 q 392 733 374 750 q 411 683 411 715 q 381 594 411 638 q 293 489 351 551 q 219 403 246 439 q 185 333 192 368 l 149 168 q 246 82 190 113 q 378 51 301 51 q 540 98 485 51 q 618 249 596 144 l 724 750 l 800 750 l 694 253 q 590 53 667 121 q 389 -14 513 -14 z "},"ธ":{"ha":722,"x_min":42,"x_max":713,"o":"m 307 -14 q 160 1 229 -14 q 42 36 92 15 l 103 324 l 175 324 l 124 85 q 315 51 211 51 q 481 88 421 51 q 558 207 542 124 q 565 261 565 242 q 542 331 565 306 q 483 368 519 356 q 367 400 446 381 q 248 433 292 418 q 173 476 204 447 q 142 554 142 506 q 146 589 142 571 q 250 723 165 682 q 478 764 335 764 q 607 753 540 764 q 713 728 674 743 l 697 660 q 594 687 656 676 q 475 697 532 697 q 296 676 360 697 q 218 590 232 654 q 215 565 215 571 q 234 519 215 536 q 284 491 253 501 q 383 464 315 481 q 412 458 399 461 q 438 451 425 454 q 588 388 536 426 q 640 267 640 349 q 633 207 640 244 q 528 40 611 93 q 307 -14 446 -14 z "},"ร":{"ha":697,"x_min":46,"x_max":667,"o":"m 274 -14 q 145 -5 206 -14 q 46 21 85 4 l 60 89 q 276 51 154 51 q 451 80 390 51 q 529 186 513 108 q 533 218 533 203 q 515 273 533 251 q 467 308 496 294 q 382 342 438 322 q 340 356 354 350 q 235 399 276 378 q 166 453 194 419 q 138 535 138 486 q 142 572 138 551 q 461 764 182 764 q 572 754 518 764 q 667 731 626 744 l 653 663 q 458 697 569 697 q 288 670 344 697 q 217 574 232 643 q 214 546 214 554 q 236 488 214 511 q 296 449 258 465 q 410 407 333 432 q 516 365 475 385 q 583 312 557 344 q 610 231 610 279 q 604 188 610 218 q 499 32 581 78 q 274 -14 418 -14 z "},"จ":{"ha":771,"x_min":90,"x_max":735,"o":"m 311 -14 q 228 -1 257 -14 l 174 332 l 90 332 l 108 397 l 238 397 l 293 51 q 324 50 303 50 q 456 85 392 50 q 570 195 519 119 q 644 385 621 271 q 661 517 661 463 q 606 655 661 613 q 424 697 551 697 q 172 663 282 697 l 186 728 q 449 764 303 764 q 735 517 735 764 q 719 385 735 451 q 570 89 679 192 q 311 -14 461 -14 z "},"ว":{"ha":681,"x_min":25,"x_max":644,"o":"m 211 -14 q 25 22 97 -14 l 39 88 q 207 51 121 51 q 438 128 360 51 q 551 375 515 204 q 569 513 569 461 q 516 653 569 608 q 339 697 463 697 q 161 661 250 697 l 175 728 q 263 755 219 746 q 367 764 307 764 q 576 701 507 764 q 644 514 644 639 q 628 375 644 453 q 490 83 586 181 q 211 -14 393 -14 z "},"ง":{"ha":776,"x_min":129,"x_max":746,"o":"m 333 -14 q 231 -1 260 -14 l 129 513 l 204 513 l 296 51 q 331 50 307 50 q 654 401 579 50 q 674 543 674 490 q 634 652 674 619 q 501 685 594 685 l 457 685 l 471 750 l 521 750 q 692 699 638 750 q 746 542 746 649 q 729 403 746 482 q 582 88 685 189 q 333 -14 479 -14 z "},"ฐ":{"ha":822,"x_min":11,"x_max":849,"o":"m 311 -14 q 228 -1 257 -14 l 174 332 l 90 332 l 108 397 l 238 397 l 293 51 q 324 50 303 50 q 456 85 392 50 q 570 195 519 119 q 644 385 621 271 q 661 517 661 463 q 606 655 661 613 q 424 697 551 697 q 172 663 282 697 l 186 728 q 449 764 303 764 q 568 750 510 764 l 849 750 l 831 685 l 674 685 q 735 510 735 625 q 719 385 735 454 q 570 89 679 192 q 311 -14 461 -14 m 392 -271 q 317 -254 349 -271 q 268 -210 285 -237 q 210 -253 247 -237 q 126 -269 174 -269 l 11 -269 l 32 -201 l 131 -201 q 200 -188 172 -201 q 256 -142 228 -175 l 301 -142 q 399 -204 325 -204 q 481 -178 453 -204 q 522 -93 510 -153 l 531 -56 l 607 -56 l 597 -100 q 526 -227 579 -183 q 392 -271 472 -271 z "},"ฉ":{"ha":783,"x_min":74,"x_max":738,"o":"m 263 -14 q 122 31 169 -14 q 74 163 74 75 q 83 249 74 204 l 118 417 l 194 417 l 158 244 q 147 161 147 193 q 183 76 147 101 q 303 51 219 51 q 582 168 449 51 l 651 490 q 661 568 661 531 q 609 669 661 640 q 432 697 557 697 q 295 686 372 697 q 160 657 218 675 l 174 722 q 313 752 233 740 q 467 764 393 764 q 670 717 603 764 q 738 571 738 669 q 728 490 738 542 l 624 0 l 557 0 l 571 99 q 428 15 501 44 q 263 -14 354 -14 z "},"ล":{"ha":803,"x_min":57,"x_max":760,"o":"m 260 -14 q 111 25 165 -14 q 57 143 57 64 q 64 203 57 165 q 168 367 86 308 q 393 426 250 426 l 657 426 l 672 500 q 683 583 683 553 q 639 672 683 647 q 485 697 594 697 q 242 663 354 697 l 256 728 q 515 764 371 764 q 701 721 642 764 q 760 586 760 678 q 749 497 760 550 l 643 0 l 567 0 l 643 361 l 385 361 q 215 322 276 361 q 138 203 154 283 q 131 150 131 171 q 169 74 131 97 q 294 51 207 51 q 392 63 350 51 l 378 -3 q 260 -14 326 -14 z "},"ส":{"ha":838,"x_min":57,"x_max":864,"o":"m 260 -14 q 111 25 165 -14 q 57 143 57 64 q 64 203 57 165 q 168 367 86 308 q 393 426 250 426 l 657 426 l 672 500 q 683 585 683 553 q 640 673 683 649 q 485 697 596 697 q 242 663 354 697 l 256 728 q 515 764 371 764 q 638 750 590 764 l 864 750 l 846 685 l 729 685 q 758 582 758 646 q 749 497 758 540 l 643 0 l 567 0 l 643 361 l 385 361 q 215 322 276 361 q 138 203 154 283 q 131 150 131 171 q 169 74 131 97 q 294 51 207 51 q 392 63 350 51 l 378 -3 q 260 -14 326 -14 z "},"บ":{"ha":838,"x_min":96,"x_max":836,"o":"m 360 -14 q 163 38 229 -14 q 96 190 96 89 q 106 274 96 231 l 207 750 l 283 750 l 181 264 q 172 190 172 222 q 220 84 172 117 q 374 51 268 51 q 560 103 486 51 q 657 264 633 154 l 760 750 l 836 750 l 735 274 q 615 57 704 128 q 360 -14 525 -14 z "},"ป":{"ha":838,"x_min":96,"x_max":883,"o":"m 360 -14 q 163 38 229 -14 q 96 190 96 89 q 106 274 96 231 l 207 750 l 283 750 l 181 264 q 172 190 172 222 q 220 84 172 117 q 374 51 268 51 q 560 103 486 51 q 657 264 633 154 l 807 972 l 883 972 l 735 274 q 615 57 704 128 q 360 -14 525 -14 z "},"ษ":{"ha":865,"x_min":96,"x_max":865,"o":"m 360 -14 q 163 38 229 -14 q 96 190 96 89 q 106 274 96 231 l 207 750 l 283 750 l 181 264 q 172 190 172 222 q 220 84 172 117 q 374 51 268 51 q 560 103 486 51 q 657 264 633 154 l 685 394 l 467 394 l 481 458 l 697 458 l 760 750 l 836 750 l 774 458 l 865 458 l 844 394 l 760 394 l 735 274 q 615 57 704 128 q 360 -14 525 -14 z "},"ย":{"ha":803,"x_min":58,"x_max":801,"o":"m 332 -14 q 129 31 200 -14 q 58 160 58 75 q 64 207 58 185 q 122 324 79 278 q 226 392 164 371 q 163 436 188 404 q 138 517 138 468 q 143 561 138 531 q 233 713 164 661 q 394 764 301 764 q 501 750 456 764 l 488 685 q 396 697 451 697 q 219 561 249 697 q 215 518 215 539 q 248 447 215 469 q 356 424 281 424 l 436 424 l 431 363 l 339 363 q 206 322 258 363 q 139 207 154 282 q 135 167 135 186 q 185 80 135 108 q 344 51 235 51 q 531 98 465 51 q 618 244 597 144 l 725 750 l 801 750 l 704 289 q 640 120 682 186 q 524 20 599 54 q 332 -14 450 -14 z "}}}
